<svg width="84" height="95" viewBox="0 0 84 95" fill="none" xmlns="http://www.w3.org/2000/svg">
<path fill-rule="evenodd" clip-rule="evenodd" d="M75.2462 1.62203C78.4756 3.05027 81.5611 6.27914 82.7613 9.48737C84.7268 14.7401 83.5654 21.2489 79.993 25.0046L78.2051 26.8838L78.0736 56.7153C77.9429 86.4701 77.9397 86.5514 76.9241 88.45C75.7724 90.6035 73.5756 92.6203 71.3792 93.5407C70.1836 94.0416 63.9024 94.163 39.1631 94.163C9.80662 94.163 8.35578 94.1232 6.71981 93.2803C5.77812 92.7947 4.34249 91.7039 3.53051 90.8568C0.482926 87.6777 0.621404 89.671 0.626481 49.0548L0.631102 12.2262L1.73065 9.86415C2.92023 7.31003 5.12953 5.33058 7.89137 4.34503C9.2536 3.85848 14.919 3.72233 34.4444 3.70663L59.2655 3.68633L61.1124 2.52032C65.345 -0.151512 70.4957 -0.478779 75.2462 1.62203ZM58.1059 11.4747C59.0541 8.69212 61.1895 6.20354 63.793 4.84778C67.9051 2.70634 73.7842 3.53078 76.9071 6.68685C79.6107 9.41961 80.251 11.014 80.2441 14.9959C80.2372 19.0748 79.6675 20.5861 77.2103 23.0433C71.231 29.0221 61.2661 26.9083 58.321 19.0364C57.2169 16.0862 57.1642 14.2375 58.1059 11.4747ZM4.88394 11.0708C5.65069 9.54934 6.48021 8.71748 7.99016 7.95627C10.0443 6.92041 10.109 6.91765 33.2378 6.91765H56.4256L55.4355 9.1103C53.8886 12.5359 54.0012 17.8768 55.6926 21.3214C58.4147 26.864 64.8847 30.5653 70.4869 29.7848C71.7947 29.6029 73.2801 29.4204 73.7879 29.3798C74.7019 29.3068 74.7111 29.5889 74.7111 57.4987V85.6914L73.4113 87.6556C71.1544 91.0646 72.5494 90.9317 39.019 90.9317H9.06759L7.54147 89.8931C6.70226 89.3216 5.58099 88.2681 5.04967 87.5512C4.09135 86.2582 4.08304 85.9647 3.96071 49.6974L3.83702 13.1472L4.88394 11.0708Z" fill="#F26531"/>
<path fill-rule="evenodd" clip-rule="evenodd" d="M45.1281 24.9455C50.0406 26.7832 53.8928 31.4585 55.128 37.0819C56.5521 43.5648 52.7346 51.229 46.5822 54.2392C38.3188 58.282 28.5505 54.9109 24.6942 46.6849C23.656 44.4701 23.4718 43.4522 23.4718 39.9232C23.4718 36.3941 23.656 35.3762 24.6942 33.1614C26.2808 29.7778 29.0726 27.0265 32.6261 25.3453C36.2609 23.6257 41.1803 23.4683 45.1281 24.9455ZM27.7127 34.3593C29.0865 31.7724 31.3599 29.6231 34.089 28.3306C37.0032 26.9508 41.5104 26.8442 44.2445 28.0905C51.2491 31.2835 54.2048 39.913 50.4242 46.13L49.4857 47.6732L48.6613 46.3175C48.2075 45.5715 47.1758 44.4055 46.3679 43.7255C44.9651 42.5452 44.9286 42.432 45.5624 41.2064C46.2622 39.8525 46.4566 38.6158 46.373 36.0539C46.3338 34.8634 45.8436 34.0144 44.3055 32.4763C42.381 30.5519 42.165 30.46 39.5739 30.4618C36.2198 30.4637 34.2667 31.542 32.9534 34.1164C31.7841 36.4088 31.756 38.5341 32.8666 40.7125L33.7215 42.3895L32.3833 43.3788C31.6475 43.9231 30.7049 45.0817 30.289 45.9541C29.8731 46.8261 29.3676 47.5398 29.1659 47.5398C28.9641 47.5398 28.3313 46.6572 27.7593 45.5779C26.3002 42.8253 26.2761 37.0644 27.7127 34.3593ZM36.5923 40.1895C34.8968 38.494 34.8183 36.5926 36.3749 34.9128C37.8696 33.2999 40.6379 33.2108 42.0454 34.7299C45.6215 38.5895 40.3102 43.9073 36.5923 40.1895ZM32.4733 49.6235C32.4733 47.9898 33.7622 46.16 35.4517 45.3947C36.3306 44.9963 38.0312 44.8089 39.981 44.8943C42.735 45.0157 43.265 45.1934 44.4712 46.4009C45.2236 47.1543 45.9728 48.4422 46.1367 49.263C46.4215 50.6921 46.3416 50.7955 44.2625 51.6864C39.7835 53.6063 32.4733 52.3272 32.4733 49.6235Z" fill="#F26531"/>
<path d="M75.14 11.7974C75.5388 12.1967 75.8652 12.7396 75.8652 13.0045C75.8652 13.9596 68.7965 20.7661 67.8049 20.7661C66.3236 20.7661 62.3597 16.5423 62.554 15.1703C62.7858 13.5316 64.3331 13.5492 65.9229 15.2082C66.6624 15.98 67.4555 16.6116 67.6854 16.6116C67.9153 16.6116 69.361 15.3652 70.8987 13.8418C72.4363 12.3185 73.8563 11.0722 74.0543 11.0722C74.2523 11.0722 74.7407 11.3985 75.14 11.7974Z" fill="#F26531"/>
<path d="M55.068 62.0511C55.4779 62.5451 55.4872 62.9587 55.1049 63.6732C54.599 64.6182 54.3705 64.6302 39.3126 64.5101C25.8381 64.403 23.9782 64.3006 23.5637 63.6437C23.3056 63.2338 23.2244 62.5589 23.3837 62.1434C23.644 61.4653 25.2435 61.3883 39.0957 61.3883C51.936 61.3883 54.6101 61.499 55.068 62.0511Z" fill="#F26531"/>
<path d="M55.1248 70.8902C55.5647 71.4205 55.5984 71.8323 55.2462 72.3904C54.8132 73.0773 53.1892 73.1733 40.0397 73.2887C31.9429 73.3594 24.8507 73.3035 24.2797 73.1641C23.1339 72.8848 22.7909 70.8791 23.818 70.4646C24.1356 70.3367 31.1725 70.2153 39.4566 70.1955C52.6644 70.1636 54.5926 70.249 55.1248 70.8902Z" fill="#F26531"/>
<path d="M54.8889 79.5948C55.6063 80.128 55.6829 80.4266 55.273 81.0951C54.7952 81.8743 53.7127 81.9302 39.1229 81.9302C24.4371 81.9302 23.4746 81.8793 23.3246 81.1001C22.9188 78.9919 23.3717 78.9297 39.1349 78.9297C51.3516 78.9297 54.1522 79.0478 54.8889 79.5948Z" fill="#F26531"/>
</svg>
