<svg width="118" height="149" viewBox="0 0 118 149" fill="none" xmlns="http://www.w3.org/2000/svg">
<path fill-rule="evenodd" clip-rule="evenodd" d="M83.1936 39.8039C84.2491 40.6339 85.5385 42.3328 86.0586 43.5784C86.9373 45.6804 86.5126 48.0609 80.1425 76.7489C76.3681 93.7475 72.7872 108.608 72.185 109.773C70.6929 112.66 66.807 115.949 63.6662 116.986C59.8138 118.257 53.3957 117.475 50.1706 115.34C46.7053 113.047 45.241 110.564 41.8927 101.306C40.3685 97.0937 36.7244 87.0675 33.7938 79.0257C27.9626 63.0235 27.7683 61.5001 31.166 58.3627C32.2146 57.3942 37.3022 54.8452 42.472 52.6973C47.6417 50.5493 57.5113 46.4511 64.4043 43.5901C71.2972 40.7292 77.9131 38.3676 79.1058 38.3418C80.3368 38.3147 82.1046 38.9468 83.1936 39.8039ZM79.7179 49.8461C76.2108 50.7262 73.7112 46.1455 76.2901 43.5659C79.1072 40.7495 83.9316 44.081 82.2814 47.7029C81.8574 48.6345 80.7038 49.5989 79.7179 49.8461ZM50.1308 53.9274C54.5347 52.1193 60.6445 49.5989 63.708 48.3268C66.7716 47.0547 69.636 45.9999 70.0732 45.9832C70.5098 45.9672 71.0807 46.8153 71.3411 47.868C72.1453 51.1216 75.0807 53.6122 78.1115 53.6122C79.5827 53.6122 80.7664 53.9547 80.7664 54.3802C80.7664 54.8028 79.0724 62.8711 77.0017 72.3089C74.9317 81.7474 73.0267 90.4883 72.7691 91.7325C72.5115 92.9767 72.2197 93.9953 72.1209 93.9953C72.0227 93.9953 70.6727 92.788 69.1214 91.3126C66.415 88.7379 62.156 87.0327 58.4324 87.0327C54.7339 87.0327 51.0736 88.8214 47.6438 92.3048L44.1131 95.892L39.985 84.3988C37.7151 78.0774 35.7705 72.6897 35.664 72.4258C35.5575 72.1627 36.6728 71.5869 38.1426 71.1462C42.1016 69.9604 44.2126 67.3792 44.2126 63.7246C44.2126 61.7451 43.7594 60.2197 42.8821 59.2512C42.151 58.4429 41.681 57.654 41.8377 57.4987C41.995 57.3427 45.727 55.7356 50.1308 53.9274ZM36.6749 67.5374C33.3377 67.5374 31.6284 63.6363 33.8766 61.152C36.033 58.7694 40.3832 60.3972 40.3832 63.5868C40.3832 65.45 38.4239 67.5374 36.6749 67.5374ZM48.643 107.351C45.931 101.795 48.2071 95.1058 53.7375 92.3813C61.1144 88.7461 69.714 94.0302 69.8386 102.275C69.9382 108.87 65.308 113.491 58.6002 113.491C53.7876 113.491 50.7143 111.596 48.643 107.351Z" fill="#F26531"/>
<path fill-rule="evenodd" clip-rule="evenodd" d="M63.309 98.6151C65.4069 101.282 65.1667 104.132 62.6316 106.667C60.7976 108.501 60.1612 108.732 57.9318 108.376C54.7262 107.863 52.9159 105.739 52.9159 102.493C52.9159 98.8908 55.1286 96.7804 58.9052 96.7804C61.2745 96.7804 62.1546 97.1466 63.309 98.6151ZM57.2731 103.525C56.3631 102.614 56.3262 102.231 57.0642 101.341C58.0905 100.104 58.016 100.125 59.4733 100.684C60.8978 101.231 60.8999 103.662 59.4761 104.208C58.8724 104.44 57.881 104.133 57.2731 103.525Z" fill="#F26531"/>
<path fill-rule="evenodd" clip-rule="evenodd" d="M67.5374 8.00707C67.5374 3.71323 67.2895 2.53716 66.1449 1.3925C64.9738 0.221391 63.8243 0 58.9114 0C50.91 0 50.0543 0.724886 49.5948 7.88315L49.2516 13.229H45.287C39.9912 13.229 38.2945 14.8875 38.2945 20.0621C38.2945 23.1772 38.1078 23.6729 36.9374 23.6729C36.191 23.6729 34.7393 24.7752 33.7123 26.1224L31.8436 28.5717L29.532 26.8081C26.3397 24.3733 24.3567 23.7494 22.1969 24.5028C20.7187 25.018 19.8588 24.7981 17.7443 23.3624C14.7455 21.3279 12.6337 21.1364 9.73311 22.6361C7.26347 23.9131 4.1776 28.2717 4.1776 30.4838C4.1776 32.6846 5.98231 36.0044 7.67005 36.9081C8.82445 37.5257 8.98673 38.1064 8.62954 40.3407C8.23685 42.7936 8.45403 43.3068 11.0998 46.1768L14.0005 49.3239L11.5259 52.5657C10.1647 54.3489 9.05145 56.2858 9.05145 56.87C9.05145 57.4548 10.3187 60.6374 11.8679 63.9432C13.9051 68.29 14.435 70.0356 13.7826 70.2501C11.8122 70.8976 8.3552 75.1051 8.3552 76.8555C8.3552 78.3128 7.69929 78.9867 4.89892 80.4057C1.10221 82.3295 0 83.7944 0 86.9171C0 89.5887 10.5922 111.739 12.1567 112.339C14.1397 113.1 17.3133 112.852 20.0099 111.725C22.0673 110.866 22.9551 110.816 24.5384 111.472C25.6844 111.947 28.0545 112.128 30.2081 111.906L33.908 111.524L37.4324 118.948C40.0399 124.439 41.0336 127.411 41.2487 130.365C41.5766 134.858 42.8995 136.841 46.0258 137.528C47.9732 137.955 48.0421 138.111 48.0421 142.092C48.0421 148.438 48.9096 149 58.713 149C66.0551 149 66.7027 148.889 68.1126 147.389C69.2948 146.129 69.6262 144.923 69.6262 141.872C69.6262 138.007 69.6513 137.959 72.1307 137.141C75.0042 136.193 76.593 133.289 76.5819 129.005C76.5777 127.293 77.8337 123.644 80.1732 118.573C83.3084 111.777 83.9302 110.86 85.0081 111.436C86.7473 112.367 91.6664 112.26 93.2734 111.256C94.363 110.576 95.1004 110.642 97.1174 111.604C100.709 113.317 104.565 113.159 106.301 111.228C108.086 109.242 117.668 88.8673 117.668 87.0577C117.668 84.3276 116.055 82.246 112.707 80.6564C110.486 79.6023 109.313 78.6088 109.313 77.7823C109.313 75.58 107.275 72.4732 105.088 71.3425C102.643 70.0781 102.667 69.8956 106.266 62.3871C107.559 59.6884 108.617 57.1046 108.617 56.6444C108.617 56.1842 107.52 54.3711 106.18 52.6152C104.84 50.8592 103.743 49.2591 103.743 49.0592C103.743 48.8594 104.84 47.7329 106.18 46.5562C108.317 44.6798 108.617 44.0135 108.617 41.1372C108.617 38.403 108.964 37.5264 110.706 35.8575C113.464 33.2145 113.595 29.2061 111.036 25.738C107.754 21.2896 104.177 20.4763 100.092 23.2481C98.1025 24.5989 97.0401 24.8455 94.4605 24.5544C91.6719 24.2404 90.9464 24.4611 88.5568 26.3542L85.8324 28.5119L83.6308 26.0925C82.4193 24.762 81.0052 23.6729 80.4879 23.6729C79.8459 23.6729 79.442 22.4168 79.2192 19.7278C78.7868 14.5163 77.2858 13.229 71.6377 13.229H67.5374V8.00707ZM53.6122 8.70332V13.229H58.486H63.3599V8.70332V4.1776H58.486H53.6122V8.70332ZM42.472 20.1916V22.9767H58.8342H75.1962V20.1916V17.4066H58.8342H42.472V20.1916ZM10.0624 27.604C9.12387 28.6171 8.3552 29.9727 8.3552 30.616C8.3552 31.6868 11.0483 34.8131 11.9716 34.8131C12.1881 34.8131 13.5514 33.3655 15.001 31.5956L17.6377 28.379L15.9556 27.086C13.6377 25.3043 12.0656 25.4428 10.0624 27.604ZM101.61 27.0506L100.019 28.3385L101.458 30.3578C102.249 31.4676 103.56 32.9764 104.372 33.7088C105.829 35.0262 105.867 35.0227 107.579 33.4136C109.761 31.3645 109.751 30.5666 107.51 27.9041C105.443 25.4463 103.871 25.2194 101.61 27.0506ZM21.9295 29.7589C18.5143 33.3809 12.5327 40.8866 12.5327 41.5487C12.5327 41.9136 13.4943 43.132 14.6695 44.2565L16.8064 46.3014L18.6731 44.086C26.9012 34.32 28.4728 32.5109 28.0759 31.4148C27.9701 31.1229 27.725 30.8816 27.4286 30.5541C24.9618 27.8283 23.8951 27.6743 21.9295 29.7589ZM26.3912 41.2535C20.1736 48.6256 14.6383 55.1843 14.0903 55.8298C13.0055 57.1088 13.4867 58.3021 23.9577 80.32C26.4817 85.6269 28.5468 90.2376 28.5468 90.5655C28.5468 90.8928 27.9528 91.4791 27.2273 91.8676C25.4776 92.8041 25.2563 92.4956 20.4075 82.3817C16.6206 74.4819 16.2619 73.9821 14.79 74.5495C13.9252 74.883 12.8774 75.9023 12.4617 76.8144C11.8037 78.2584 12.5906 80.3451 18.5338 92.9314C25.7346 108.178 26.6105 109.319 30.1022 107.991L31.9668 107.282L29.8571 102.63C28.0517 98.6477 27.8881 97.8373 28.7201 97.0052C29.9379 95.7875 31.8331 96.4607 32.4235 98.3211C32.67 99.0974 35.3297 104.865 38.3348 111.137L43.7977 122.542H58.8202H73.8421L76.6794 116.45C78.2404 113.099 83.4358 101.9 88.2261 91.5634C93.0157 81.2267 98.6282 69.1931 100.697 64.8234C103.92 58.0174 104.326 56.7182 103.529 55.7671C103.017 55.1565 97.4676 48.6256 91.1978 41.2535L79.7972 27.8505H58.7464H37.6963L26.3912 41.2535ZM98.9464 78.1324C97.8373 80.5387 94.3741 87.9831 91.2507 94.6763C86.0148 105.897 85.6666 106.914 86.7834 107.731C90.0781 110.14 91.8913 107.896 99.2466 92.3048C106.114 77.7474 106.33 76.5839 102.527 74.5815C101.051 73.8038 100.85 74.0022 98.9464 78.1324ZM6.51635 84.1942C5.3139 84.9273 4.1547 85.8101 3.94095 86.1561C3.50509 86.8614 12.8029 107.043 14.24 108.513C15.0115 109.302 15.5698 109.259 17.7088 108.244C19.1103 107.579 20.1638 106.627 20.0503 106.129C19.7049 104.615 9.42465 82.8747 9.05145 82.867C8.85998 82.8635 7.71949 83.4603 6.51635 84.1942ZM102.807 94.1269C99.8753 100.281 97.4767 105.75 97.4767 106.282C97.4767 106.812 98.5795 107.773 99.9275 108.416C102.06 109.433 102.499 109.454 103.311 108.579C104.528 107.265 113.491 87.9796 113.491 86.6727C113.491 86.1205 112.286 85.054 110.814 84.3034L108.138 82.9379L102.807 94.1269ZM45.5425 126.979C45.3343 127.522 45.2633 129.173 45.3845 130.65L45.6052 133.334L58.0467 133.525C66.8753 133.66 70.7778 133.475 71.4845 132.889C72.1265 132.356 72.4064 131.051 72.272 129.216L72.0631 126.371L58.9922 126.182C48.2301 126.026 45.8544 126.167 45.5425 126.979ZM51.6592 141.167L51.8716 144.474L58.6601 144.673L65.4486 144.873V141.366V137.86H58.4477H51.4468L51.6592 141.167ZM89.3429 32.6645C88.5415 31.7099 88.7629 31.3136 90.9771 29.738C92.3856 28.7361 93.8108 28.0845 94.1443 28.2906C95.5654 29.1693 105.165 41.3385 104.949 41.9874C104.818 42.3794 103.764 43.4307 102.607 44.3233L100.502 45.9463L95.3858 39.8576L93.8394 38.017C91.6371 35.3956 89.7578 33.1587 89.3429 32.6645Z" fill="#F26531"/>
</svg>
