<svg width="573" height="550" viewBox="0 0 573 550" fill="none" xmlns="http://www.w3.org/2000/svg">
<path d="M203.059 161.816C209.357 163.14 214.405 168.101 215.897 174.429C216.248 175.919 216.338 178.43 216.342 186.81L216.346 197.321L214.965 196.621C213.389 195.823 211.603 195.292 209.602 195.03L208.22 194.848L208.984 193.726C210.624 191.317 210.839 190.088 210.839 183.105C210.839 175.66 210.673 175.031 208.305 173.53C206.635 172.47 205.319 172.43 203.077 173.371C198.988 175.087 195.388 175.928 190.03 176.418C187.499 176.649 186.738 176.846 185.03 177.715L183.015 178.738L183.019 177.808C183.029 175.999 183.89 172.793 184.942 170.646C187.02 166.405 191.76 162.714 196.282 161.814C198.921 161.288 200.555 161.289 203.059 161.816Z" fill="white"/>
<path d="M206.512 177.044C207.088 177.619 207.109 177.896 207.02 183.637C206.914 190.454 206.738 191.094 204.432 193.068C203.767 193.637 202.985 194.493 202.696 194.969C201.277 197.303 198.128 197.26 196.661 194.886C196.324 194.341 195.623 193.571 195.103 193.175C194.584 192.778 193.77 191.754 193.296 190.897C192.442 189.354 192.434 189.302 192.434 184.729V180.117L195.333 179.616C198.315 179.101 202.045 178.014 204.233 177.02C205.785 176.316 205.785 176.316 206.512 177.044Z" fill="white"/>
<path d="M188.57 185.356C188.663 189.99 188.705 190.292 189.502 192.018C189.961 193.012 190.515 193.973 190.733 194.155C191.417 194.722 191.18 194.907 189.553 195.075C188.686 195.164 186.86 195.686 185.495 196.233L183.015 197.229V191.172C183.015 184.352 183.183 183.644 185.167 182.131C186.1 181.419 187.789 180.541 188.28 180.512C188.386 180.506 188.517 182.685 188.57 185.356Z" fill="white"/>
<path d="M196.704 209.776C201.136 215.435 205.548 221.075 206.508 222.31L208.254 224.557H205.954H203.655L201.472 221.731C200.271 220.176 196.989 215.97 194.179 212.383C185.884 201.798 185.331 201.077 185.258 200.758C185.179 200.41 187.576 199.334 188.221 199.427C188.453 199.461 192.271 204.118 196.704 209.776Z" fill="white"/>
<path d="M183.916 205.5C186.664 208.982 196.962 222.197 197.918 223.47L198.735 224.557H194.643H190.55V220.676C190.55 217.4 190.471 216.702 190.043 216.2C189.306 215.334 188.011 215.254 187.238 216.027C186.867 216.398 186.782 217.236 186.782 220.519V224.557H181.768C178.255 224.557 176.65 224.453 176.406 224.209C175.887 223.69 175.971 222.352 176.936 215.802C177.505 211.94 178.063 209.206 178.523 208.033C179.198 206.312 181.333 203.108 181.806 203.108C181.928 203.108 182.878 204.184 183.916 205.5Z" fill="white"/>
<path d="M196.518 199.665C198.124 200.455 198.583 200.553 200.177 200.447C201.516 200.357 202.324 200.117 203.225 199.543C204.315 198.848 204.731 198.761 206.962 198.761C212.981 198.761 218.098 201.994 220.602 207.38C221.452 209.208 221.708 210.362 222.587 216.34C223.904 225.289 224.331 224.557 217.789 224.557H212.868L212.848 220.861C212.825 216.761 212.713 216.254 211.713 215.719C210.31 214.968 209.008 216.043 208.751 218.165C208.68 218.756 208.028 218.054 204.846 213.962C202.745 211.26 199.256 206.781 197.092 204.009C194.929 201.236 193.159 198.92 193.159 198.864C193.159 198.474 194.982 198.908 196.518 199.665Z" fill="white"/>
<path d="M370.333 161.798C372.892 162.34 374.93 163.472 376.511 165.232C377.213 166.013 377.787 166.752 377.787 166.876C377.787 166.999 378.295 167.608 378.916 168.229C380.525 169.838 380.976 171.589 380.976 176.233C380.976 179.552 381.043 180.072 381.575 180.818C381.919 181.302 382.135 181.988 382.082 182.433C381.995 183.169 381.66 183.32 375.325 185.486C368.398 187.854 367.019 188.526 365.811 190.127C364.504 191.856 364.397 192.81 364.524 201.515C364.622 208.281 364.728 209.893 365.158 211.213C365.85 213.339 367.116 215.966 368.342 217.818L369.349 219.339H354.294C335.79 219.339 337.344 219.914 338.964 213.674C339.948 209.886 340.295 209.083 341.583 207.616C342.942 206.068 343.866 205.628 350.094 203.561C353.275 202.506 356.113 201.429 356.401 201.168C357.007 200.62 357.788 198.202 357.788 196.875C357.788 196.276 357.538 195.728 357.058 195.277C355.838 194.131 354.638 192.014 354.262 190.344C354.065 189.473 353.791 188.683 353.652 188.586C353.513 188.49 353.083 187.539 352.696 186.472C351.817 184.052 351.77 181.855 352.571 180.646C353.055 179.915 353.147 179.282 353.149 176.691C353.152 171.716 354.368 168.749 357.759 165.439C360.237 163.02 363.857 161.449 367.063 161.401C367.781 161.39 369.252 161.569 370.333 161.798Z" fill="white"/>
<path fill-rule="evenodd" clip-rule="evenodd" d="M392.901 190.241C396.943 191.613 400.478 192.938 400.757 193.185C401.213 193.588 401.264 194.325 401.264 200.512C401.264 206.842 401.211 207.575 400.593 209.707C399.693 212.814 397.89 215.755 395.329 218.291C392.197 221.393 387.216 224.557 385.466 224.557C383.973 224.557 379.343 221.682 376.397 218.926C372.946 215.698 370.847 212.095 370.079 208.085C369.566 205.403 369.511 194.793 370.005 193.71C370.208 193.263 370.8 192.806 371.527 192.536C372.413 192.205 385.263 187.813 385.51 187.756C385.534 187.751 388.86 188.869 392.901 190.241ZM384.883 205.828C386.598 203.444 390.533 198.851 391.12 198.549C392.115 198.036 393.139 198.323 394.122 199.391C395.266 200.632 395.042 201.756 393.189 204.067C392.398 205.054 390.621 207.297 389.241 209.05C386.545 212.476 385.73 213.117 384.403 212.851C383.265 212.624 377.906 207.967 377.661 206.993C377.227 205.265 378.455 203.688 380.234 203.688C381.231 203.688 381.665 203.903 382.955 205.031C384.41 206.303 384.511 206.345 384.883 205.828Z" fill="white"/>
<path d="M532.933 328.682C533.198 328.881 533.777 330.088 534.22 331.363L535.026 333.682L536.711 333.769C538.394 333.856 538.398 333.855 539.899 332.359C541.832 330.434 542.547 329.969 543.24 330.189C543.549 330.287 544.607 331.589 545.592 333.082L547.382 335.796L555.841 339.62C560.493 341.724 564.768 343.747 565.341 344.117C566.621 344.942 567.343 346.389 567.343 348.126C567.343 350.063 567.061 350.559 564.477 353.16L562.126 355.527V359.1V362.673L558.141 366.635C554.396 370.356 554.072 370.608 552.776 370.794C549.827 371.218 547.942 373.579 547.93 376.863L547.924 378.597L544.813 381.718C542.466 384.072 541.519 384.838 540.956 384.838C540.39 384.838 539.459 384.077 537.11 381.693C535.406 379.964 534.011 378.33 534.011 378.063C534.011 377.796 534.794 376.736 535.75 375.708C538.328 372.937 538.295 372.816 534.011 369.408L532.417 368.14L532.335 365.545L532.252 362.95L530.596 362.083L528.939 361.216L528.794 359.5L528.649 357.784L526.372 357.026C525.119 356.609 523.913 356.019 523.691 355.716C523.468 355.411 523.287 354.486 523.287 353.649V352.133L520.668 353.443C518.897 354.328 517.834 354.698 517.387 354.586C516.467 354.356 510.824 348.5 510.824 347.777C510.824 347.439 511.957 346.034 513.551 344.395L516.279 341.591L516.377 338.7L516.476 335.81L517.559 334.818C518.448 334.004 518.869 333.826 519.914 333.826C520.615 333.826 521.68 334.032 522.283 334.284C523.312 334.714 523.423 334.708 524.13 334.182C524.689 333.765 524.922 333.278 525.039 332.276C525.126 331.536 525.329 330.799 525.49 330.638C525.82 330.309 531.299 328.375 532 328.341C532.248 328.329 532.668 328.483 532.933 328.682Z" fill="white"/>
<path fill-rule="evenodd" clip-rule="evenodd" d="M530.735 159.362C533.922 160.459 536.747 162.813 538.309 165.674L539.155 167.223L540.053 165.654C541.128 163.775 543.842 161.112 545.591 160.219C548.678 158.644 552.869 158.221 556.039 159.164C562.649 161.128 567.001 167.901 565.917 174.535C565.33 178.134 563.313 181.632 560.703 183.581L559.27 184.65L561.06 185.28C563.751 186.226 564.561 186.724 566.725 188.766C568.827 190.748 570.156 192.889 570.938 195.553C571.595 197.787 571.631 218.923 570.981 220.18C570.365 221.371 568.654 222.764 567.566 222.96C567.045 223.053 553.902 223.092 538.359 223.046L510.1 222.962L509.039 222.151C506.909 220.521 506.911 220.537 506.913 208.181C506.914 196.68 506.97 196.062 508.245 193.417C508.822 192.221 508.945 191.516 508.578 191.513C508.017 191.508 507.003 189.444 506.986 188.27C506.961 186.684 507.546 185.563 509.182 184.054C511.547 181.874 513.552 181.852 516.076 183.98C517.184 184.915 517.619 185.117 518.204 184.97C519.139 184.736 519.134 184.47 518.184 183.962C516.947 183.3 514.683 180.612 513.737 178.682C511.939 175.013 511.85 170.87 513.484 166.946C514.219 165.179 514.801 164.334 516.319 162.829C520.295 158.889 525.631 157.606 530.735 159.362ZM515.709 166.959C516.947 164.537 519.187 162.558 522.025 161.382C523.181 160.902 523.976 160.81 526.476 160.867C529.088 160.927 529.755 161.047 531.186 161.718C533.519 162.811 535.854 165.111 536.992 167.437C537.87 169.231 537.924 169.527 537.924 172.536C537.924 175.543 537.87 175.841 536.998 177.612C534.668 182.344 529.266 185.234 524.43 184.334C516.212 182.806 511.949 174.313 515.709 166.959ZM540.359 174.348C539.354 168.891 542.749 163.397 548.487 161.197C549.182 160.93 550.509 160.828 552.561 160.883C555.251 160.954 555.802 161.062 557.303 161.81C564.694 165.491 566.322 175.173 560.527 180.976C558.814 182.691 557.45 183.458 554.966 184.101C552.676 184.695 551.385 184.678 549.028 184.024C544.384 182.737 541.264 179.253 540.359 174.348ZM535.407 182.944C536.389 182.055 537.616 180.62 538.133 179.755C539.003 178.301 539.518 177.811 539.518 178.439C539.518 179.09 541.944 182.224 543.303 183.33L544.813 184.559H539.218H533.623L535.407 182.944ZM508.957 187.66C509.19 186.882 511.042 184.883 511.839 184.549C512.652 184.207 512.783 184.217 513.665 184.682C514.504 185.125 517.678 188.297 518.463 189.478C519.811 191.505 518.089 194.413 515.54 194.413C514.509 194.413 513.752 193.908 511.455 191.69C509.356 189.664 508.682 188.577 508.957 187.66ZM519.592 187.667C519.173 187.204 519.165 187.096 519.531 186.864C519.764 186.717 522.767 186.594 526.205 186.592C531.084 186.588 532.803 186.689 534.031 187.049C538.758 188.436 542.437 192.442 543.308 197.149C543.477 198.065 543.563 202.994 543.514 209.005L543.431 219.293L542.736 220.033C541.131 221.74 538.687 221.527 537.497 219.574C536.942 218.664 536.912 218.132 536.911 209.258C536.91 200.864 536.861 199.883 536.436 199.72C536.175 199.62 535.751 199.671 535.494 199.833C535.078 200.096 535.026 201.217 535.026 209.82C535.026 218.448 535.08 219.593 535.518 220.261C535.789 220.674 535.93 221.092 535.832 221.19C535.734 221.288 531.371 221.368 526.137 221.368C515.947 221.368 516.204 221.409 517.056 219.919C517.391 219.332 517.472 217.365 517.48 209.548C517.489 200.879 517.442 199.884 517.016 199.72C516.755 199.62 516.332 199.671 516.074 199.833C515.664 200.091 515.589 201.308 515.462 209.711L515.317 219.294L514.622 220.033C514.24 220.439 513.487 220.917 512.948 221.095C512.13 221.365 511.793 221.327 510.89 220.866C508.78 219.788 508.763 219.675 508.873 207.746C508.956 198.749 509.045 196.95 509.462 195.717C510.253 193.379 510.317 193.343 511.549 194.539C513.954 196.875 516.985 197.047 519.19 194.973C520.047 194.168 520.954 192.207 520.962 191.143C520.97 190.187 520.273 188.42 519.592 187.667ZM541.199 189.124C540.195 188.127 539.113 187.152 538.794 186.957C538.331 186.673 540.379 186.615 548.954 186.667L559.694 186.732L561.852 187.806C563.039 188.396 564.485 189.274 565.065 189.757C566.498 190.949 568.042 193.347 568.77 195.506C569.337 197.188 569.372 197.928 569.372 208.054C569.372 217.584 569.317 218.909 568.888 219.634C567.812 221.457 565.421 221.721 563.887 220.187L562.995 219.295V209.953C562.995 200.082 562.912 199.436 561.672 199.675C561.133 199.779 561.109 200.155 561.035 209.416C560.971 217.486 561.03 219.22 561.398 220.099C561.639 220.677 561.836 221.198 561.836 221.259C561.836 221.319 557.988 221.368 553.286 221.368C548.572 221.368 544.735 221.254 544.735 221.114C544.735 220.974 544.931 220.391 545.17 219.819C545.529 218.961 545.605 216.983 545.605 208.519C545.605 202.796 545.475 197.57 545.311 196.699C544.811 194.05 543.233 191.141 541.199 189.124Z" fill="white"/>
<path fill-rule="evenodd" clip-rule="evenodd" d="M55.096 327.893C57.1237 328.79 59.061 330.817 59.8146 332.831C61.0488 336.129 60.3195 340.216 58.0765 342.574L56.9539 343.754L56.8713 362.485C56.7893 381.168 56.7872 381.219 56.1496 382.411C55.4264 383.763 54.0471 385.029 52.668 385.607C51.9173 385.922 47.9735 385.998 32.4401 385.998C14.0076 385.998 13.0967 385.973 12.0695 385.444C11.4782 385.139 10.5768 384.454 10.067 383.922C8.15346 381.926 8.2404 383.177 8.24359 357.675L8.24649 334.551L8.93688 333.068C9.6838 331.464 11.071 330.221 12.8051 329.603C13.6604 329.297 17.2176 329.212 29.4773 329.202L45.062 329.189L46.2217 328.457C48.8792 326.779 52.1133 326.574 55.096 327.893ZM44.334 334.079C44.9293 332.332 46.2701 330.77 47.9048 329.918C50.4867 328.574 54.1781 329.091 56.1389 331.073C57.8365 332.789 58.2385 333.79 58.2341 336.29C58.2298 338.851 57.8721 339.8 56.3293 341.343C52.575 345.097 46.3182 343.77 44.469 338.827C43.7757 336.975 43.7427 335.814 44.334 334.079ZM10.9168 333.826C11.3982 332.87 11.9191 332.348 12.8671 331.87C14.1569 331.22 14.1975 331.218 28.7197 331.218H43.2789L42.6572 332.595C41.686 334.746 41.7567 338.099 42.8187 340.262C44.5279 343.742 48.5903 346.066 52.1078 345.576C52.9289 345.462 53.8616 345.347 54.1804 345.321C54.7543 345.276 54.7601 345.453 54.7601 362.977V380.679L53.9439 381.912C52.5269 384.052 53.4028 383.969 32.3496 383.969H13.5436L12.5854 383.317C12.0585 382.958 11.3544 382.296 11.0208 381.846C10.4191 381.035 10.4139 380.85 10.3371 358.079L10.2594 335.129L10.9168 333.826Z" fill="white"/>
<path fill-rule="evenodd" clip-rule="evenodd" d="M36.1854 342.537C39.2699 343.691 41.6886 346.627 42.4642 350.157C43.3584 354.228 40.9614 359.04 37.0984 360.93C31.9099 363.469 25.7766 361.352 23.3553 356.187C22.7034 354.796 22.5878 354.157 22.5878 351.942C22.5878 349.726 22.7034 349.087 23.3553 347.696C24.3515 345.571 26.1044 343.844 28.3356 342.788C30.6178 341.709 33.7067 341.61 36.1854 342.537ZM25.2506 348.448C26.1131 346.824 27.5406 345.474 29.2541 344.663C31.0839 343.796 33.9139 343.729 35.6306 344.512C40.0287 346.517 41.8845 351.935 39.5107 355.839L38.9215 356.808L38.4038 355.956C38.1189 355.488 37.4711 354.756 36.9639 354.329C36.0831 353.588 36.0602 353.517 36.4581 352.747C36.8975 351.897 37.0195 351.121 36.9671 349.512C36.9424 348.765 36.6346 348.232 35.6689 347.266C34.4605 346.057 34.3249 346 32.698 346.001C30.592 346.002 29.3657 346.679 28.5411 348.296C27.8069 349.735 27.7893 351.069 28.4866 352.437L29.0234 353.49L28.1832 354.111C27.7212 354.453 27.1293 355.18 26.8682 355.728C26.607 356.276 26.2896 356.724 26.163 356.724C26.0363 356.724 25.639 356.17 25.2798 355.492C24.3637 353.764 24.3486 350.146 25.2506 348.448ZM30.8259 352.109C29.7613 351.044 29.7121 349.85 30.6894 348.796C31.6279 347.783 33.3661 347.727 34.2498 348.681C36.4952 351.104 33.1603 354.443 30.8259 352.109ZM28.2397 358.032C28.2397 357.006 29.0489 355.858 30.1097 355.377C30.6616 355.127 31.7294 355.009 32.9536 355.063C34.6828 355.139 35.0156 355.251 35.7729 356.009C36.2454 356.482 36.7158 357.29 36.8187 357.806C36.9975 358.703 36.9474 358.768 35.6419 359.327C32.8296 360.533 28.2397 359.73 28.2397 358.032Z" fill="white"/>
<path d="M55.0294 334.282C55.2798 334.533 55.4847 334.873 55.4847 335.04C55.4847 335.639 51.0464 339.913 50.4238 339.913C49.4937 339.913 47.0048 337.261 47.1269 336.4C47.2724 335.371 48.2439 335.382 49.2421 336.423C49.7064 336.908 50.2044 337.305 50.3487 337.305C50.4931 337.305 51.4008 336.522 52.3663 335.565C53.3318 334.609 54.2233 333.826 54.3477 333.826C54.472 333.826 54.7786 334.031 55.0294 334.282Z" fill="white"/>
<path d="M42.4265 365.835C42.6839 366.145 42.6897 366.405 42.4497 366.854C42.132 367.447 41.9886 367.455 32.534 367.379C24.0735 367.312 22.9057 367.248 22.6455 366.835C22.4834 366.578 22.4324 366.154 22.5324 365.893C22.6959 365.467 23.7002 365.419 32.3977 365.419C40.4599 365.419 42.139 365.489 42.4265 365.835Z" fill="white"/>
<path d="M42.4622 371.385C42.7384 371.718 42.7595 371.977 42.5384 372.327C42.2665 372.758 41.2469 372.819 32.9905 372.891C27.9067 372.936 23.4535 372.9 23.095 372.813C22.3756 372.638 22.1603 371.378 22.8052 371.118C23.0046 371.038 27.4229 370.961 32.6244 370.949C40.9173 370.929 42.128 370.983 42.4622 371.385Z" fill="white"/>
<path d="M42.3141 376.851C42.7645 377.185 42.8126 377.373 42.5552 377.793C42.2552 378.282 41.5755 378.317 32.4148 378.317C23.1939 378.317 22.5895 378.285 22.4953 377.796C22.2406 376.472 22.5249 376.433 32.4224 376.433C40.093 376.433 41.8515 376.507 42.3141 376.851Z" fill="white"/>
<path fill-rule="evenodd" clip-rule="evenodd" d="M210.548 341.965C211.214 342.407 211.863 343.487 216.407 351.694L218.516 355.505L223.88 355.619C229.687 355.742 230.22 355.869 231.765 357.495C232.846 358.633 233.447 360.211 233.447 361.912C233.447 363.09 233.551 363.384 234.019 363.533C234.986 363.839 235.814 365.302 235.814 366.703C235.814 368.812 234.335 370.346 232.302 370.346C231.489 370.346 231.418 370.267 231.418 369.357C231.418 368.807 230.998 367.557 230.472 366.54C227.629 361.049 220.574 360.123 216.397 364.694C215.08 366.135 214.027 368.403 214.027 369.8C214.027 370.32 213.69 370.346 206.926 370.346H199.825L199.813 369.549C199.78 367.538 198.128 364.715 196.21 363.395C194.935 362.518 192.39 361.651 191.091 361.651H190.289L190.835 360.432C191.364 359.249 191.417 359.216 192.632 359.288C193.512 359.34 194.313 359.143 195.333 358.624C197.077 357.735 197.023 357.741 196.629 358.477C196.454 358.804 196.352 359.423 196.402 359.854C196.476 360.5 196.654 360.652 197.424 360.727C198.229 360.805 198.383 360.709 198.553 360.031C198.685 359.508 198.575 358.92 198.227 358.272C197.939 357.738 197.757 357.263 197.822 357.218C197.888 357.172 198.419 356.784 199.002 356.355L200.063 355.575L207.309 355.497L214.554 355.42L212.845 352.376C211.906 350.702 210.587 348.319 209.915 347.081L208.692 344.828L203.317 344.907L197.941 344.985L197.854 346.65L197.768 348.314L196.973 347.727C196.536 347.404 195.793 347.112 195.321 347.077C194.578 347.023 194.444 346.879 194.318 346L194.173 344.985L191.785 344.901L189.397 344.817L190.423 343.916C190.988 343.421 191.645 342.636 191.885 342.173L192.32 341.331L201.09 341.419C208.496 341.494 209.966 341.579 210.548 341.965ZM200.476 362.688C200.262 362.474 200.234 362.499 202.289 361.106C203.245 360.458 204.101 359.924 204.191 359.92C204.281 359.916 205.044 360.245 205.886 360.651L207.418 361.39L209.363 360.647C211.158 359.961 211.395 359.934 212.45 360.3C213.241 360.573 213.593 360.865 213.593 361.246C213.593 361.69 213.314 361.829 212.143 361.967C211.346 362.061 209.942 362.495 209.021 362.933L207.349 363.728L205.718 362.808L204.088 361.888L202.365 362.372C201.418 362.637 200.568 362.78 200.476 362.688Z" fill="white"/>
<path fill-rule="evenodd" clip-rule="evenodd" d="M193.304 365.389C195.497 366.404 196.637 368.15 196.637 370.491C196.637 373.05 195.159 375.013 192.693 375.73C191.283 376.14 190.981 376.141 189.6 375.74C184.498 374.256 184.285 367.047 189.291 365.262C190.814 364.719 191.933 364.754 193.304 365.389ZM189.49 371.973C188.407 370.714 188.669 369.207 190.116 368.378C190.434 368.195 190.865 368.041 191.072 368.036C191.696 368.022 193.076 368.844 193.269 369.345C194.239 371.873 191.214 373.976 189.49 371.973Z" fill="white"/>
<path fill-rule="evenodd" clip-rule="evenodd" d="M225.202 365.559C227.567 366.746 228.637 369.099 228.104 371.94C227.802 373.547 226.147 375.189 224.281 375.731C222.876 376.14 222.572 376.141 221.193 375.74C216.106 374.261 215.893 367.042 220.884 365.262C222.52 364.679 223.595 364.753 225.202 365.559ZM220.868 371.749C220.177 370.763 220.303 369.824 221.251 368.875C222.206 367.92 222.683 367.842 223.861 368.452C224.753 368.913 225.041 369.421 225.041 370.534C225.041 371.61 224.576 372.278 223.588 372.623C222.514 372.998 221.518 372.678 220.868 371.749Z" fill="white"/>
<path d="M182.11 343.555C186.107 346.217 186.387 347.036 184.373 350.166L183.123 352.109L182.166 349.562C181.051 346.593 180.56 345.888 180.797 347.594C180.886 348.232 181.11 349.903 181.294 351.307L181.63 353.862L184.297 355.186L186.963 356.51L188.462 355.53C189.417 354.905 189.966 354.34 189.976 353.97C189.984 353.652 190.161 353.084 190.369 352.71C190.737 352.046 190.782 352.085 192.216 354.304C193.812 356.773 193.803 357.308 192.174 356.808C190.774 356.379 189.024 357.401 188.811 358.772C188.724 359.339 188.356 359.939 187.878 360.295L187.091 360.881L183.02 358.89C180.782 357.795 178.703 356.631 178.4 356.304C177.977 355.848 177.737 354.767 177.364 351.652C177.097 349.42 176.836 347.552 176.784 347.5C176.593 347.306 176.39 348.564 176.033 352.164C175.614 356.387 175.849 357.384 177.49 358.354C177.978 358.642 178.377 359.07 178.377 359.306C178.377 359.541 179.055 360.766 179.883 362.027C180.955 363.66 181.378 364.583 181.353 365.232C181.333 365.734 180.922 368.752 180.44 371.94C179.63 377.285 179.503 377.788 178.808 378.389C177.817 379.247 176.785 379.215 175.866 378.296C174.994 377.424 174.999 377.237 176.069 370.052L176.739 365.554L175.094 363.098C174.19 361.747 173.45 360.779 173.45 360.947C173.45 361.115 173.84 362.407 174.317 363.818L175.184 366.384L174.436 369.742C172.755 377.281 172.626 377.712 171.848 378.389C171.436 378.748 170.774 379.042 170.377 379.042C169.461 379.042 168.233 377.831 168.233 376.929C168.233 376.549 168.732 374.074 169.342 371.429L170.452 366.619L168.908 362.195C167.278 357.528 167.095 356.344 167.793 354.994C168.752 353.139 176.086 342.245 176.561 341.968C177.85 341.217 179.162 341.592 182.11 343.555Z" fill="white"/>
<path d="M196.851 351.507C197.529 352.543 198.084 353.549 198.085 353.743C198.086 354.157 196.059 355.6 195.747 355.407C195.25 355.1 192.779 350.522 193.059 350.429C193.228 350.373 193.613 350.137 193.915 349.905C194.882 349.162 195.557 349.53 196.851 351.507Z" fill="white"/>
<path d="M185.762 362.811C186.453 362.811 186.292 363.158 185.043 364.37C184.07 365.314 183.884 365.402 183.884 364.918C183.884 364.601 183.526 363.632 183.087 362.766L182.29 361.19L183.806 362C184.64 362.446 185.52 362.811 185.762 362.811Z" fill="white"/>
<path d="M188.053 334.808C190.129 335.676 191.142 338.689 190.059 340.777C189.282 342.274 187.868 343.102 186.087 343.1C184.163 343.099 182.864 342.311 182.135 340.704C181.405 339.098 181.425 338.241 182.225 336.729C183.329 334.641 185.746 333.844 188.053 334.808Z" fill="white"/>
<path fill-rule="evenodd" clip-rule="evenodd" d="M379.667 339.092C380.107 339.438 380.643 340.145 380.86 340.664C381.226 341.539 381.049 342.529 378.397 354.472C376.826 361.548 375.335 367.734 375.085 368.219C374.463 369.421 372.846 370.79 371.538 371.222C369.935 371.751 367.263 371.425 365.92 370.537C364.478 369.582 363.868 368.548 362.474 364.694C361.84 362.941 360.323 358.767 359.103 355.42C356.676 348.758 356.595 348.124 358.009 346.818C358.446 346.415 360.564 345.354 362.716 344.46C364.868 343.565 368.976 341.859 371.846 340.668C374.715 339.477 377.469 338.494 377.966 338.484C378.478 338.472 379.214 338.735 379.667 339.092ZM378.22 343.273C376.76 343.639 375.72 341.732 376.793 340.658C377.966 339.486 379.974 340.873 379.288 342.38C379.111 342.768 378.631 343.17 378.22 343.273ZM365.904 344.972C367.737 344.219 370.28 343.17 371.556 342.64C372.831 342.111 374.023 341.672 374.205 341.665C374.387 341.658 374.625 342.011 374.733 342.449C375.068 343.804 376.29 344.84 377.552 344.84C378.164 344.84 378.657 344.983 378.657 345.16C378.657 345.336 377.952 348.695 377.09 352.623C376.228 356.553 375.435 360.191 375.328 360.709C375.221 361.227 375.099 361.651 375.058 361.651C375.017 361.651 374.455 361.149 373.809 360.534C372.683 359.463 370.91 358.753 369.36 358.753C367.82 358.753 366.296 359.497 364.869 360.947L363.399 362.441L361.68 357.656C360.735 355.025 359.926 352.782 359.882 352.672C359.837 352.563 360.302 352.323 360.913 352.139C362.561 351.646 363.44 350.571 363.44 349.05C363.44 348.226 363.252 347.591 362.886 347.188C362.582 346.851 362.386 346.523 362.452 346.458C362.517 346.393 364.071 345.724 365.904 344.972ZM360.302 350.637C358.913 350.637 358.202 349.013 359.138 347.979C360.035 346.987 361.846 347.665 361.846 348.993C361.846 349.768 361.03 350.637 360.302 350.637ZM365.284 367.211C364.156 364.898 365.103 362.113 367.405 360.979C370.476 359.466 374.056 361.666 374.108 365.098C374.149 367.843 372.222 369.767 369.429 369.767C367.426 369.767 366.147 368.978 365.284 367.211Z" fill="white"/>
<path fill-rule="evenodd" clip-rule="evenodd" d="M371.39 363.574C372.263 364.684 372.163 365.871 371.108 366.926C370.344 367.69 370.079 367.786 369.151 367.638C367.817 367.424 367.063 366.54 367.063 365.188C367.063 363.689 367.984 362.811 369.556 362.811C370.543 362.811 370.909 362.963 371.39 363.574ZM368.877 365.618C368.498 365.239 368.483 365.079 368.79 364.709C369.217 364.194 369.186 364.203 369.793 364.436C370.386 364.663 370.387 365.675 369.794 365.903C369.543 365.999 369.13 365.871 368.877 365.618Z" fill="white"/>
<path fill-rule="evenodd" clip-rule="evenodd" d="M202.954 484.897C204.987 485.898 206.677 487.608 207.625 489.626L208.234 490.92H214.043C220.367 490.92 221.147 491.079 221.797 492.506C222.391 493.809 222.222 494.944 221.296 495.87L220.449 496.717L214.412 496.721L208.376 496.724L207.53 498.486C206.996 499.598 206.175 500.685 205.304 501.435L203.924 502.624L205.715 503.336C211.034 505.45 215.203 510.252 216.828 516.136C217.278 517.767 217.349 519.285 217.354 527.44C217.36 536.426 217.333 536.906 216.765 537.873C215.684 539.714 214.605 540.193 211.539 540.193H208.846L208.756 534.903C208.67 529.891 208.625 529.528 207.902 527.985C206.868 525.78 205.41 524.242 203.236 523.063C201.514 522.129 201.268 522.078 198.521 522.078C195.77 522.078 195.53 522.128 193.789 523.072C191.663 524.224 190.21 525.771 189.14 528.02C188.423 529.525 188.375 529.907 188.279 534.903L188.176 540.193H185.494C182.979 540.193 182.737 540.139 181.623 539.332C180.819 538.75 180.329 538.116 180.108 537.375C179.884 536.624 179.814 533.138 179.885 526.281C179.988 516.332 179.992 516.271 180.74 514.327C182.632 509.408 186.225 505.491 190.632 503.544C191.464 503.176 192.386 502.793 192.681 502.692C193.137 502.537 193 502.315 191.754 501.194C190.922 500.447 189.956 499.195 189.517 498.297L188.743 496.717H183.116C177.132 496.717 175.842 496.487 175.212 495.311C174.668 494.295 174.841 492.759 175.598 491.878L176.297 491.065L182.484 490.977L188.672 490.889L189.212 489.583C190.249 487.077 193.447 484.537 196.336 483.925C198.235 483.523 200.983 483.927 202.954 484.897ZM192.675 493.469C192.869 491.133 193.909 489.694 196.202 488.592C198.289 487.589 200.715 488.103 202.547 489.937C205.007 492.399 204.639 496.671 201.796 498.641C200.731 499.379 200.352 499.47 198.355 499.47C196.288 499.47 196.023 499.4 194.997 498.584C193.295 497.23 192.506 495.493 192.675 493.469Z" fill="white"/>
<path d="M201.238 527.164C202.438 527.839 203.474 529.203 203.891 530.656C204.046 531.197 204.173 534.445 204.173 537.874C204.173 541.304 204.046 544.552 203.891 545.093C202.684 549.302 197.812 550.734 194.593 547.826C192.835 546.237 192.579 544.974 192.579 537.874C192.579 530.999 192.844 529.589 194.419 528.062C196.312 526.227 198.952 525.879 201.238 527.164Z" fill="white"/>
<path fill-rule="evenodd" clip-rule="evenodd" d="M48.6734 490.89C50.8467 491.896 51.5585 493.12 54.2549 500.485L54.8384 502.079L58.2773 502.224C60.963 502.337 61.8878 502.485 62.4991 502.9C63.3901 503.505 64.4729 505.539 64.4634 506.59C64.4535 507.678 63.4417 509.66 62.6226 510.197L61.8861 510.68L62.8681 512.107C64.3214 514.22 64.5347 515.687 64.4228 522.802C64.3263 528.95 64.3138 529.056 63.5124 530.688C62.3655 533.024 60.4131 534.48 57.8034 534.947L56.789 535.129L56.6325 538.168C56.4545 541.628 56.3606 541.922 55.2134 542.599C54.0833 543.267 49.1856 543.296 47.9219 542.643C46.7506 542.037 46.4996 541.218 46.4996 538V535.266H32.5873H18.6749V538.293C18.6749 541.075 18.6184 541.386 17.9756 542.133C17.2808 542.941 17.2513 542.946 13.7793 542.946C10.3461 542.946 10.2681 542.932 9.47918 542.144C8.72444 541.39 8.66676 541.152 8.53053 538.235L8.38561 535.129L7.37117 534.947C4.77043 534.482 2.9056 533.092 1.70538 530.723L0.849757 529.034L0.751787 522.802C0.639619 515.672 0.849754 514.241 2.30968 512.188L3.3076 510.784L2.47461 510.132C1.61059 509.456 0.704837 507.603 0.704837 506.512C0.704837 505.522 1.81725 503.482 2.67547 502.9C3.28819 502.484 4.21191 502.337 6.92569 502.224L10.3933 502.079L12.0825 497.59C13.8865 492.796 14.5468 491.795 16.5011 490.89C17.5823 490.389 18.6689 490.353 32.5873 490.353C46.5057 490.353 47.5923 490.389 48.6734 490.89ZM13.3251 500.944C16.009 493.89 16.1635 493.586 17.317 493.079C18.075 492.746 20.867 492.685 32.9287 492.739C47.3309 492.803 47.6329 492.816 48.4352 493.411C49.0966 493.902 49.7618 495.344 51.9113 500.947C53.3732 504.758 54.5795 508.104 54.5923 508.383C54.6126 508.834 54.2934 508.89 51.7304 508.89H48.8456L48.2384 507.513C47.9045 506.756 47.1199 505.614 46.4953 504.976L45.3591 503.815L45.7655 502.636C46.9503 499.197 43.3056 495.788 40.1811 497.414C38.1711 498.46 37.2291 501.005 38.0861 503.074C38.4221 503.885 38.3829 503.982 37.3502 504.888C36.7506 505.415 35.9567 506.531 35.5866 507.368L34.9133 508.89H32.6044H30.2958L29.6886 507.513C29.3547 506.756 28.5536 505.597 27.9081 504.938C26.9009 503.909 26.7798 503.655 27.0525 503.146C27.2273 502.819 27.3702 501.901 27.3702 501.106C27.3702 499.5 26.5546 498.219 25.0314 497.431C21.6458 495.68 18.1187 499.385 19.5868 503.15C19.8627 503.858 19.7894 504.02 18.8004 504.888C18.2008 505.415 17.4069 506.531 17.0368 507.368L16.3635 508.89H13.4616C10.3502 508.89 10.2293 508.821 10.844 507.382C11.0006 507.016 12.117 504.119 13.3251 500.944ZM22.5153 502.795C21.4705 502.213 21.2809 500.777 22.1359 499.922C22.8524 499.206 23.535 499.166 24.4231 499.788C25.3882 500.464 25.2091 502.182 24.1095 502.795C23.3938 503.193 23.231 503.193 22.5153 502.795ZM41.0651 502.795C40.0203 502.213 39.8307 500.777 40.6857 499.922C41.4022 499.206 42.0848 499.166 42.9729 499.788C43.938 500.464 43.7589 502.182 42.6593 502.795C41.9436 503.193 41.7807 503.193 41.0651 502.795ZM3.81744 508.074C3.07139 507.328 3.0366 505.909 3.74468 505.126C4.19799 504.625 4.63537 504.543 6.83642 504.543C8.2465 504.543 9.40005 504.588 9.40005 504.643C9.40005 504.699 9.02847 505.645 8.57458 506.745L7.74913 508.745L6.08341 508.71C4.81681 508.683 4.27423 508.53 3.81744 508.074ZM59.2199 508.796C57.3753 508.986 57.4887 509.083 56.4951 506.444L55.7795 504.543H58.3645C60.812 504.543 60.9815 504.583 61.5502 505.306C62.322 506.287 62.309 506.936 61.4989 507.874C60.9893 508.464 60.4908 508.666 59.2199 508.796ZM19.1419 508.652C18.859 508.195 20.1094 506.593 21.1989 506.018C22.6165 505.27 23.917 505.265 25.3642 506.003C26.4974 506.582 27.7754 508.179 27.4829 508.652C27.402 508.783 25.5253 508.89 23.3124 508.89C21.0995 508.89 19.2228 508.783 19.1419 508.652ZM37.6963 508.66C37.4271 508.224 38.7473 506.548 39.7965 505.993C41.1674 505.269 42.4804 505.272 43.914 506.003C45.0472 506.582 46.3251 508.179 46.0327 508.652C45.8437 508.958 37.8853 508.965 37.6963 508.66ZM3.33688 515.562C3.73019 513.855 4.8481 512.433 6.3231 511.763C7.45869 511.248 8.7198 511.222 32.5873 511.222C56.4548 511.222 57.7159 511.248 58.8515 511.763C60.2532 512.4 61.3882 513.79 61.831 515.412C62.2435 516.921 62.2435 526.945 61.831 528.454C61.4032 530.021 60.3233 531.383 58.9576 532.08C57.8538 532.643 57.2156 532.657 32.5873 532.657C7.95897 532.657 7.32074 532.643 6.21703 532.08C4.77652 531.345 3.71802 529.957 3.33688 528.304C3.17225 527.589 3.03777 524.723 3.03777 521.933C3.03777 519.143 3.17225 516.276 3.33688 515.562ZM10.9942 540.628L10.9107 537.947L10.8275 535.266H13.6027H16.378L16.2948 537.947L16.2113 540.628H13.6027H10.9942ZM48.9633 540.628L48.8798 537.947L48.7966 535.266H51.5718H54.3471L54.2639 537.947L54.1804 540.628H51.5718H48.9633Z" fill="white"/>
<path d="M42.6816 494.631C42.8714 495.97 42.3775 496.137 38.2244 496.137C35.1048 496.137 34.2808 496.05 33.9121 495.682C33.3652 495.135 33.3325 494.638 33.8119 494.159C34.0675 493.903 35.348 493.826 38.3769 493.884C42.5248 493.962 42.5882 493.973 42.6816 494.631Z" fill="white"/>
<path d="M46.6767 494.568C46.913 495.51 46.2347 496.276 45.3994 496.011C44.1432 495.612 44.4542 493.818 45.7797 493.818C46.3002 493.818 46.5385 494.017 46.6767 494.568Z" fill="white"/>
<path d="M43.7256 518.91C43.976 519.161 44.1809 519.526 44.1809 519.722C44.1809 520.723 43.6273 520.774 32.5395 520.774C22.0145 520.774 21.5823 520.752 21.2936 520.213C20.9056 519.488 20.9102 519.449 21.449 518.91C21.8467 518.513 23.2623 518.455 32.5873 518.455C41.9123 518.455 43.3279 518.513 43.7256 518.91Z" fill="white"/>
<path d="M41.1045 523.744C41.3379 524.114 41.3379 524.389 41.1045 524.759C40.8147 525.219 40.0365 525.273 32.736 525.343C24.4555 525.423 23.8921 525.355 23.8921 524.274C23.8921 523.132 24.2996 523.081 32.6908 523.161C40.0345 523.23 40.8144 523.284 41.1045 523.744Z" fill="white"/>
<path fill-rule="evenodd" clip-rule="evenodd" d="M54.5285 517.846C56.5104 519.281 57.142 521.823 56.0919 524.135C54.6276 527.359 50.3861 528.005 47.89 525.383C46.3199 523.734 46.053 521.008 47.2787 519.137C48.7647 516.869 52.3086 516.238 54.5285 517.846ZM50.3803 524.359C48.7239 523.578 48.3491 521.665 49.5688 520.216C50.1934 519.474 50.5287 519.324 51.5718 519.324C52.615 519.324 52.9503 519.474 53.5749 520.216C54.5233 521.343 54.5331 522.511 53.6039 523.616C52.724 524.661 51.5808 524.925 50.3803 524.359Z" fill="white"/>
<path fill-rule="evenodd" clip-rule="evenodd" d="M16.0658 517.44C16.5278 517.679 17.2713 518.354 17.7179 518.939C18.4196 519.859 18.53 520.266 18.53 521.933C18.53 523.6 18.4196 524.007 17.7179 524.927C16.6782 526.29 15.3902 526.955 13.7477 526.975C12.0028 526.998 10.387 526.156 9.44672 524.735C7.86506 522.345 8.73892 518.701 11.1823 517.497C12.3999 516.898 14.9586 516.867 16.0658 517.44ZM12.7665 524.429C10.7188 523.573 10.2716 521.208 11.9135 519.917C13.0912 518.99 14.683 519.12 15.6058 520.216C16.844 521.688 16.4493 523.577 14.7328 524.391C13.881 524.795 13.6532 524.8 12.7665 524.429Z" fill="white"/>
<path fill-rule="evenodd" clip-rule="evenodd" d="M342.22 500.233C344.394 502.434 346.09 503.527 348.471 504.263C350.224 504.805 351.25 504.832 369.672 504.832C388.094 504.832 389.119 504.805 390.872 504.263C393.252 503.528 395.028 502.384 397.17 500.209C398.119 499.245 399.094 498.456 399.337 498.456C400.573 498.456 401.187 499.036 402.093 501.063C403.781 504.838 403.994 506.266 403.994 513.817C403.993 520.498 403.978 520.673 403.197 522.916C402.224 525.71 401.328 527.274 399.6 529.196C397.38 531.665 394.202 533.557 390.82 534.425C388.51 535.017 350.871 535.022 348.513 534.431C343.7 533.223 339.433 529.816 337.206 525.403C335.658 522.337 335.471 520.969 335.471 512.734C335.471 506.133 335.537 505.02 336.015 503.632C337.166 500.285 338.536 498.456 339.891 498.456C340.21 498.456 341.245 499.245 342.22 500.233ZM343.028 518.585C341.171 516.593 341.258 514.097 343.226 512.877C343.849 512.49 344.727 512.382 347.293 512.376C351.053 512.367 352.266 512.786 353.619 514.56C354.723 516.008 354.918 518.317 354.016 519.271C353.396 519.928 353.275 519.941 348.752 519.851L344.123 519.759L343.028 518.585ZM385.292 515.327C385.907 514.124 386.509 513.526 387.787 512.851C388.431 512.511 389.522 512.389 391.989 512.381C395.891 512.368 396.911 512.768 397.494 514.535C397.885 515.72 397.713 516.727 396.89 518.062C395.932 519.616 394.889 519.904 390.225 519.904C386.373 519.904 386.038 519.86 385.414 519.274C384.571 518.482 384.52 516.84 385.292 515.327ZM359.711 520.463C358.759 519.714 358.679 518.273 359.539 517.35C360.124 516.722 360.228 516.716 369.683 516.716C378.85 516.716 379.26 516.739 379.816 517.295C380.679 518.159 380.589 519.71 379.632 520.463C378.896 521.042 378.537 521.063 369.672 521.063C360.807 521.063 360.448 521.042 359.711 520.463ZM362.807 526.81C361.947 526.002 361.929 524.654 362.766 523.763C363.387 523.102 363.489 523.092 369.631 523.092C375.634 523.092 375.891 523.116 376.537 523.723C377.397 524.53 377.415 525.878 376.578 526.769C375.957 527.43 375.855 527.44 369.712 527.44C363.71 527.44 363.453 527.416 362.807 526.81ZM352.158 527.923C351.238 527.003 351.172 525.651 352.005 524.817C352.489 524.334 352.9 524.24 354.222 524.31C355.59 524.383 355.936 524.518 356.42 525.168C356.79 525.666 356.934 526.181 356.824 526.618C356.494 527.932 355.921 528.379 354.38 528.527C353.08 528.652 352.816 528.58 352.158 527.923ZM383.272 527.752C382.238 526.718 382.198 525.901 383.136 524.963C383.704 524.396 384.144 524.252 385.31 524.252C387.106 524.252 387.932 524.93 387.932 526.404C387.932 528.547 384.934 529.414 383.272 527.752Z" fill="white"/>
<path fill-rule="evenodd" clip-rule="evenodd" d="M527.988 510.625C531.649 511.756 535.619 515.133 537.272 518.522C540.213 524.555 539.048 531.896 534.413 536.539C531.363 539.594 527.775 541.062 523.36 541.062C518.518 541.062 514.943 539.499 511.719 535.969C506.387 530.133 506.375 520.984 511.69 515.178C513.697 512.986 515.398 511.837 518.07 510.869C520.907 509.842 525.116 509.738 527.988 510.625ZM509.972 520.693C510.489 518.831 512.208 517.184 514.157 516.681C514.636 516.558 517.701 516.49 520.969 516.531C526.244 516.598 527.104 516.677 528.635 517.239C533.297 518.951 536.91 524.006 536.91 528.819C536.91 530.619 535.636 532.819 534.056 533.748L532.707 534.541L523.956 534.629C517.986 534.689 514.809 534.611 513.961 534.382C512.363 533.952 510.424 532.048 509.99 530.482C509.582 529.014 509.57 522.143 509.972 520.693Z" fill="white"/>
<path fill-rule="evenodd" clip-rule="evenodd" d="M527.983 519.579C533.292 521.654 536.428 529.107 533.048 531.615C532.26 532.2 531.909 532.222 523.455 532.222C513.896 532.222 513.501 532.162 512.683 530.58C512.385 530.003 512.273 528.637 512.273 525.556C512.273 520.335 512.486 519.793 514.882 518.918C515.121 518.831 517.795 518.799 520.824 518.846C525.706 518.923 526.518 519.006 527.983 519.579ZM515.462 525.556C515.462 524.393 515.606 524.049 516.447 523.208C517.288 522.367 517.632 522.223 518.795 522.223C519.958 522.223 520.301 522.367 521.142 523.208C521.984 524.049 522.128 524.393 522.128 525.556C522.128 526.719 521.984 527.063 521.142 527.904C520.301 528.745 519.958 528.889 518.795 528.889C517.632 528.889 517.288 528.745 516.447 527.904C515.606 527.063 515.462 526.719 515.462 525.556ZM524.447 525.556C524.447 524.393 524.591 524.049 525.432 523.208C526.273 522.367 526.617 522.223 527.78 522.223C528.943 522.223 529.286 522.367 530.128 523.208C530.969 524.049 531.113 524.393 531.113 525.556C531.113 526.719 530.969 527.063 530.128 527.904C529.286 528.745 528.943 528.889 527.78 528.889C526.617 528.889 526.273 528.745 525.432 527.904C524.591 527.063 524.447 526.719 524.447 525.556Z" fill="white"/>
<path d="M558.481 494.471C558.539 494.67 558.736 496.985 558.918 499.615C559.1 502.246 559.325 505.082 559.417 505.919L559.584 507.441H551.571C544.194 507.441 543.545 507.401 543.398 506.934C542.615 504.459 541.157 502.637 539.102 501.567C537.333 500.646 534.05 500.678 532.177 501.635C530.365 502.56 528.964 504.131 528.311 505.971C527.792 507.431 527.781 507.441 526.531 507.441H525.274L525.435 505.919C525.523 505.082 525.738 502.246 525.912 499.615C526.086 496.985 526.28 494.67 526.343 494.471C526.433 494.186 529.903 494.108 542.417 494.108C554.935 494.108 558.399 494.186 558.481 494.471Z" fill="white"/>
<path d="M561.232 490.183C562.428 490.801 562.9 492.143 563.125 495.557C563.235 497.231 563.49 500.753 563.691 503.383C563.892 506.013 564.028 508.206 563.992 508.255C563.957 508.304 563.49 508.23 562.955 508.092L561.981 507.841L561.76 505.25C561.639 503.825 561.366 500.517 561.154 497.901C560.782 493.301 560.743 493.121 559.982 492.466L559.195 491.79H542.378H525.561L524.759 492.592C524.025 493.326 523.939 493.643 523.76 496.288C523.652 497.879 523.417 501.028 523.238 503.286L522.913 507.392L521.911 507.58C521.36 507.683 520.876 507.727 520.836 507.677C520.796 507.627 520.862 506.477 520.984 505.122C521.105 503.767 521.357 500.506 521.543 497.876C521.966 491.906 522.171 491.062 523.375 490.328C524.268 489.784 524.965 489.763 542.359 489.762C557.601 489.761 560.543 489.826 561.232 490.183Z" fill="white"/>
<path d="M517.83 507.051C518.438 507.601 518.532 508.309 517.998 508.313C517.799 508.314 516.622 508.811 515.384 509.416C513.315 510.428 513.097 510.479 512.703 510.043C512.087 509.363 512.166 507.838 512.853 507.151C513.624 506.38 517.013 506.312 517.83 507.051Z" fill="white"/>
<path d="M571.926 507.162C572.845 508.019 572.783 509.542 571.796 510.318C570.7 511.181 568.077 511.165 567.144 510.289C566.338 509.531 566.239 507.89 566.953 507.102C567.675 506.304 571.049 506.345 571.926 507.162Z" fill="white"/>
<path d="M557.373 510.991C557.27 511.509 556.914 512.944 556.581 514.18C555.999 516.338 555.928 516.448 554.775 516.958C553.429 517.553 551.793 519.255 551.519 520.344L551.339 521.063H546.068H540.798L540.247 519.443C539.217 516.415 536.507 512.866 533.577 510.708L532.707 510.068L545.134 510.059L557.561 510.049L557.373 510.991Z" fill="white"/>
<path d="M552.261 523.943C552.426 524.251 552.561 525.229 552.561 526.117V527.73H551.402H550.242V525.556V523.382H551.102C551.655 523.382 552.068 523.582 552.261 523.943Z" fill="white"/>
<path d="M547.924 525.556V527.73H546.909H545.895V525.556V523.382H546.909H547.924V525.556Z" fill="white"/>
<path d="M543.576 525.556V527.73H542.417H541.257V525.556V523.382H542.417H543.576V525.556Z" fill="white"/>
<path d="M571.401 530.204C571.401 530.72 570.359 531.791 569.599 532.056C569.009 532.262 563.845 532.367 554.371 532.367C541.376 532.367 540.053 532.324 540.213 531.906C540.31 531.652 540.469 531.13 540.566 530.746L540.741 530.048H556.071C564.502 530.048 571.401 530.118 571.401 530.204Z" fill="white"/>
<path d="M566.991 537.802L566.908 540.917L565.966 541.008L565.024 541.099V538.907V536.715H563.865H562.706V538.889V541.062H561.722C560.476 541.062 560.387 540.818 560.387 537.416V534.686H563.73H567.073L566.991 537.802Z" fill="white"/>
<path fill-rule="evenodd" clip-rule="evenodd" d="M569.204 518.998C569.382 519.286 571.111 526.908 571.111 527.405C571.111 527.637 568.799 527.73 562.995 527.73H554.88V525.769C554.88 524.362 554.716 523.503 554.3 522.727C553.981 522.132 553.721 521.459 553.721 521.232C553.721 520.644 555.342 519.098 556.114 518.949C557.379 518.705 569.05 518.748 569.204 518.998ZM556.909 523.246C556.909 522.826 557.226 522.169 557.62 521.775C559.462 519.933 562.312 521.918 561.366 524.384C561.163 524.912 559.791 525.701 559.075 525.701C558.323 525.701 556.909 524.098 556.909 523.246ZM563.746 523.819C563.549 523.033 564.177 521.509 564.801 521.257C566.451 520.594 568.213 521.649 568.213 523.301C568.213 524.474 567.128 525.701 566.091 525.701C565.175 525.701 563.977 524.74 563.746 523.819Z" fill="white"/>
<path d="M563.285 510.793C565.123 511.645 567.144 513.485 567.947 515.038C568.252 515.629 568.502 516.183 568.502 516.269C568.502 516.356 566.228 516.426 563.449 516.426H558.395L558.931 514.47C559.226 513.393 559.614 511.959 559.794 511.281C560.076 510.214 560.224 510.05 560.905 510.052C561.338 510.054 562.408 510.387 563.285 510.793Z" fill="white"/>
<path fill-rule="evenodd" clip-rule="evenodd" d="M26.3421 16.6684L28.3571 20.2189L30.6897 20.2352C33.3725 20.254 34.8072 20.667 35.4176 21.5957C35.8193 22.207 35.8045 22.2478 35.1817 22.2478C34.8159 22.2478 34.2785 22.4638 33.9869 22.7275C32.9606 23.6562 33.5165 24.8564 34.973 24.8564C35.473 24.8564 35.8666 25.0459 35.9799 25.3416C36.0822 25.6082 36.4042 26.0647 36.6955 26.356C37.4389 27.0994 37.3798 28.4829 36.5804 29.0426C35.6573 29.6892 35.2918 29.604 35.0985 28.6968C34.6652 26.6638 32.5363 24.8691 30.5584 24.8691C28.6043 24.8691 26.4125 26.674 26.0273 28.6L25.8485 29.4938H22.2617C18.6892 29.4938 18.6749 29.4912 18.6749 28.8121C18.6749 27.1957 16.0699 24.872 14.2456 24.861C12.2431 24.8494 9.68989 26.9641 9.68989 28.6345C9.68989 29.3808 9.58411 29.4938 8.88501 29.4938C7.61377 29.4938 6.79149 28.7501 6.79149 27.6C6.79149 26.8626 6.97699 26.4873 7.51609 26.134C8.18301 25.6969 8.24127 25.4833 8.24764 23.4463C8.25141 22.2293 8.38155 20.7117 8.5369 20.074C8.69254 19.4364 9.07833 17.7567 9.39483 16.3414C9.71134 14.9264 10.1206 13.5871 10.3046 13.3657C10.5762 13.0381 11.9228 12.9773 17.4828 13.0402L24.3268 13.1178L26.3421 16.6684ZM10.8779 17.6976C11.1811 16.3107 11.4289 15.0717 11.4289 14.9441C11.4289 14.8163 12.4071 14.712 13.6027 14.712H15.7765V17.4655V20.2189H13.0518H10.327L10.8779 17.6976ZM17.5156 20.2189V17.4655V14.712H20.378H23.2402L24.7257 17.2855C25.5424 18.7008 26.2108 19.9398 26.2108 20.039C26.2108 20.1378 24.2544 20.2189 21.8632 20.2189H17.5156ZM18.3851 22.8704C18.3851 22.5811 18.4721 22.2574 18.5784 22.1513C18.8715 21.8583 21.3687 21.9287 21.8632 22.2441C22.5426 22.6771 21.8354 23.5347 20.707 23.646C19.3027 23.7843 18.3851 23.4776 18.3851 22.8704Z" fill="white"/>
<path fill-rule="evenodd" clip-rule="evenodd" d="M35.848 6.84948L41.8622 12.8228V21.7421C41.8622 26.6476 41.7425 30.8877 41.5964 31.1645C39.6391 34.8687 39.4458 36.0975 40.5544 37.7896C41.4457 39.1499 42.7903 39.4725 45.8918 39.0702C47.3906 38.8757 48.7833 38.6528 48.9865 38.5748C49.2392 38.4777 49.3059 38.6235 49.1981 39.0357C49.0421 39.6322 48.9323 39.6383 38.3577 39.6383H27.6748L27.1896 38.6963C26.3059 36.9801 25.3607 35.9729 23.8756 35.1646C20.1697 33.1476 15.1621 34.8611 13.5549 38.6963L13.1602 39.6383H10.131C6.49497 39.6383 6.50165 39.6446 6.50165 36.0897C6.50165 32.6699 6.6115 32.5615 10.198 32.4389L13.072 32.3409L12.2506 31.5193C11.6246 30.8935 11.4289 30.4242 11.4289 29.5483C11.4289 27.5641 13.0764 26.3963 15.1114 26.9377C17.0747 27.4603 17.617 30.0167 16.0887 31.545L15.2415 32.3922L22.3927 32.3859C29.2141 32.3798 29.5156 32.3563 28.9257 31.8787C27.4873 30.7135 27.2864 29.113 28.4104 27.7771C29.0538 27.0122 29.3564 26.8853 30.5338 26.8853C31.5839 26.8853 32.0496 27.0386 32.5154 27.5374C33.811 28.9255 33.5745 31.1236 32.0401 31.9575C31.3534 32.3308 31.6404 32.3702 35.1234 32.3806L38.9638 32.3922V23.1866V13.981L34.0365 9.06008L29.1092 4.13915V5.40201C29.1092 6.40138 29.297 6.87872 30.0095 7.68998C30.7703 8.55661 30.8836 8.87633 30.7427 9.75715C30.5303 11.0846 29.6408 11.8136 28.2333 11.8136C27.3592 11.8136 26.9768 11.6295 26.3815 10.9217C25.5833 9.97307 25.5305 9.8044 25.8071 9.08385C26.0853 8.35896 26.7354 8.54764 27.2252 9.49484C27.7128 10.4374 28.5298 10.6278 29.106 9.93335C29.5872 9.35367 29.2843 8.67749 28.3921 8.33838C27.6652 8.06187 27.66 8.03579 27.66 4.56553C27.66 1.20628 27.6852 1.06135 28.3121 0.828314C28.6707 0.694987 29.1599 0.651204 29.399 0.73091C29.6382 0.810906 32.54 3.56413 35.848 6.84948ZM13.7045 30.63C12.9448 30.2237 12.7648 29.6677 13.1558 28.9368C13.6282 28.0542 14.8325 28.1435 15.265 29.093C15.5699 29.7619 15.5316 29.9159 14.9421 30.3932C14.423 30.8138 14.1465 30.8665 13.7045 30.63ZM29.4492 29.8402C29.3973 29.4727 29.5109 28.9837 29.7022 28.7533C29.8932 28.5229 30.2787 28.3345 30.5584 28.3345C31.261 28.3345 31.781 29.0402 31.6676 29.8402C31.5894 30.3923 31.3969 30.5083 30.5584 30.5083C29.7199 30.5083 29.5274 30.3923 29.4492 29.8402Z" fill="white"/>
<path fill-rule="evenodd" clip-rule="evenodd" d="M22.9295 37.9346C24.2115 38.7223 25.1685 40.7834 24.9633 42.3141C24.6659 44.5302 22.6834 46.3046 20.5044 46.3046C16.0548 46.3046 14.0598 40.7571 17.5573 38.1085C19.1468 36.9048 21.1487 36.8401 22.9295 37.9346ZM20.4749 43.6406C18.2935 43.8586 17.5915 40.7538 19.6358 39.9301C19.9842 39.7898 20.3082 39.6667 20.356 39.6565C20.4036 39.6467 20.8122 39.8292 21.2638 40.0629C22.9944 40.9579 22.4464 43.4436 20.4749 43.6406Z" fill="white"/>
<path d="M66.7827 27.6829C67.3374 27.9614 68.0875 28.6327 68.4493 29.1744C69.091 30.1347 69.1072 30.3451 69.1072 37.6456V45.1319L68.3493 45.6284C67.6693 46.0739 67.5125 46.0811 66.8276 45.6968L66.0639 45.2687L65.9189 38.2021C65.8105 32.9119 65.683 31.1054 65.4117 31.0152C65.1251 30.9199 65.0486 34.0588 65.0451 46.0631C65.0404 62.411 65.0402 62.4151 63.5211 62.9493C62.8863 63.1724 62.5716 63.1098 61.9331 62.6333L61.1366 62.0389L60.9917 53.0886C60.8583 44.8618 60.8059 44.1305 60.3395 44.0409C59.8653 43.9496 59.8323 44.5221 59.8323 52.8179V61.6925L59.1207 62.4038C58.7295 62.7951 58.1367 63.1153 57.8034 63.1153C57.4701 63.1153 56.8774 62.7951 56.4861 62.4038L55.7745 61.6925V46.3176C55.7745 37.8615 55.6627 30.943 55.5259 30.943C55.3888 30.943 54.3129 32.0552 53.1347 33.4145C51.9562 34.7739 50.6893 35.9643 50.3189 36.0599C48.3201 36.5758 43.667 37.2068 43.1665 37.0294C41.8465 36.5622 41.7384 34.3936 43.0149 33.9884C43.3676 33.8765 43.4653 33.5989 43.3728 32.9685C43.2711 32.2766 43.3523 32.1024 43.7748 32.1024C44.0658 32.1024 44.5699 32.4325 44.8945 32.836C45.4768 33.5591 45.5098 33.5641 47.239 33.1983C48.9204 32.8424 49.0798 32.7282 51.0954 30.4358C52.2518 29.1208 53.2234 28.0426 53.2544 28.0403C53.2854 28.038 53.8326 27.8478 54.4703 27.6183C55.307 27.3169 57.0414 27.1972 60.7018 27.1882C64.9697 27.178 65.934 27.2563 66.7827 27.6829Z" fill="white"/>
<path d="M53.881 15.1241C55.2343 15.6896 56.8261 18.3782 56.2102 19.0584C55.9847 19.3077 55.6183 19.9439 55.3963 20.4725L54.9923 21.4334L53.8688 19.5132L52.7454 17.5927L49.5499 17.6738L46.3547 17.7553V22.2478V26.7404L48.7534 26.8247L51.1519 26.909L49.5041 28.9118C48.5978 30.0135 47.5836 30.9546 47.2506 31.003C46.9173 31.0517 46.2025 30.7972 45.662 30.4376C45.1217 30.0779 44.3719 29.7837 43.9954 29.7837H43.3114V22.9594V16.1348L44.023 15.4235C44.7107 14.7354 44.8687 14.712 48.8146 14.712C51.686 14.712 53.1868 14.834 53.881 15.1241Z" fill="white"/>
<path d="M62.9478 20.052C65.3555 22.6791 62.871 26.6479 59.4161 25.694C57.2721 25.1022 56.2945 22.5861 57.3875 20.4725C58.4045 18.5057 61.3285 18.2845 62.9478 20.052Z" fill="white"/>
<path d="M53.4465 41.8845L53.4376 45.58L52.7321 44.7783C51.7394 43.6505 51.3629 42.0683 51.7518 40.6593C52.0721 39.4997 52.8483 38.2146 53.2384 38.198C53.3581 38.1931 53.4518 39.8519 53.4465 41.8845Z" fill="white"/>
<path fill-rule="evenodd" clip-rule="evenodd" d="M207.255 2.18273C208.499 3.1908 208.52 3.43252 208.519 16.5043L208.518 29.0591L207.867 29.8709C207.473 30.3619 206.758 30.7885 206.057 30.9509C205.419 31.0984 199.419 31.219 192.724 31.219C186.029 31.219 180.029 31.0984 179.392 30.9509C178.69 30.7885 177.975 30.3619 177.581 29.8709L176.931 29.0591L176.929 16.5043C176.928 3.43252 176.949 3.1908 178.194 2.18273C178.76 1.72391 179.974 1.68188 192.724 1.68188C205.474 1.68188 206.688 1.72391 207.255 2.18273ZM181.554 10.2777C180.424 8.42621 181.116 6.01558 183.05 5.06316C183.896 4.64608 185.208 4.57971 192.729 4.5742C200.608 4.56811 201.521 4.61741 202.416 5.09709C204.97 6.46717 205.093 10.038 202.637 11.5353C201.77 12.0643 201.125 12.1014 192.782 12.1022C182.915 12.1034 182.639 12.0588 181.554 10.2777ZM179.365 28.8924C178.844 28.46 178.795 24.5541 179.305 24.0448C180.148 23.2014 180.923 23.8254 181.038 25.4407L181.131 26.7404L182.528 26.9009C184.121 27.0838 184.63 27.6093 184.056 28.4777C183.746 28.9463 183.293 29.0759 181.723 29.1454C180.536 29.1979 179.614 29.0991 179.365 28.8924Z" fill="white"/>
<path d="M196.918 45.0728C196.911 53.9123 196.82 56.9939 196.555 57.322C196.361 57.5629 195.453 58.3935 194.537 59.1677C192.965 60.496 192.835 60.5508 192.218 60.1454C191.103 59.4118 188.521 56.9907 188.521 56.6783C188.521 56.5151 188.978 55.7598 189.536 54.9998C190.738 53.3625 190.807 52.517 189.826 51.4588C189.427 51.0293 189.101 50.5997 189.101 50.5047C189.101 50.4093 189.427 49.8516 189.826 49.2653C190.747 47.9088 190.74 47.1538 189.793 46.0284L189.035 45.1281L189.793 43.9835C190.793 42.4723 190.749 41.8891 189.536 40.546L188.521 39.4232V36.3425V33.2618H192.724H196.927L196.918 45.0728Z" fill="white"/>
<path d="M219.187 23.3498C219.68 23.8425 223.199 36.0703 222.926 36.3428C222.861 36.4083 220.02 36.4265 216.614 36.3834L210.421 36.3051L213.818 32.8731C215.687 30.9854 217.216 29.2834 217.216 29.0907C217.216 28.589 216.602 28.0446 216.036 28.0446C215.771 28.0446 213.638 29.9358 211.299 32.2473L207.045 36.45H203.145H199.246V34.8773V33.3046L203.4 33.2107C207.466 33.1189 207.576 33.0992 208.648 32.2809C210.354 30.9784 210.825 29.6112 210.833 25.9433L210.839 22.8275H214.752C218.135 22.8275 218.736 22.8982 219.187 23.3498Z" fill="white"/>
<path fill-rule="evenodd" clip-rule="evenodd" d="M226.664 39.7542C228.411 41.5011 228.171 41.6671 223.901 41.6671C221.839 41.6671 219.811 41.7967 219.394 41.9552C218.86 42.1584 218.377 42.7964 217.759 44.1169C216.968 45.8084 216.92 46.0684 217.266 46.7912C217.906 48.1236 218.703 48.3245 223.375 48.3291L227.65 48.3335V51.029C227.65 52.7391 227.523 53.8518 227.302 54.0723C227.041 54.3332 223.489 54.4201 213.1 54.4201H199.246V46.5944V38.7687H212.462H225.679L226.664 39.7542ZM205.332 42.8053C205.332 42.5141 205.56 42.1428 205.839 41.9802C206.452 41.6236 210.827 41.5764 211.37 41.9205C211.589 42.0593 211.714 42.5268 211.659 43.003L211.564 43.8409L208.854 43.9247C206.022 44.0122 205.332 43.7928 205.332 42.8053ZM201.113 50.2337C200.854 48.8503 201.182 47.2668 201.87 46.5782C202.393 46.0556 202.879 46.0147 208.574 46.0147C214.48 46.0147 214.74 46.0388 215.386 46.6448C215.96 47.1842 216.056 47.5602 216.056 49.2534C216.056 52.4396 216.17 52.3912 208.665 52.3912C201.671 52.3912 201.51 52.3449 201.113 50.2337Z" fill="white"/>
<path d="M213.738 49.203V50.0725H208.52H203.303V49.203V48.3335H208.52H213.738V49.203Z" fill="white"/>
<path d="M227.65 45.0003V46.0147H223.592C220.988 46.0147 219.534 45.9072 219.534 45.7147C219.534 45.5495 219.745 45.093 220.003 44.7003C220.458 44.0047 220.565 43.9859 224.06 43.9859H227.65V45.0003Z" fill="white"/>
<path d="M230.278 33.5618C230.92 33.9058 231.057 35.5359 230.49 36.1022C230.279 36.3132 229.254 36.45 227.882 36.45H225.621V35.1602C225.621 34.2374 225.765 33.7861 226.128 33.5748C226.793 33.1876 229.562 33.1789 230.278 33.5618Z" fill="white"/>
<path d="M225.621 58.2072C225.621 60.5079 225.348 60.7966 223.171 60.7966C220.456 60.7966 220.404 60.7549 220.404 58.5918V56.7388H223.013H225.621V58.2072Z" fill="white"/>
<path fill-rule="evenodd" clip-rule="evenodd" d="M382.773 10.9829C387.17 11.924 391.369 15.3948 394.414 20.6044C395.034 21.6649 396.077 22.9382 396.75 23.4544C398.214 24.5784 399.614 26.3827 400.065 27.7255C400.258 28.3006 400.395 30.657 400.395 33.3855C400.395 37.7015 400.439 38.0983 400.975 38.5566C401.481 38.9904 401.554 39.4116 401.554 41.8987C401.554 43.9522 401.436 44.9012 401.129 45.3072C400.829 45.7032 400.7 46.6472 400.694 48.4929C400.688 50.1348 400.555 51.2461 400.337 51.4638C399.897 51.9035 392.778 51.944 391.97 51.5116C391.477 51.2475 391.41 50.8841 391.41 48.4966V45.7817L390.468 45.4406C389.012 44.9137 386.554 44.2832 384.164 43.8241C382.478 43.5001 379.16 43.4062 369.369 43.4062C357.658 43.4062 356.541 43.45 353.881 44.014C352.305 44.3482 350.289 44.8421 349.402 45.1116L347.789 45.6014L347.644 48.4283C347.537 50.5067 347.384 51.3272 347.064 51.5287C346.405 51.944 339.141 51.8875 338.717 51.4638C338.497 51.2438 338.369 50.1383 338.369 48.4558C338.369 46.4452 338.263 45.7078 337.934 45.4351C337.597 45.1548 337.5 44.3705 337.5 41.9239C337.5 39.0876 337.557 38.7374 338.079 38.4116C338.622 38.0725 338.659 37.7358 338.659 33.1041C338.659 28.3606 338.69 28.0968 339.412 26.6482C339.827 25.8143 340.746 24.6532 341.465 24.0553C343.312 22.5171 343.416 22.3933 345.336 19.4482C348.254 14.9702 351.973 12.0086 355.86 11.0658C357.87 10.5783 380.556 10.5084 382.773 10.9829ZM353.207 17.1408C354.821 15.6568 355.75 15.0415 357.139 14.5398C357.994 14.2308 360.674 14.1616 369.817 14.2126L381.41 14.2772L382.836 14.9841C384.588 15.8531 387.133 18.3179 388.748 20.7102C389.415 21.6977 389.961 22.5782 389.961 22.6666C389.961 22.755 380.765 22.8275 369.527 22.8275C358.288 22.8275 349.093 22.7176 349.093 22.5832C349.093 22.0794 351.958 18.2901 353.207 17.1408ZM343.296 35.2875C343.296 34.0264 343.427 33.6664 344.143 32.9496C344.61 32.4835 345.118 32.1024 345.273 32.1024C345.428 32.1024 347.232 32.7009 349.281 33.4325C351.33 34.1643 353.55 34.9553 354.214 35.1909C355.529 35.6567 355.852 36.1251 355.587 37.1824C355.241 38.5595 354.426 38.7696 349.466 38.7595C346.327 38.7531 344.746 38.6395 344.43 38.3972C343.646 37.7946 343.296 36.837 343.296 35.2875ZM383.348 36.517C383.445 35.6718 383.126 35.8237 390.83 32.9656C393.51 31.9711 393.753 31.9546 394.704 32.7032C395.405 33.2548 395.468 33.478 395.468 35.4356C395.468 37.3932 395.405 37.6163 394.704 38.1679C394.004 38.7186 393.555 38.7687 389.329 38.7687C384.787 38.7687 384.706 38.7577 383.987 38.0386C383.486 37.5381 383.286 37.0595 383.348 36.517ZM362.191 37.5012C362.142 36.7245 362.17 35.9092 362.255 35.6897C362.379 35.366 363.743 35.2906 369.487 35.2906C377.35 35.2906 376.918 35.1733 376.918 37.3076C376.918 37.9128 376.738 38.5566 376.519 38.7386C376.24 38.9707 374.062 39.0461 369.201 38.9913L362.281 38.9137L362.191 37.5012Z" fill="white"/>
<path d="M545.155 2.86473C554.307 5.15737 561.15 13.1428 562.126 22.671C562.593 27.2276 561.48 32.5467 559.344 35.961L558.313 37.6094H554.558C550.934 37.6094 550.812 37.5897 551.102 37.0488C551.267 36.7404 551.402 35.9579 551.402 35.3098C551.402 34.6617 551.523 34.1313 551.671 34.1313C551.819 34.1313 552.145 33.9264 552.396 33.6759C552.762 33.309 552.851 32.4949 552.851 29.4921C552.851 25.3361 552.664 24.5819 551.273 23.1173C550.519 22.3232 550.11 21.4108 549.388 18.9147C548.231 14.9111 548.023 14.712 544.999 14.712C542.802 14.712 542.711 14.685 542.534 13.9807C542.24 12.81 541.352 12.3932 539.151 12.3932C537.438 12.3932 537.078 12.4883 536.462 13.1048C536.071 13.4961 535.75 14.0178 535.75 14.2642C535.75 14.6302 535.333 14.712 533.464 14.712C530.367 14.712 530.184 14.8911 528.915 19.1744C528.203 21.578 527.657 22.8727 527.114 23.4486C525.933 24.6993 525.652 25.8456 525.628 29.5017C525.605 32.9548 525.935 34.1313 526.927 34.1313C527.228 34.1313 527.345 34.4892 527.345 35.4118C527.345 36.1161 527.424 36.8987 527.521 37.1508C527.676 37.5543 527.249 37.6094 523.959 37.6094H520.222L519.276 36.0486C517.166 32.567 516.167 28.3064 516.418 23.8538C516.625 20.1865 517.16 18.1448 518.776 14.8569C523.582 5.08143 534.39 0.168057 545.155 2.86473Z" fill="white"/>
<path d="M555.665 41.4692C555.584 41.679 553.985 44.1899 552.11 47.0486C550.236 49.9073 547.618 53.8993 546.294 55.9195C544.969 57.9399 543.454 59.9216 542.927 60.3236C541.724 61.2415 539.734 61.6928 538.177 61.4012C535.871 60.9694 535.149 60.2355 531.376 54.4871C529.416 51.5011 526.954 47.7538 525.904 46.1597C524.855 44.5655 523.696 42.7723 523.328 42.1744L522.66 41.0875H539.236C552.827 41.0875 555.785 41.1562 555.665 41.4692Z" fill="white"/>
<path d="M547.634 35.4547C547.634 36.0231 547.769 36.7404 547.934 37.0488C548.227 37.5972 548.045 37.6094 539.456 37.6097L530.678 37.6103L530.778 36.0155L530.877 34.4211H539.255H547.634V35.4547Z" fill="white"/>
<path fill-rule="evenodd" clip-rule="evenodd" d="M548.922 26.0804C549.222 26.5094 549.373 27.38 549.373 28.689V30.6532H539.373H529.374V28.3924C529.374 27.0206 529.511 25.9949 529.722 25.7839C529.978 25.5279 532.5 25.4361 539.27 25.4361C548.449 25.4361 548.472 25.4375 548.922 26.0804ZM530.695 29.1394C530.112 28.3075 530.122 27.5 530.723 26.8357C531.341 26.1531 533.329 26.1233 534.061 26.7853C534.721 27.3826 534.745 28.5536 534.111 29.2536C533.389 30.0515 531.284 29.9811 530.695 29.1394ZM546.129 29.7837C544.184 29.7837 543.215 28.1159 544.446 26.8853C545.128 26.2033 546.954 26.101 547.772 26.6992C548.107 26.9447 548.31 27.4519 548.31 28.0446C548.31 29.2269 547.612 29.7837 546.129 29.7837Z" fill="white"/>
<path d="M545.963 20.0016C546.201 20.8386 546.341 21.6212 546.273 21.7406C546.129 21.996 531.982 22.04 531.982 21.7853C531.982 21.6902 532.187 20.9076 532.438 20.0462L532.893 18.4799H539.212H545.531L545.963 20.0016Z" fill="white"/>
<path fill-rule="evenodd" clip-rule="evenodd" d="M27.9869 182.651C29.346 183.222 30.3433 184.385 31.3645 186.587C31.8447 187.624 33.1151 190.297 34.1872 192.529C37.0569 198.503 36.9349 197.936 36.9349 205.309C36.9349 212.821 37.1294 212.383 33.7896 212.383C30.9103 212.383 30.8482 212.34 30.8482 210.323V208.615H18.6749H6.50165V210.044C6.50165 212.087 6.0979 212.383 3.3134 212.383C-0.0922234 212.383 0.0605273 212.755 0.174725 204.731L0.270076 198.036L3.5705 191.169C6.79729 184.454 7.63695 183.15 9.11021 182.565C9.52903 182.398 13.4584 182.269 18.4222 182.258C25.2146 182.244 27.2139 182.326 27.9869 182.651ZM5.34229 195.872C5.34229 195.194 9.48787 187.247 10.1484 186.66C10.8692 186.019 11.0095 186.008 18.5071 186.008C27.3055 186.008 27.0308 185.929 28.4116 188.841C30.3918 193.017 31.7178 195.896 31.7178 196.018C31.7178 196.092 25.7833 196.152 18.53 196.152C10.2391 196.152 5.34229 196.048 5.34229 195.872ZM4.82463 204.687C2.92762 203.894 2.60763 201.14 4.2632 199.854C5.30025 199.048 7.11582 199.185 8.01636 200.137C10.2296 202.478 7.80593 205.932 4.82463 204.687ZM30.1225 204.847C28.1658 204.201 27.5696 201.666 29.0185 200.153C30.4622 198.646 33.0922 199.242 33.7464 201.223C34.4756 203.433 32.3322 205.576 30.1225 204.847Z" fill="white"/>
<path fill-rule="evenodd" clip-rule="evenodd" d="M52.7782 178.058C64.1066 180.947 63.9588 180.893 64.9816 182.587C65.5178 183.476 68.2377 196.765 68.2377 198.495C68.2377 199.735 64.9509 211.57 64.5654 211.717C63.9956 211.936 59.8946 210.955 59.428 210.488C59.079 210.139 59.0828 209.872 59.4546 208.603C59.6929 207.79 59.8427 207.082 59.7877 207.03C59.7326 206.978 54.9085 205.666 49.0679 204.114L38.4482 201.293L38.3041 199.519C38.189 198.101 38.2528 197.688 38.6232 197.456C40.6718 196.174 41.1631 194.737 40.131 193.044C39.3635 191.785 38.0316 191.492 36.3427 192.21C36.0045 192.354 35.6576 191.909 34.9208 190.386L33.9466 188.372L34.7582 187.407C43.1876 177.387 43.6673 176.931 46.2567 176.477C46.362 176.458 49.2966 177.17 52.7782 178.058ZM38.6739 188.645C38.6739 188.339 44.7044 181.442 45.3945 180.959C45.7545 180.707 46.3785 180.501 46.7817 180.502C47.5402 180.503 59.6709 183.726 61.0438 184.292C62.1241 184.737 62.6046 185.927 63.3231 189.934C64.1947 194.795 64.2898 195.572 64.013 195.572C63.7602 195.572 56.8971 193.775 54.6152 193.111C53.8978 192.902 50.0177 191.852 45.9924 190.777C41.9671 189.702 38.6739 188.743 38.6739 188.645ZM59.2604 202.118C58.7489 200.568 59.6561 198.763 61.1366 198.385C63.8817 197.685 65.903 201.14 63.9124 203.131C62.3699 204.673 59.9285 204.142 59.2604 202.118Z" fill="white"/>
<path d="M28.1907 174.5C28.5788 174.968 31.9525 182.866 31.6181 182.524C31.07 181.963 26.2108 175.427 26.2108 175.251C26.2108 175.01 27.3739 174.124 27.689 174.124C27.7933 174.124 28.0191 174.294 28.1907 174.5Z" fill="white"/>
<path d="M35.4008 169.974C35.6237 170.555 34.2774 182.032 34.022 181.727C33.7403 181.389 32.5003 170.421 32.6887 169.931C32.936 169.286 35.1506 169.321 35.4008 169.974Z" fill="white"/>
<path d="M41.3016 173.845C41.61 174.01 41.8622 174.305 41.8622 174.5C41.8622 174.758 37.2155 181.174 36.5085 181.892C36.4613 181.94 37.212 180.081 38.1763 177.762C39.9426 173.513 40.164 173.236 41.3016 173.845Z" fill="white"/>
<path fill-rule="evenodd" clip-rule="evenodd" d="M373.15 325.856C373.15 324.068 373.047 323.579 372.57 323.102C372.083 322.615 371.604 322.523 369.559 322.523C366.228 322.523 365.872 322.824 365.681 325.804L365.538 328.03H363.887C361.683 328.03 360.977 328.72 360.977 330.874C360.977 332.171 360.899 332.377 360.412 332.377C360.101 332.377 359.497 332.836 359.069 333.397L358.291 334.417L357.329 333.682C356 332.669 355.175 332.409 354.275 332.723C353.66 332.937 353.302 332.846 352.422 332.248C351.174 331.401 350.295 331.321 349.087 331.946C348.059 332.477 346.774 334.292 346.774 335.212C346.774 336.129 347.526 337.511 348.228 337.887C348.709 338.144 348.776 338.386 348.628 339.316C348.464 340.337 348.555 340.55 349.656 341.745L350.863 343.055L349.833 344.405C349.267 345.147 348.803 345.953 348.803 346.197C348.803 346.44 349.331 347.765 349.976 349.141C350.824 350.95 351.044 351.677 350.773 351.766C349.953 352.036 348.513 353.787 348.513 354.516C348.513 355.123 348.24 355.403 347.075 355.994C345.494 356.795 345.035 357.405 345.035 358.705C345.035 359.817 349.445 369.037 350.096 369.287C350.921 369.604 352.243 369.501 353.365 369.032C354.222 368.674 354.591 368.653 355.25 368.926C355.727 369.124 356.714 369.2 357.61 369.107L359.151 368.948L360.618 372.038C361.703 374.324 362.117 375.561 362.206 376.791C362.343 378.661 362.894 379.487 364.195 379.773C365.006 379.951 365.034 380.016 365.034 381.673C365.034 384.315 365.395 384.549 369.476 384.549C372.533 384.549 372.802 384.502 373.389 383.878C373.881 383.354 374.019 382.851 374.019 381.581C374.019 379.973 374.03 379.953 375.062 379.612C376.258 379.217 376.92 378.008 376.915 376.225C376.913 375.512 377.436 373.993 378.41 371.882C379.715 369.053 379.974 368.671 380.423 368.911C381.147 369.299 383.194 369.255 383.863 368.837C384.317 368.553 384.624 368.581 385.463 368.982C386.959 369.695 388.564 369.629 389.286 368.825C390.029 367.998 394.018 359.516 394.018 358.763C394.018 357.627 393.347 356.76 391.953 356.098C391.029 355.66 390.54 355.246 390.54 354.902C390.54 353.985 389.692 352.692 388.782 352.221C387.764 351.695 387.774 351.619 389.272 348.493C389.81 347.37 390.25 346.294 390.25 346.103C390.25 345.911 389.794 345.156 389.236 344.425C388.678 343.694 388.222 343.028 388.222 342.945C388.222 342.862 388.678 342.393 389.236 341.903C390.126 341.122 390.25 340.845 390.25 339.647C390.25 338.509 390.395 338.144 391.12 337.449C392.268 336.349 392.323 334.681 391.258 333.237C389.891 331.385 388.402 331.047 386.702 332.2C385.874 332.763 385.431 332.865 384.357 332.744C383.197 332.613 382.895 332.705 381.9 333.493L380.766 334.392L379.849 333.384C379.345 332.831 378.756 332.377 378.541 332.377C378.274 332.377 378.106 331.854 378.013 330.735C377.833 328.566 377.208 328.03 374.857 328.03H373.15V325.856ZM367.353 326.146V328.03H369.382H371.411V326.146V324.262H369.382H367.353V326.146ZM362.716 330.928V332.087H369.527H376.338V330.928V329.769H369.527H362.716V330.928ZM349.224 334.014C348.833 334.435 348.513 335 348.513 335.268C348.513 335.713 349.635 337.015 350.019 337.015C350.109 337.015 350.677 336.412 351.28 335.675L352.378 334.336L351.677 333.798C350.712 333.056 350.058 333.114 349.224 334.014ZM387.334 333.783L386.671 334.319L387.27 335.16C387.6 335.622 388.145 336.25 388.483 336.555C389.09 337.103 389.106 337.102 389.819 336.432C390.727 335.579 390.723 335.247 389.79 334.139C388.929 333.115 388.275 333.021 387.334 333.783ZM354.164 334.911C352.743 336.418 350.252 339.543 350.252 339.819C350.252 339.97 350.653 340.478 351.142 340.946L352.032 341.797L352.809 340.875C356.234 336.809 356.888 336.056 356.723 335.6C356.679 335.479 356.577 335.378 356.453 335.242C355.426 334.107 354.982 334.043 354.164 334.911ZM356.021 339.696C353.433 342.765 351.129 345.495 350.901 345.764C350.449 346.296 350.65 346.793 355.008 355.958C356.059 358.168 356.919 360.087 356.919 360.223C356.919 360.36 356.672 360.604 356.37 360.765C355.641 361.155 355.549 361.027 353.531 356.817C351.954 353.528 351.805 353.32 351.192 353.556C350.832 353.695 350.396 354.119 350.223 354.499C349.949 355.1 350.277 355.969 352.751 361.208C355.748 367.555 356.113 368.03 357.566 367.477L358.342 367.182L357.464 365.245C356.713 363.588 356.645 363.25 356.991 362.904C357.498 362.397 358.287 362.677 358.533 363.452C358.635 363.775 359.742 366.176 360.993 368.787L363.267 373.535H369.521H375.774L376.955 370.999C377.605 369.604 379.768 364.942 381.762 360.639C383.756 356.336 386.092 351.326 386.954 349.507C388.295 346.674 388.464 346.133 388.132 345.737C387.919 345.483 385.609 342.765 382.999 339.696L378.253 334.116H369.49H360.728L356.021 339.696ZM386.225 355.048C385.763 356.049 384.321 359.148 383.021 361.935C380.842 366.605 380.697 367.029 381.162 367.369C382.533 368.372 383.288 367.438 386.35 360.947C389.209 354.887 389.298 354.403 387.716 353.57C387.101 353.246 387.017 353.328 386.225 355.048ZM347.748 357.571C347.247 357.876 346.765 358.244 346.676 358.388C346.494 358.681 350.365 367.083 350.963 367.695C351.284 368.023 351.517 368.005 352.407 367.582C352.991 367.306 353.429 366.909 353.382 366.702C353.238 366.072 348.959 357.022 348.803 357.019C348.724 357.017 348.249 357.266 347.748 357.571ZM387.832 361.706C386.612 364.268 385.613 366.545 385.613 366.766C385.613 366.987 386.072 367.386 386.633 367.654C387.521 368.077 387.704 368.086 388.042 367.722C388.548 367.175 392.279 359.147 392.279 358.603C392.279 358.373 391.778 357.929 391.165 357.617L390.051 357.048L387.832 361.706ZM363.994 375.382C363.907 375.608 363.878 376.295 363.928 376.91L364.02 378.027L369.199 378.107C372.874 378.163 374.499 378.086 374.793 377.842C375.06 377.62 375.177 377.077 375.121 376.313L375.034 375.129L369.593 375.05C365.113 374.985 364.124 375.044 363.994 375.382ZM366.54 381.288L366.628 382.665L369.454 382.747L372.28 382.83V381.371V379.911H369.366H366.452L366.54 381.288ZM382.227 336.12C381.893 335.723 381.986 335.558 382.907 334.902C383.494 334.485 384.087 334.214 384.226 334.299C384.817 334.665 388.814 339.731 388.724 340.001C388.669 340.164 388.23 340.602 387.749 340.974L386.872 341.649L384.743 339.115L384.099 338.348C383.182 337.257 382.4 336.326 382.227 336.12Z" fill="white"/>
</svg>
