<svg width="469" height="450" viewBox="0 0 469 450" fill="none" xmlns="http://www.w3.org/2000/svg">
<path d="M166.181 132.043C171.337 133.128 175.47 137.189 176.692 142.371C176.979 143.591 177.053 145.647 177.056 152.507L177.059 161.114L175.928 160.541C174.638 159.887 173.176 159.453 171.538 159.238L170.407 159.089L171.032 158.17C172.375 156.198 172.551 155.192 172.551 149.474C172.551 143.378 172.414 142.864 170.476 141.634C169.108 140.767 168.031 140.734 166.196 141.504C162.847 142.91 159.9 143.598 155.513 143.999C153.441 144.188 152.818 144.35 151.419 145.061L149.769 145.899L149.773 145.137C149.781 143.656 150.486 141.031 151.347 139.273C153.049 135.801 156.929 132.779 160.632 132.042C162.793 131.612 164.131 131.612 166.181 132.043Z" fill="white"/>
<path d="M169.008 144.511C169.479 144.982 169.496 145.21 169.423 149.91C169.337 155.491 169.193 156.015 167.305 157.631C166.76 158.098 166.12 158.798 165.883 159.188C164.721 161.099 162.143 161.063 160.942 159.12C160.666 158.674 160.092 158.043 159.667 157.719C159.241 157.394 158.576 156.555 158.187 155.854C157.487 154.591 157.482 154.548 157.482 150.804V147.028L159.855 146.618C162.297 146.196 165.35 145.306 167.142 144.492C168.412 143.916 168.412 143.916 169.008 144.511Z" fill="white"/>
<path d="M154.318 151.317C154.394 155.111 154.428 155.359 155.08 156.771C155.456 157.585 155.91 158.373 156.089 158.521C156.648 158.985 156.454 159.137 155.122 159.274C154.412 159.348 152.917 159.775 151.8 160.223L149.769 161.039V156.079C149.769 150.495 149.907 149.916 151.532 148.677C152.295 148.094 153.678 147.375 154.08 147.351C154.167 147.346 154.274 149.131 154.318 151.317Z" fill="white"/>
<path d="M160.977 171.312C164.606 175.944 168.219 180.562 169.005 181.574L170.434 183.413H168.551H166.669L164.881 181.099C163.898 179.826 161.211 176.383 158.91 173.446C152.118 164.779 151.666 164.189 151.606 163.927C151.541 163.643 153.504 162.762 154.032 162.838C154.222 162.866 157.348 166.679 160.977 171.312Z" fill="white"/>
<path d="M150.507 167.81C152.757 170.661 161.188 181.481 161.971 182.523L162.64 183.413H159.29H155.939V180.236C155.939 177.553 155.874 176.982 155.524 176.571C154.92 175.862 153.86 175.797 153.227 176.429C152.924 176.733 152.854 177.419 152.854 180.107V183.413H148.749C145.872 183.413 144.558 183.328 144.358 183.128C143.933 182.703 144.002 181.608 144.792 176.245C145.258 173.083 145.715 170.844 146.092 169.884C146.644 168.475 148.392 165.852 148.78 165.852C148.88 165.852 149.657 166.733 150.507 167.81Z" fill="white"/>
<path d="M160.825 163.033C162.14 163.68 162.516 163.76 163.821 163.673C164.917 163.599 165.579 163.403 166.317 162.933C167.209 162.364 167.549 162.292 169.376 162.292C174.305 162.292 178.494 164.939 180.544 169.349C181.24 170.846 181.449 171.791 182.169 176.686C183.247 184.012 183.597 183.413 178.241 183.413H174.212L174.195 180.387C174.177 177.03 174.085 176.615 173.266 176.177C172.117 175.562 171.052 176.442 170.841 178.179C170.783 178.663 170.249 178.089 167.643 174.739C165.923 172.527 163.067 168.859 161.295 166.589C159.524 164.319 158.075 162.423 158.075 162.377C158.075 162.057 159.567 162.413 160.825 163.033Z" fill="white"/>
<path d="M303.137 132.029C305.232 132.473 306.9 133.4 308.195 134.841C308.77 135.48 309.24 136.085 309.24 136.186C309.24 136.287 309.656 136.786 310.164 137.294C311.481 138.611 311.85 140.046 311.85 143.848C311.85 146.565 311.906 146.991 312.341 147.602C312.623 147.998 312.799 148.56 312.756 148.924C312.685 149.527 312.411 149.65 307.224 151.424C301.552 153.362 300.423 153.913 299.434 155.223C298.365 156.639 298.277 157.42 298.381 164.548C298.461 170.087 298.547 171.407 298.9 172.488C299.466 174.228 300.503 176.379 301.506 177.895L302.331 179.141H290.005C274.854 179.141 276.127 179.612 277.454 174.503C278.259 171.401 278.543 170.743 279.598 169.543C280.71 168.275 281.467 167.915 286.566 166.223C289.17 165.359 291.494 164.477 291.73 164.264C292.226 163.814 292.866 161.835 292.866 160.748C292.866 160.258 292.661 159.81 292.268 159.44C291.269 158.502 290.286 156.769 289.978 155.401C289.818 154.688 289.593 154.041 289.479 153.962C289.366 153.884 289.013 153.105 288.696 152.231C287.977 150.249 287.938 148.451 288.594 147.461C288.99 146.863 289.066 146.344 289.067 144.223C289.07 140.15 290.065 137.72 292.842 135.01C294.871 133.029 297.835 131.744 300.46 131.704C301.047 131.695 302.252 131.841 303.137 132.029Z" fill="white"/>
<path fill-rule="evenodd" clip-rule="evenodd" d="M321.615 155.317C324.924 156.44 327.818 157.525 328.047 157.727C328.42 158.057 328.462 158.661 328.462 163.726C328.462 168.909 328.418 169.509 327.912 171.255C327.176 173.798 325.699 176.207 323.602 178.283C321.038 180.822 316.96 183.413 315.527 183.413C314.305 183.413 310.514 181.059 308.102 178.803C305.276 176.16 303.557 173.21 302.929 169.927C302.509 167.731 302.464 159.044 302.868 158.157C303.034 157.791 303.519 157.417 304.114 157.195C304.839 156.925 315.361 153.329 315.563 153.283C315.582 153.278 318.305 154.194 321.615 155.317ZM315.049 168.079C316.453 166.127 319.676 162.367 320.156 162.119C320.971 161.699 321.809 161.934 322.614 162.808C323.551 163.824 323.367 164.745 321.851 166.637C321.202 167.445 319.748 169.281 318.618 170.717C316.411 173.522 315.743 174.047 314.657 173.829C313.725 173.643 309.337 169.83 309.137 169.032C308.782 167.618 309.787 166.327 311.243 166.327C312.06 166.327 312.415 166.502 313.471 167.426C314.662 168.468 314.745 168.502 315.049 168.079Z" fill="white"/>
<path d="M436.266 268.666C436.483 268.829 436.957 269.817 437.32 270.861L437.98 272.759L439.36 272.831C440.738 272.902 440.741 272.901 441.97 271.676C443.552 270.1 444.138 269.719 444.705 269.9C444.958 269.98 445.824 271.046 446.631 272.268L448.096 274.491L455.022 277.622C458.831 279.344 462.332 281.001 462.801 281.303C463.848 281.979 464.44 283.164 464.44 284.586C464.44 286.172 464.208 286.578 462.093 288.707L460.168 290.646V293.571V296.497L456.905 299.74C453.839 302.787 453.574 302.993 452.513 303.145C450.099 303.493 448.555 305.426 448.545 308.114L448.54 309.534L445.993 312.089C444.072 314.017 443.296 314.644 442.835 314.644C442.372 314.644 441.609 314.021 439.686 312.069C438.291 310.653 437.149 309.315 437.149 309.097C437.149 308.878 437.79 308.011 438.573 307.169C440.684 304.9 440.656 304.801 437.149 302.011L435.844 300.972L435.777 298.848L435.709 296.723L434.353 296.013L432.996 295.304L432.878 293.899L432.759 292.493L430.894 291.873C429.869 291.531 428.881 291.048 428.699 290.8C428.517 290.55 428.369 289.793 428.369 289.107V287.867L426.224 288.939C424.774 289.664 423.904 289.967 423.538 289.875C422.785 289.686 418.164 284.892 418.164 284.3C418.164 284.023 419.092 282.873 420.397 281.531L422.63 279.235L422.711 276.869L422.792 274.502L423.678 273.69C424.406 273.023 424.751 272.878 425.607 272.878C426.18 272.878 427.053 273.046 427.546 273.253C428.389 273.605 428.48 273.6 429.058 273.169C429.516 272.828 429.707 272.429 429.803 271.609C429.874 271.003 430.041 270.399 430.172 270.267C430.442 269.998 434.928 268.415 435.502 268.387C435.705 268.377 436.049 268.503 436.266 268.666Z" fill="white"/>
<path fill-rule="evenodd" clip-rule="evenodd" d="M434.467 130.035C437.076 130.932 439.389 132.86 440.668 135.202L441.36 136.47L442.095 135.186C442.975 133.647 445.198 131.467 446.63 130.736C449.158 129.447 452.589 129.1 455.185 129.872C460.596 131.481 464.159 137.026 463.272 142.458C462.791 145.404 461.14 148.268 459.003 149.864L457.83 150.739L459.296 151.255C461.499 152.029 462.162 152.437 463.934 154.109C465.655 155.732 466.743 157.485 467.383 159.666C467.921 161.495 467.95 178.8 467.418 179.83C466.914 180.805 465.513 181.945 464.622 182.105C464.196 182.182 453.434 182.214 440.709 182.176L417.571 182.108L416.703 181.443C414.959 180.109 414.961 180.122 414.962 170.005C414.963 160.589 415.009 160.083 416.053 157.917C416.525 156.938 416.626 156.361 416.325 156.358C415.866 156.354 415.036 154.664 415.022 153.703C415.002 152.404 415.48 151.486 416.82 150.252C418.757 148.466 420.398 148.449 422.464 150.19C423.372 150.956 423.728 151.122 424.207 151.001C424.972 150.809 424.968 150.592 424.191 150.176C423.177 149.634 421.324 147.433 420.549 145.853C419.078 142.849 419.005 139.456 420.342 136.244C420.944 134.797 421.421 134.105 422.664 132.874C425.919 129.647 430.287 128.597 434.467 130.035ZM422.164 136.254C423.178 134.271 425.012 132.652 427.335 131.688C428.282 131.295 428.932 131.22 430.979 131.267C433.118 131.316 433.664 131.414 434.836 131.963C436.746 132.858 438.658 134.742 439.589 136.646C440.308 138.115 440.353 138.357 440.353 140.821C440.353 143.283 440.308 143.527 439.595 144.976C437.687 148.851 433.264 151.217 429.305 150.481C422.576 149.23 419.086 142.275 422.164 136.254ZM442.347 142.305C441.523 137.837 444.303 133.338 449.001 131.537C449.57 131.318 450.657 131.235 452.337 131.28C454.539 131.338 454.99 131.427 456.219 132.039C462.27 135.053 463.604 142.98 458.859 147.731C457.456 149.136 456.34 149.763 454.305 150.29C452.431 150.776 451.374 150.762 449.444 150.227C445.642 149.173 443.087 146.321 442.347 142.305ZM438.292 149.342C439.096 148.615 440.1 147.44 440.524 146.732C441.236 145.541 441.658 145.14 441.658 145.654C441.658 146.187 443.644 148.753 444.756 149.658L445.993 150.664H441.412H436.831L438.292 149.342ZM416.635 153.203C416.826 152.567 418.343 150.93 418.995 150.656C419.661 150.377 419.769 150.385 420.49 150.765C421.178 151.128 423.776 153.725 424.419 154.692C425.522 156.352 424.112 158.733 422.026 158.733C421.182 158.733 420.562 158.319 418.681 156.503C416.962 154.844 416.41 153.954 416.635 153.203ZM425.343 153.21C425 152.83 424.993 152.741 425.293 152.552C425.484 152.431 427.943 152.331 430.758 152.329C434.752 152.326 436.16 152.409 437.165 152.703C441.036 153.839 444.048 157.119 444.76 160.973C444.899 161.723 444.969 165.759 444.93 170.68L444.862 179.104L444.293 179.709C442.979 181.107 440.977 180.932 440.003 179.334C439.549 178.589 439.524 178.152 439.523 170.887C439.522 164.015 439.482 163.212 439.134 163.078C438.92 162.996 438.573 163.038 438.363 163.171C438.023 163.385 437.98 164.303 437.98 171.347C437.98 178.412 438.024 179.349 438.383 179.896C438.604 180.234 438.72 180.576 438.64 180.657C438.559 180.737 434.988 180.802 430.702 180.802C422.359 180.802 422.569 180.836 423.267 179.616C423.541 179.135 423.607 177.524 423.614 171.125C423.622 164.027 423.583 163.212 423.234 163.078C423.021 162.996 422.674 163.037 422.463 163.17C422.127 163.382 422.065 164.378 421.961 171.258L421.843 179.104L421.274 179.709C420.961 180.042 420.344 180.433 419.904 180.578C419.234 180.8 418.957 180.769 418.218 180.391C416.491 179.509 416.477 179.416 416.567 169.649C416.635 162.283 416.707 160.81 417.049 159.801C417.697 157.886 417.749 157.857 418.758 158.836C420.727 160.748 423.209 160.889 425.014 159.192C425.716 158.532 426.458 156.927 426.465 156.055C426.471 155.273 425.901 153.825 425.343 153.21ZM443.034 154.402C442.212 153.586 441.326 152.788 441.065 152.628C440.686 152.396 442.363 152.348 449.383 152.391L458.177 152.444L459.944 153.323C460.915 153.806 462.099 154.525 462.575 154.921C463.747 155.896 465.012 157.86 465.608 159.628C466.072 161.005 466.101 161.61 466.101 169.901C466.101 177.704 466.055 178.789 465.705 179.383C464.823 180.875 462.866 181.091 461.61 179.835L460.88 179.105V171.456C460.88 163.374 460.812 162.846 459.796 163.041C459.355 163.126 459.335 163.434 459.275 171.017C459.223 177.624 459.271 179.044 459.572 179.764C459.769 180.236 459.931 180.663 459.931 180.713C459.931 180.762 456.78 180.802 452.93 180.802C449.071 180.802 445.93 180.709 445.93 180.594C445.93 180.479 446.09 180.002 446.285 179.534C446.579 178.831 446.641 177.212 446.641 170.282C446.641 165.596 446.535 161.317 446.401 160.604C445.992 158.435 444.699 156.054 443.034 154.402Z" fill="white"/>
<path fill-rule="evenodd" clip-rule="evenodd" d="M45.0353 268.02C46.6955 268.754 48.2817 270.414 48.8987 272.063C49.9091 274.764 49.312 278.11 47.4755 280.04L46.5564 281.006L46.4888 296.342C46.4216 311.639 46.42 311.68 45.8979 312.657C45.3058 313.764 44.1765 314.8 43.0473 315.274C42.4327 315.531 39.2037 315.593 26.4856 315.593C11.394 315.593 10.6482 315.573 9.80714 315.14C9.32303 314.89 8.585 314.329 8.16758 313.894C6.60087 312.259 6.67206 313.284 6.67467 292.404L6.67705 273.471L7.2423 272.257C7.85385 270.944 8.9896 269.926 10.4094 269.42C11.1097 269.17 14.0222 269.1 24.0599 269.091L36.8199 269.081L37.7694 268.482C39.9453 267.108 42.5931 266.94 45.0353 268.02ZM36.2238 273.085C36.7112 271.654 37.809 270.375 39.1474 269.678C41.2614 268.577 44.2837 269.001 45.8891 270.624C47.279 272.028 47.6082 272.848 47.6046 274.895C47.6011 276.992 47.3082 277.769 46.045 279.032C42.9712 282.106 37.8484 281.019 36.3344 276.972C35.7667 275.456 35.7397 274.505 36.2238 273.085ZM8.86335 272.877C9.25752 272.095 9.68397 271.667 10.4602 271.276C11.5162 270.744 11.5495 270.742 23.4395 270.742H35.36L34.851 271.869C34.0557 273.63 34.1136 276.376 34.9831 278.147C36.3825 280.996 39.7087 282.899 42.5886 282.498C43.2609 282.404 44.0246 282.31 44.2856 282.29C44.7555 282.252 44.7602 282.397 44.7602 296.745V311.238L44.092 312.248C42.9318 314.001 43.6489 313.932 26.4116 313.932H11.0141L10.2295 313.398C9.79811 313.105 9.22169 312.563 8.94855 312.194C8.4559 311.53 8.45162 311.379 8.38874 292.734L8.32515 273.945L8.86335 272.877Z" fill="white"/>
<path fill-rule="evenodd" clip-rule="evenodd" d="M29.5521 280.01C32.0775 280.955 34.0579 283.358 34.6929 286.249C35.425 289.582 33.4625 293.522 30.2996 295.069C26.0516 297.148 21.0299 295.415 19.0474 291.186C18.5137 290.047 18.419 289.524 18.419 287.71C18.419 285.896 18.5137 285.372 19.0474 284.234C19.8631 282.494 21.2983 281.08 23.1251 280.216C24.9937 279.332 27.5227 279.251 29.5521 280.01ZM20.5992 284.849C21.3054 283.52 22.4742 282.415 23.8771 281.75C25.3753 281.041 27.6923 280.986 29.0979 281.627C32.6988 283.268 34.2183 287.705 32.2748 290.901L31.7923 291.694L31.3685 290.997C31.1352 290.613 30.6048 290.014 30.1895 289.664C29.4683 289.058 29.4496 288.999 29.7754 288.369C30.1352 287.673 30.2351 287.038 30.1921 285.721C30.172 285.109 29.9199 284.672 29.1292 283.881C28.1399 282.892 28.0288 282.845 26.6968 282.846C24.9725 282.847 23.9685 283.401 23.2933 284.725C22.6922 285.903 22.6778 286.996 23.2487 288.116L23.6882 288.978L23.0003 289.486C22.622 289.766 22.1374 290.362 21.9236 290.81C21.7098 291.258 21.4499 291.625 21.3462 291.625C21.2425 291.625 20.9172 291.172 20.6232 290.617C19.873 289.202 19.8607 286.24 20.5992 284.849ZM25.164 287.847C24.2924 286.975 24.2521 285.998 25.0523 285.134C25.8207 284.305 27.2438 284.259 27.9674 285.04C29.8058 287.024 27.0753 289.758 25.164 287.847ZM23.0465 292.697C23.0465 291.857 23.7091 290.916 24.5777 290.523C25.0295 290.318 25.9037 290.221 26.9061 290.265C28.3219 290.328 28.5943 290.419 29.2144 291.04C29.6012 291.427 29.9864 292.089 30.0706 292.511C30.2171 293.246 30.176 293.299 29.1072 293.757C26.8046 294.744 23.0465 294.086 23.0465 292.697Z" fill="white"/>
<path d="M44.9807 273.251C45.1857 273.456 45.3535 273.735 45.3535 273.871C45.3535 274.362 41.7196 277.861 41.2099 277.861C40.4483 277.861 38.4106 275.69 38.5105 274.985C38.6296 274.142 39.4251 274.151 40.2424 275.004C40.6225 275.401 41.0302 275.726 41.1484 275.726C41.2666 275.726 42.0098 275.085 42.8003 274.302C43.5908 273.519 44.3207 272.878 44.4226 272.878C44.5244 272.878 44.7754 273.046 44.9807 273.251Z" fill="white"/>
<path d="M34.6621 299.085C34.8728 299.339 34.8775 299.552 34.681 299.919C34.421 300.405 34.3035 300.411 26.5625 300.349C19.6355 300.294 18.6794 300.242 18.4663 299.904C18.3336 299.693 18.2919 299.346 18.3737 299.133C18.5076 298.784 19.3298 298.745 26.451 298.745C33.0519 298.745 34.4267 298.802 34.6621 299.085Z" fill="white"/>
<path d="M34.6913 303.629C34.9174 303.902 34.9347 304.114 34.7537 304.401C34.5311 304.754 33.6962 304.803 26.9363 304.862C22.7739 304.899 19.1279 304.87 18.8343 304.798C18.2453 304.655 18.069 303.624 18.597 303.411C18.7603 303.345 22.3778 303.282 26.6365 303.272C33.4264 303.256 34.4176 303.3 34.6913 303.629Z" fill="white"/>
<path d="M34.57 308.104C34.9388 308.378 34.9782 308.532 34.7674 308.875C34.5218 309.276 33.9653 309.305 26.465 309.305C18.9153 309.305 18.4205 309.279 18.3433 308.878C18.1348 307.794 18.3676 307.762 26.4711 307.762C32.7515 307.762 34.1913 307.823 34.57 308.104Z" fill="white"/>
<path fill-rule="evenodd" clip-rule="evenodd" d="M172.312 279.542C172.857 279.904 173.389 280.787 177.109 287.507L178.836 290.627L183.228 290.72C187.983 290.821 188.419 290.925 189.684 292.257C190.569 293.189 191.061 294.48 191.061 295.873C191.061 296.838 191.146 297.078 191.529 297.2C192.321 297.451 192.999 298.649 192.999 299.796C192.999 301.523 191.788 302.779 190.123 302.779C189.458 302.779 189.399 302.714 189.399 301.969C189.399 301.518 189.056 300.495 188.625 299.662C186.297 295.166 180.521 294.409 177.101 298.151C176.023 299.331 175.161 301.188 175.161 302.331C175.161 302.757 174.885 302.779 169.347 302.779H163.533L163.522 302.126C163.496 300.479 162.143 298.168 160.573 297.088C159.529 296.37 157.445 295.66 156.382 295.66H155.725L156.172 294.662C156.605 293.693 156.649 293.665 157.643 293.725C158.364 293.767 159.02 293.606 159.855 293.181C161.283 292.453 161.239 292.458 160.916 293.061C160.773 293.329 160.689 293.836 160.73 294.188C160.791 294.717 160.937 294.842 161.567 294.903C162.226 294.966 162.352 294.889 162.492 294.333C162.599 293.905 162.51 293.423 162.224 292.893C161.989 292.455 161.839 292.067 161.893 292.03C161.947 291.992 162.381 291.675 162.859 291.323L163.728 290.684L169.66 290.621L175.592 290.557L174.193 288.066C173.424 286.695 172.344 284.744 171.794 283.73L170.793 281.885L166.392 281.95L161.99 282.014L161.919 283.377L161.848 284.74L161.198 284.259C160.84 283.995 160.231 283.755 159.845 283.727C159.236 283.682 159.127 283.565 159.024 282.845L158.905 282.014L156.95 281.945L154.995 281.876L155.835 281.139C156.297 280.733 156.836 280.091 157.032 279.712L157.388 279.022L164.568 279.095C170.632 279.156 171.836 279.225 172.312 279.542ZM164.065 296.508C163.891 296.333 163.868 296.354 165.55 295.213C166.333 294.683 167.034 294.246 167.107 294.242C167.181 294.239 167.805 294.508 168.495 294.841L169.75 295.446L171.342 294.837C172.812 294.276 173.006 294.254 173.87 294.553C174.517 294.777 174.805 295.016 174.805 295.328C174.805 295.692 174.577 295.805 173.619 295.918C172.966 295.995 171.816 296.351 171.062 296.709L169.693 297.36L168.358 296.607L167.023 295.854L165.613 296.25C164.837 296.467 164.141 296.584 164.065 296.508Z" fill="white"/>
<path fill-rule="evenodd" clip-rule="evenodd" d="M158.193 298.72C159.989 299.551 160.923 300.98 160.923 302.897C160.923 304.992 159.713 306.6 157.694 307.187C156.539 307.522 156.291 307.523 155.161 307.195C150.984 305.98 150.809 300.078 154.908 298.616C156.155 298.171 157.071 298.2 158.193 298.72ZM155.071 304.11C154.184 303.079 154.399 301.846 155.583 301.167C155.844 301.017 156.197 300.891 156.366 300.887C156.877 300.876 158.007 301.549 158.165 301.959C158.959 304.028 156.482 305.751 155.071 304.11Z" fill="white"/>
<path fill-rule="evenodd" clip-rule="evenodd" d="M184.31 298.859C186.247 299.831 187.123 301.757 186.686 304.083C186.439 305.399 185.084 306.744 183.556 307.188C182.406 307.522 182.157 307.523 181.028 307.195C176.863 305.984 176.688 300.073 180.775 298.616C182.114 298.138 182.995 298.199 184.31 298.859ZM180.762 303.928C180.196 303.12 180.299 302.351 181.075 301.574C181.858 300.792 182.248 300.729 183.212 301.227C183.943 301.605 184.179 302.022 184.179 302.933C184.179 303.814 183.798 304.361 182.988 304.643C182.109 304.949 181.294 304.687 180.762 303.928Z" fill="white"/>
<path d="M149.028 280.843C152.301 283.022 152.531 283.693 150.881 286.256L149.858 287.847L149.074 285.761C148.161 283.331 147.76 282.753 147.954 284.15C148.026 284.672 148.209 286.04 148.361 287.19L148.636 289.282L150.819 290.366L153.002 291.451L154.229 290.648C155.011 290.136 155.46 289.673 155.468 289.371C155.476 289.11 155.62 288.645 155.79 288.339C156.092 287.795 156.129 287.827 157.303 289.644C158.609 291.666 158.602 292.104 157.268 291.695C156.122 291.343 154.689 292.18 154.515 293.302C154.443 293.767 154.142 294.258 153.751 294.549L153.106 295.029L149.774 293.399C147.941 292.502 146.239 291.55 145.991 291.282C145.645 290.908 145.448 290.023 145.143 287.472C144.924 285.645 144.71 284.115 144.668 284.073C144.511 283.915 144.346 284.944 144.053 287.892C143.71 291.349 143.902 292.166 145.246 292.96C145.645 293.196 145.972 293.547 145.972 293.739C145.972 293.932 146.527 294.935 147.205 295.967C148.083 297.305 148.429 298.06 148.409 298.591C148.393 299.002 148.056 301.474 147.661 304.084C146.998 308.46 146.894 308.872 146.325 309.364C145.514 310.067 144.668 310.04 143.916 309.288C143.202 308.574 143.206 308.42 144.082 302.538L144.631 298.855L143.284 296.844C142.544 295.738 141.938 294.946 141.938 295.083C141.938 295.221 142.257 296.278 142.648 297.434L143.358 299.535L142.745 302.284C141.369 308.456 141.263 308.809 140.626 309.364C140.289 309.658 139.747 309.898 139.422 309.898C138.672 309.898 137.666 308.907 137.666 308.168C137.666 307.857 138.075 305.831 138.575 303.665L139.483 299.727L138.219 296.105C136.885 292.284 136.735 291.314 137.307 290.209C138.092 288.691 144.096 279.77 144.485 279.544C145.541 278.929 146.615 279.236 149.028 280.843Z" fill="white"/>
<path d="M161.097 287.354C161.653 288.202 162.107 289.026 162.108 289.184C162.109 289.524 160.449 290.705 160.194 290.547C159.787 290.295 157.763 286.548 157.993 286.471C158.132 286.425 158.447 286.232 158.694 286.042C159.485 285.434 160.038 285.736 161.097 287.354Z" fill="white"/>
<path d="M152.019 296.609C152.584 296.609 152.453 296.893 151.43 297.885C150.633 298.658 150.481 298.73 150.481 298.334C150.481 298.075 150.187 297.282 149.828 296.572L149.176 295.282L150.417 295.945C151.1 296.31 151.821 296.609 152.019 296.609Z" fill="white"/>
<path d="M153.894 273.682C155.594 274.392 156.424 276.859 155.537 278.569C154.901 279.795 153.743 280.472 152.285 280.471C150.71 280.47 149.646 279.825 149.049 278.509C148.452 277.194 148.467 276.492 149.122 275.254C150.026 273.545 152.005 272.892 153.894 273.682Z" fill="white"/>
<path fill-rule="evenodd" clip-rule="evenodd" d="M310.779 277.189C311.139 277.472 311.578 278.051 311.756 278.476C312.055 279.192 311.91 280.004 309.739 289.781C308.453 295.575 307.232 300.64 307.027 301.037C306.519 302.021 305.194 303.142 304.124 303.495C302.811 303.929 300.623 303.662 299.524 302.934C298.343 302.153 297.844 301.307 296.703 298.151C296.183 296.716 294.941 293.298 293.942 290.557C291.955 285.103 291.889 284.584 293.047 283.515C293.404 283.185 295.138 282.316 296.9 281.584C298.662 280.852 302.026 279.455 304.375 278.48C306.725 277.505 308.979 276.7 309.386 276.691C309.806 276.682 310.408 276.897 310.779 277.189ZM309.595 280.612C308.399 280.912 307.547 279.351 308.426 278.472C309.386 277.512 311.031 278.647 310.468 279.882C310.324 280.199 309.931 280.528 309.595 280.612ZM299.51 282.003C301.011 281.387 303.094 280.528 304.138 280.094C305.182 279.661 306.158 279.301 306.307 279.296C306.456 279.29 306.651 279.579 306.74 279.938C307.014 281.047 308.014 281.896 309.047 281.896C309.549 281.896 309.952 282.012 309.952 282.157C309.952 282.301 309.375 285.051 308.669 288.268C307.963 291.485 307.314 294.464 307.226 294.888C307.138 295.312 307.039 295.66 307.005 295.66C306.972 295.66 306.512 295.248 305.983 294.745C305.061 293.868 303.609 293.286 302.34 293.286C301.079 293.286 299.832 293.896 298.663 295.083L297.459 296.306L296.052 292.389C295.279 290.234 294.616 288.398 294.58 288.308C294.543 288.218 294.923 288.022 295.424 287.872C296.774 287.468 297.493 286.588 297.493 285.342C297.493 284.668 297.339 284.148 297.04 283.818C296.791 283.542 296.63 283.273 296.684 283.22C296.737 283.167 298.009 282.619 299.51 282.003ZM294.924 286.642C293.787 286.642 293.204 285.312 293.97 284.466C294.705 283.653 296.188 284.208 296.188 285.295C296.188 285.93 295.52 286.642 294.924 286.642ZM299.003 300.212C298.079 298.318 298.855 296.038 300.74 295.109C303.254 293.87 306.185 295.671 306.227 298.481C306.261 300.729 304.683 302.304 302.397 302.304C300.757 302.304 299.709 301.658 299.003 300.212Z" fill="white"/>
<path fill-rule="evenodd" clip-rule="evenodd" d="M304.002 297.234C304.717 298.143 304.635 299.115 303.771 299.979C303.146 300.604 302.929 300.682 302.169 300.561C301.077 300.386 300.46 299.662 300.46 298.556C300.46 297.328 301.214 296.609 302.501 296.609C303.309 296.609 303.608 296.734 304.002 297.234ZM301.945 298.908C301.635 298.597 301.622 298.466 301.874 298.163C302.223 297.742 302.198 297.749 302.695 297.939C303.18 298.126 303.181 298.954 302.696 299.14C302.49 299.219 302.152 299.115 301.945 298.908Z" fill="white"/>
<path fill-rule="evenodd" clip-rule="evenodd" d="M166.095 396.568C167.759 397.387 169.143 398.787 169.919 400.439L170.417 401.499H175.174C180.352 401.499 180.99 401.629 181.522 402.798C182.008 403.865 181.87 404.793 181.112 405.551L180.418 406.245L175.476 406.248L170.534 406.251L169.841 407.693C169.404 408.604 168.732 409.494 168.019 410.108L166.889 411.081L168.355 411.664C172.71 413.395 176.124 417.327 177.454 422.145C177.823 423.48 177.88 424.723 177.885 431.4C177.89 438.757 177.868 439.15 177.403 439.942C176.517 441.45 175.634 441.841 173.123 441.841H170.919L170.845 437.51C170.775 433.407 170.738 433.11 170.146 431.846C169.299 430.04 168.105 428.781 166.326 427.816C164.916 427.052 164.714 427.01 162.465 427.01C160.212 427.01 160.016 427.051 158.591 427.824C156.85 428.767 155.66 430.034 154.784 431.874C154.197 433.107 154.158 433.419 154.079 437.51L153.995 441.841H151.799C149.74 441.841 149.542 441.797 148.63 441.136C147.971 440.66 147.57 440.141 147.389 439.534C147.206 438.919 147.148 436.065 147.207 430.451C147.291 422.305 147.294 422.255 147.907 420.664C149.456 416.636 152.398 413.429 156.006 411.835C156.687 411.534 157.442 411.22 157.683 411.138C158.057 411.01 157.945 410.828 156.924 409.911C156.244 409.299 155.452 408.274 155.093 407.539L154.459 406.245H149.852C144.953 406.245 143.896 406.057 143.381 405.094C142.936 404.262 143.077 403.005 143.697 402.284L144.269 401.618L149.335 401.546L154.401 401.474L154.844 400.404C155.692 398.353 158.311 396.273 160.676 395.772C162.231 395.443 164.481 395.773 166.095 396.568ZM157.678 403.586C157.837 401.673 158.689 400.495 160.567 399.593C162.275 398.771 164.261 399.193 165.761 400.694C167.776 402.71 167.474 406.208 165.147 407.82C164.275 408.425 163.965 408.5 162.329 408.5C160.637 408.5 160.42 408.442 159.58 407.774C158.186 406.665 157.541 405.243 157.678 403.586Z" fill="white"/>
<path d="M164.689 431.174C165.672 431.726 166.52 432.843 166.862 434.033C166.989 434.476 167.093 437.135 167.093 439.943C167.093 442.751 166.989 445.41 166.862 445.853C165.873 449.299 161.885 450.472 159.249 448.091C157.81 446.79 157.6 445.756 157.6 439.943C157.6 434.314 157.817 433.16 159.106 431.909C160.657 430.407 162.818 430.122 164.689 431.174Z" fill="white"/>
<path fill-rule="evenodd" clip-rule="evenodd" d="M39.7768 401.474C41.5561 402.298 42.1389 403.3 44.3466 409.33L44.8243 410.635L47.64 410.754C49.8389 410.846 50.5961 410.968 51.0966 411.308C51.8261 411.803 52.7127 413.468 52.7048 414.329C52.6968 415.219 51.8683 416.843 51.1977 417.282L50.5947 417.677L51.3987 418.846C52.5886 420.576 52.7632 421.777 52.6716 427.603C52.5926 432.636 52.5824 432.723 51.9262 434.059C50.9872 435.972 49.3887 437.164 47.252 437.546L46.4214 437.695L46.2933 440.184C46.1475 443.016 46.0707 443.257 45.1314 443.812C44.2061 444.358 40.1961 444.382 39.1614 443.847C38.2025 443.351 37.997 442.68 37.997 440.046V437.807H26.6062H15.2154V440.286C15.2154 442.564 15.1691 442.818 14.6428 443.43C14.0739 444.091 14.0497 444.096 11.207 444.096C8.3961 444.096 8.33227 444.084 7.68631 443.439C7.06836 442.822 7.02114 442.627 6.9096 440.238L6.79095 437.695L5.96037 437.546C3.83101 437.166 2.30417 436.027 1.32148 434.088L0.620938 432.705L0.540725 427.603C0.448887 421.765 0.620936 420.593 1.81626 418.912L2.63331 417.763L1.95129 417.229C1.24388 416.676 0.502284 415.158 0.502284 414.265C0.502284 413.454 1.41308 411.784 2.11575 411.308C2.61741 410.967 3.37372 410.847 5.59563 410.754L8.43478 410.635L9.81781 406.96C11.2948 403.035 11.8354 402.215 13.4356 401.474C14.3207 401.064 15.2104 401.035 26.6062 401.035C38.0019 401.035 38.8916 401.064 39.7768 401.474ZM10.8352 409.706C13.0326 403.931 13.1591 403.682 14.1036 403.267C14.7242 402.994 17.0101 402.944 26.8857 402.988C38.6776 403.04 38.9248 403.051 39.5817 403.538C40.1232 403.94 40.6679 405.121 42.4277 409.708C43.6247 412.829 44.6124 415.568 44.6228 415.797C44.6395 416.166 44.3782 416.212 42.2797 416.212H39.9177L39.4206 415.085C39.1472 414.465 38.5048 413.53 37.9934 413.007L37.0632 412.057L37.3959 411.091C38.366 408.275 35.3818 405.485 32.8236 406.816C31.1779 407.672 30.4067 409.756 31.1084 411.45C31.3834 412.114 31.3514 412.193 30.5058 412.936C30.0149 413.367 29.3649 414.28 29.0618 414.966L28.5106 416.212H26.6202H24.73L24.2329 415.085C23.9595 414.465 23.3036 413.516 22.7751 412.976C21.9504 412.134 21.8512 411.926 22.0745 411.509C22.2176 411.241 22.3346 410.49 22.3346 409.838C22.3346 408.524 21.6668 407.475 20.4198 406.83C17.6478 405.397 14.76 408.43 15.962 411.512C16.1879 412.092 16.1278 412.225 15.3181 412.936C14.8271 413.367 14.1772 414.28 13.8741 414.966L13.3229 416.212H10.9469C8.39942 416.212 8.30046 416.155 8.80379 414.977C8.93194 414.678 9.84605 412.305 10.8352 409.706ZM18.3597 411.221C17.5042 410.745 17.349 409.57 18.0491 408.87C18.6357 408.283 19.1946 408.25 19.9217 408.759C20.7119 409.313 20.5653 410.72 19.6649 411.221C19.079 411.548 18.9456 411.548 18.3597 411.221ZM33.5474 411.221C32.6919 410.745 32.5367 409.57 33.2368 408.87C33.8234 408.283 34.3823 408.25 35.1094 408.759C35.8996 409.313 35.753 410.72 34.8526 411.221C34.2667 411.548 34.1333 411.548 33.5474 411.221ZM3.05074 415.544C2.43991 414.933 2.41142 413.771 2.99117 413.13C3.36232 412.72 3.72043 412.652 5.52254 412.652C6.67705 412.652 7.62153 412.69 7.62153 412.735C7.62153 412.78 7.31729 413.555 6.94567 414.456L6.26982 416.093L4.90601 416.064C3.86898 416.042 3.42474 415.918 3.05074 415.544ZM48.4117 416.135C46.9015 416.29 46.9943 416.37 46.1808 414.209L45.5949 412.652H47.7114C49.7152 412.652 49.8541 412.686 50.3197 413.278C50.9516 414.081 50.9409 414.612 50.2776 415.38C49.8605 415.863 49.4523 416.029 48.4117 416.135ZM15.5977 416.017C15.3661 415.643 16.3898 414.331 17.2819 413.86C18.4425 413.248 19.5073 413.244 20.6922 413.848C21.6201 414.322 22.6664 415.63 22.4269 416.017C22.3607 416.125 20.8242 416.212 19.0123 416.212C17.2005 416.212 15.6639 416.125 15.5977 416.017ZM30.7892 416.024C30.5687 415.667 31.6497 414.294 32.5087 413.84C33.6312 413.247 34.7062 413.25 35.8799 413.848C36.8078 414.322 37.8541 415.63 37.6146 416.017C37.4599 416.268 30.9439 416.274 30.7892 416.024ZM2.65728 421.675C2.97931 420.277 3.8946 419.113 5.10226 418.564C6.03203 418.142 7.06456 418.121 26.6062 418.121C46.1478 418.121 47.1803 418.142 48.1101 418.564C49.2577 419.086 50.187 420.223 50.5496 421.551C50.8873 422.787 50.8873 430.995 50.5496 432.23C50.1993 433.513 49.3151 434.628 48.1969 435.199C47.2933 435.66 46.7707 435.671 26.6062 435.671C6.44163 435.671 5.91908 435.66 5.01541 435.199C3.83599 434.597 2.96934 433.461 2.65728 432.107C2.52249 431.522 2.41238 429.175 2.41238 426.891C2.41238 424.607 2.52249 422.26 2.65728 421.675ZM8.92672 442.197L8.85837 440.002L8.79027 437.807H11.0625H13.3347L13.2666 440.002L13.1983 442.197H11.0625H8.92672ZM40.0141 442.197L39.9457 440.002L39.8776 437.807H42.1498H44.4221L44.354 440.002L44.2856 442.197H42.1498H40.0141Z" fill="white"/>
<path d="M34.8709 404.538C35.0263 405.634 34.622 405.77 31.2216 405.77C28.6674 405.77 27.9928 405.699 27.6909 405.398C27.2431 404.95 27.2163 404.543 27.6088 404.151C27.8181 403.942 28.8665 403.878 31.3464 403.925C34.7425 403.99 34.7945 403.999 34.8709 404.538Z" fill="white"/>
<path d="M38.142 404.485C38.3354 405.257 37.7801 405.884 37.0961 405.667C36.0676 405.341 36.3223 403.872 37.4075 403.872C37.8337 403.872 38.0288 404.035 38.142 404.485Z" fill="white"/>
<path d="M35.7257 424.416C35.9307 424.621 36.0985 424.92 36.0985 425.08C36.0985 425.901 35.6452 425.942 26.567 425.942C17.9497 425.942 17.5958 425.924 17.3595 425.483C17.0417 424.889 17.0455 424.857 17.4867 424.416C17.8122 424.091 18.9713 424.043 26.6062 424.043C34.2411 424.043 35.4001 424.091 35.7257 424.416Z" fill="white"/>
<path d="M33.5797 428.374C33.7707 428.677 33.7707 428.902 33.5797 429.205C33.3424 429.581 32.7052 429.626 26.7279 429.683C19.9483 429.748 19.4869 429.692 19.4869 428.808C19.4869 427.873 19.8206 427.831 26.6909 427.896C32.7036 427.953 33.3422 427.997 33.5797 428.374Z" fill="white"/>
<path fill-rule="evenodd" clip-rule="evenodd" d="M44.5706 423.544C46.1933 424.72 46.7104 426.801 45.8507 428.694C44.6518 431.334 41.179 431.862 39.1353 429.716C37.8498 428.366 37.6313 426.133 38.6348 424.602C39.8515 422.745 42.7531 422.228 44.5706 423.544ZM41.1743 428.877C39.8181 428.238 39.5112 426.672 40.5098 425.485C41.0212 424.877 41.2958 424.755 42.1498 424.755C43.0039 424.755 43.2785 424.877 43.7899 425.485C44.5664 426.408 44.5744 427.364 43.8136 428.268C43.0931 429.124 42.1572 429.34 41.1743 428.877Z" fill="white"/>
<path fill-rule="evenodd" clip-rule="evenodd" d="M13.0791 423.212C13.4574 423.408 14.0661 423.96 14.4318 424.44C15.0063 425.193 15.0967 425.526 15.0967 426.891C15.0967 428.255 15.0063 428.589 14.4318 429.342C13.5806 430.458 12.526 431.002 11.1811 431.019C9.75255 431.038 8.42956 430.348 7.65974 429.185C6.36475 427.228 7.08022 424.245 9.08073 423.259C10.0777 422.768 12.1726 422.743 13.0791 423.212ZM10.3779 428.935C8.70128 428.234 8.33511 426.297 9.67946 425.24C10.6436 424.481 11.9469 424.587 12.7025 425.485C13.7163 426.69 13.3931 428.237 11.9878 428.903C11.2903 429.234 11.1038 429.238 10.3779 428.935Z" fill="white"/>
<path fill-rule="evenodd" clip-rule="evenodd" d="M280.12 409.124C281.899 410.926 283.288 411.821 285.238 412.424C286.673 412.867 287.512 412.89 302.595 412.89C317.678 412.89 318.518 412.867 319.953 412.424C321.902 411.821 323.356 410.885 325.11 409.104C325.887 408.315 326.685 407.669 326.884 407.669C327.896 407.669 328.399 408.144 329.14 409.803C330.523 412.894 330.697 414.063 330.697 420.246C330.696 425.716 330.684 425.859 330.044 427.695C329.248 429.983 328.514 431.264 327.099 432.838C325.282 434.859 322.68 436.408 319.911 437.119C318.019 437.604 287.202 437.608 285.272 437.123C281.331 436.134 277.838 433.345 276.014 429.732C274.747 427.222 274.593 426.101 274.593 419.359C274.593 413.954 274.647 413.043 275.038 411.907C275.981 409.166 277.103 407.669 278.212 407.669C278.474 407.669 279.321 408.315 280.12 409.124ZM280.781 424.15C279.26 422.519 279.331 420.475 280.942 419.476C281.453 419.159 282.172 419.071 284.273 419.066C287.351 419.059 288.344 419.401 289.452 420.854C290.356 422.04 290.515 423.93 289.777 424.712C289.27 425.249 289.17 425.26 285.467 425.186L281.677 425.111L280.781 424.15ZM315.385 421.483C315.888 420.497 316.381 420.008 317.427 419.455C317.954 419.176 318.848 419.077 320.868 419.07C324.063 419.06 324.897 419.387 325.375 420.834C325.695 421.804 325.554 422.628 324.88 423.721C324.096 424.994 323.242 425.23 319.424 425.23C316.27 425.23 315.996 425.194 315.485 424.714C314.794 424.065 314.753 422.721 315.385 421.483ZM294.44 425.687C293.661 425.074 293.595 423.894 294.299 423.139C294.778 422.625 294.864 422.619 302.605 422.619C310.11 422.619 310.446 422.639 310.901 423.094C311.608 423.801 311.534 425.071 310.751 425.687C310.148 426.161 309.854 426.179 302.595 426.179C295.337 426.179 295.043 426.161 294.44 425.687ZM296.975 430.884C296.271 430.223 296.256 429.119 296.941 428.389C297.45 427.848 297.533 427.84 302.562 427.84C307.477 427.84 307.687 427.859 308.216 428.356C308.92 429.017 308.935 430.121 308.25 430.851C307.741 431.392 307.658 431.4 302.629 431.4C297.714 431.4 297.504 431.381 296.975 430.884ZM288.256 431.795C287.503 431.042 287.449 429.935 288.131 429.253C288.527 428.857 288.863 428.779 289.946 428.837C291.066 428.897 291.349 429.007 291.745 429.54C292.049 429.948 292.166 430.369 292.077 430.727C291.806 431.802 291.337 432.169 290.076 432.29C289.011 432.392 288.794 432.333 288.256 431.795ZM313.731 431.655C312.884 430.809 312.851 430.14 313.62 429.372C314.084 428.907 314.444 428.789 315.399 428.789C316.87 428.789 317.546 429.345 317.546 430.552C317.546 432.306 315.091 433.016 313.731 431.655Z" fill="white"/>
<path fill-rule="evenodd" clip-rule="evenodd" d="M432.217 417.632C435.215 418.559 438.465 421.323 439.819 424.098C442.227 429.037 441.273 435.048 437.478 438.849C434.98 441.351 432.043 442.553 428.428 442.553C424.464 442.553 421.537 441.273 418.897 438.383C414.531 433.605 414.521 426.114 418.874 421.36C420.517 419.565 421.909 418.625 424.097 417.832C426.42 416.991 429.866 416.906 432.217 417.632ZM417.467 425.876C417.89 424.351 419.297 423.002 420.893 422.591C421.285 422.49 423.795 422.435 426.47 422.468C430.79 422.523 431.493 422.588 432.747 423.048C436.565 424.449 439.522 428.588 439.522 432.529C439.522 434.003 438.479 435.804 437.185 436.565L436.081 437.214L428.916 437.286C424.028 437.335 421.427 437.271 420.733 437.084C419.425 436.732 417.837 435.173 417.481 433.891C417.147 432.688 417.137 427.062 417.467 425.876Z" fill="white"/>
<path fill-rule="evenodd" clip-rule="evenodd" d="M432.214 424.964C436.56 426.663 439.128 432.764 436.361 434.818C435.715 435.297 435.428 435.315 428.506 435.315C420.68 435.315 420.356 435.266 419.687 433.971C419.442 433.498 419.351 432.38 419.351 429.857C419.351 425.583 419.525 425.139 421.487 424.423C421.683 424.351 423.872 424.325 426.352 424.364C430.349 424.427 431.014 424.495 432.214 424.964ZM421.961 429.857C421.961 428.905 422.08 428.624 422.768 427.935C423.457 427.246 423.738 427.128 424.69 427.128C425.643 427.128 425.924 427.246 426.613 427.935C427.301 428.624 427.419 428.905 427.419 429.857C427.419 430.809 427.301 431.091 426.613 431.779C425.924 432.468 425.643 432.586 424.69 432.586C423.738 432.586 423.457 432.468 422.768 431.779C422.08 431.091 421.961 430.809 421.961 429.857ZM429.318 429.857C429.318 428.905 429.436 428.624 430.125 427.935C430.813 427.246 431.095 427.128 432.047 427.128C432.999 427.128 433.281 427.246 433.969 427.935C434.658 428.624 434.776 428.905 434.776 429.857C434.776 430.809 434.658 431.091 433.969 431.779C433.281 432.468 432.999 432.586 432.047 432.586C431.095 432.586 430.813 432.468 430.125 431.779C429.436 431.091 429.318 430.809 429.318 429.857Z" fill="white"/>
<path d="M457.184 404.406C457.231 404.569 457.392 406.465 457.541 408.618C457.691 410.772 457.875 413.094 457.95 413.78L458.087 415.025H451.526C445.486 415.025 444.955 414.993 444.834 414.61C444.193 412.584 442.999 411.092 441.317 410.216C439.869 409.462 437.18 409.488 435.647 410.272C434.163 411.03 433.017 412.315 432.482 413.822C432.057 415.018 432.048 415.025 431.025 415.025H429.996L430.127 413.78C430.199 413.094 430.375 410.772 430.518 408.618C430.66 406.465 430.819 404.569 430.871 404.406C430.944 404.173 433.786 404.109 444.031 404.109C454.28 404.109 457.116 404.173 457.184 404.406Z" fill="white"/>
<path d="M459.436 400.895C460.415 401.402 460.802 402.5 460.986 405.296C461.076 406.666 461.285 409.55 461.449 411.703C461.614 413.857 461.725 415.652 461.696 415.692C461.668 415.732 461.285 415.672 460.847 415.559L460.049 415.353L459.869 413.232C459.769 412.065 459.546 409.357 459.372 407.214C459.067 403.449 459.036 403.301 458.413 402.765L457.768 402.211H443.999H430.231L429.573 402.868C428.973 403.469 428.903 403.728 428.755 405.894C428.667 407.196 428.475 409.775 428.328 411.624L428.062 414.986L427.242 415.14C426.791 415.224 426.395 415.26 426.362 415.219C426.329 415.178 426.383 414.236 426.483 413.127C426.582 412.018 426.788 409.348 426.941 407.194C427.287 402.306 427.454 401.615 428.44 401.014C429.171 400.568 429.742 400.551 443.984 400.551C456.463 400.55 458.872 400.604 459.436 400.895Z" fill="white"/>
<path d="M423.9 414.706C424.398 415.157 424.475 415.737 424.038 415.739C423.875 415.74 422.912 416.147 421.898 416.643C420.204 417.471 420.025 417.513 419.702 417.156C419.198 416.599 419.263 415.35 419.826 414.788C420.457 414.157 423.232 414.101 423.9 414.706Z" fill="white"/>
<path d="M468.192 414.797C468.945 415.499 468.894 416.746 468.086 417.381C467.188 418.088 465.04 418.074 464.277 417.357C463.616 416.737 463.536 415.394 464.12 414.748C464.711 414.094 467.473 414.128 468.192 414.797Z" fill="white"/>
<path d="M456.277 417.932C456.193 418.357 455.9 419.531 455.628 420.543C455.152 422.31 455.093 422.4 454.15 422.817C453.047 423.305 451.708 424.698 451.484 425.59L451.336 426.179H447.021H442.705L442.255 424.852C441.412 422.373 439.193 419.467 436.793 417.7L436.081 417.176L446.256 417.169L456.43 417.161L456.277 417.932Z" fill="white"/>
<path d="M452.091 428.536C452.226 428.789 452.337 429.59 452.337 430.316V431.637H451.388H450.438V429.857V428.077H451.142C451.595 428.077 451.933 428.241 452.091 428.536Z" fill="white"/>
<path d="M448.54 429.857V431.637H447.709H446.879V429.857V428.077H447.709H448.54V429.857Z" fill="white"/>
<path d="M444.98 429.857V431.637H444.031H443.082V429.857V428.077H444.031H444.98V429.857Z" fill="white"/>
<path d="M467.762 433.663C467.762 434.085 466.909 434.962 466.287 435.179C465.803 435.348 461.576 435.434 453.819 435.434C443.179 435.434 442.095 435.399 442.227 435.056C442.307 434.848 442.436 434.421 442.515 434.107L442.659 433.536H455.21C462.114 433.536 467.762 433.593 467.762 433.663Z" fill="white"/>
<path d="M464.151 439.884L464.084 442.435L463.312 442.509L462.541 442.583V440.788V438.994H461.592H460.643V440.773V442.553H459.837C458.817 442.553 458.744 442.353 458.744 439.567V437.332H461.481H464.218L464.151 439.884Z" fill="white"/>
<path fill-rule="evenodd" clip-rule="evenodd" d="M465.963 424.488C466.109 424.723 467.525 430.964 467.525 431.371C467.525 431.561 465.632 431.637 460.88 431.637H454.235V430.032C454.235 428.88 454.101 428.176 453.761 427.541C453.5 427.054 453.286 426.503 453.286 426.317C453.286 425.836 454.613 424.57 455.246 424.448C456.281 424.248 465.837 424.284 465.963 424.488ZM455.896 427.966C455.896 427.622 456.157 427.084 456.479 426.762C457.987 425.254 460.321 426.879 459.546 428.897C459.38 429.33 458.256 429.976 457.67 429.976C457.054 429.976 455.896 428.664 455.896 427.966ZM461.495 428.435C461.333 427.792 461.847 426.543 462.358 426.338C463.709 425.794 465.151 426.658 465.151 428.011C465.151 428.971 464.263 429.976 463.414 429.976C462.664 429.976 461.684 429.189 461.495 428.435Z" fill="white"/>
<path d="M461.117 417.77C462.622 418.468 464.276 419.974 464.934 421.245C465.184 421.73 465.389 422.183 465.389 422.254C465.389 422.324 463.527 422.382 461.251 422.382H457.113L457.552 420.78C457.794 419.899 458.111 418.725 458.258 418.17C458.489 417.296 458.611 417.162 459.169 417.164C459.522 417.165 460.399 417.438 461.117 417.77Z" fill="white"/>
<path fill-rule="evenodd" clip-rule="evenodd" d="M21.4929 13.2036L23.1427 16.1106L25.0525 16.1239C27.249 16.1393 28.4237 16.4775 28.9235 17.2378C29.2524 17.7383 29.2403 17.7718 28.7303 17.7718C28.4308 17.7718 27.9909 17.9486 27.7521 18.1645C26.9118 18.9249 27.367 19.9076 28.5595 19.9076C28.9688 19.9076 29.2911 20.0627 29.3839 20.3048C29.4676 20.5231 29.7313 20.8969 29.9698 21.1354C30.5785 21.7441 30.5301 22.8767 29.8756 23.335C29.1197 23.8644 28.8205 23.7947 28.6622 23.0519C28.3074 21.3874 26.5644 19.918 24.945 19.918C23.3451 19.918 21.5506 21.3957 21.2352 22.9726L21.0888 23.7045H18.1521C15.227 23.7045 15.2154 23.7023 15.2154 23.1463C15.2154 21.8229 13.0825 19.9204 11.5888 19.9113C9.94929 19.9019 7.85883 21.6333 7.85883 23.0009C7.85883 23.6119 7.77222 23.7045 7.19984 23.7045C6.159 23.7045 5.48575 23.0955 5.48575 22.1539C5.48575 21.5502 5.63763 21.2429 6.07902 20.9536C6.62507 20.5957 6.67277 20.4209 6.67799 18.7531C6.68107 17.7566 6.78762 16.514 6.91482 15.992C7.04225 15.4699 7.35811 14.0947 7.61725 12.9359C7.87639 11.7774 8.21147 10.6808 8.36216 10.4995C8.58452 10.2313 9.68706 10.1815 14.2393 10.233L19.8429 10.2966L21.4929 13.2036ZM8.83156 14.0463C9.07978 12.9108 9.28268 11.8963 9.28268 11.7919C9.28268 11.6872 10.0836 11.6018 11.0625 11.6018H12.8423V13.8562V16.1106H10.6114H8.38044L8.83156 14.0463ZM14.2662 16.1106V13.8562V11.6018H16.6098H18.9532L20.1694 13.7088C20.8382 14.8676 21.3854 15.8821 21.3854 15.9633C21.3854 16.0442 19.7836 16.1106 17.8258 16.1106H14.2662ZM14.9781 18.2815C14.9781 18.0447 15.0493 17.7796 15.1364 17.6928C15.3763 17.4528 17.4209 17.5105 17.8258 17.7687C18.382 18.1232 17.803 18.8254 16.8791 18.9165C15.7294 19.0297 14.9781 18.7787 14.9781 18.2815Z" fill="white"/>
<path fill-rule="evenodd" clip-rule="evenodd" d="M29.2759 5.16432L34.2 10.055V17.3577C34.2 21.3741 34.102 24.8457 33.9824 25.0723C32.3799 28.1051 32.2216 29.1113 33.1293 30.4967C33.859 31.6104 34.9599 31.8745 37.4993 31.5451C38.7264 31.3859 39.8667 31.2034 40.0331 31.1396C40.24 31.0601 40.2946 31.1795 40.2063 31.5169C40.0786 32.0053 39.9887 32.0103 31.3307 32.0103H22.584L22.1868 31.239C21.4632 29.8339 20.6894 29.0093 19.4734 28.3474C16.4392 26.696 12.3392 28.099 11.0233 31.239L10.7001 32.0103H8.22001C5.24298 32.0103 5.24845 32.0155 5.24845 29.1049C5.24845 26.3049 5.33838 26.2162 8.27483 26.1158L10.628 26.0356L9.95546 25.3628C9.44287 24.8505 9.28268 24.4662 9.28268 23.7491C9.28268 22.1245 10.6315 21.1684 12.2977 21.6117C13.9052 22.0395 14.3492 24.1326 13.0979 25.3839L12.4042 26.0776L18.2593 26.0723C23.8444 26.0674 24.0912 26.0481 23.6083 25.6571C22.4305 24.7031 22.266 23.3927 23.1863 22.2989C23.7131 21.6727 23.9609 21.5687 24.9248 21.5687C25.7846 21.5687 26.166 21.6942 26.5473 22.1027C27.6081 23.2391 27.4144 25.0389 26.1581 25.7216C25.5959 26.0273 25.8309 26.0595 28.6826 26.0681L31.8269 26.0776V18.5404V11.0033L27.7927 6.97426L23.7585 2.94524V3.9792C23.7585 4.79744 23.9123 5.18827 24.4956 5.85249C25.1185 6.56205 25.2113 6.82382 25.0959 7.54499C24.922 8.63187 24.1937 9.22869 23.0413 9.22869C22.3256 9.22869 22.0126 9.07799 21.5252 8.49848C20.8716 7.72178 20.8284 7.58368 21.0548 6.99373C21.2826 6.40022 21.8149 6.5547 22.216 7.33022C22.6151 8.10195 23.2841 8.25785 23.7559 7.68926C24.1498 7.21464 23.9018 6.66102 23.1714 6.38337C22.5762 6.15697 22.5719 6.13562 22.5719 3.29434C22.5719 0.543935 22.5926 0.425271 23.1059 0.234475C23.3994 0.125313 23.8 0.0894655 23.9958 0.154725C24.1916 0.220222 26.5675 2.47444 29.2759 5.16432ZM11.1458 24.6347C10.5238 24.302 10.3764 23.8469 10.6966 23.2484C11.0834 22.5258 12.0694 22.5988 12.4235 23.3763C12.6731 23.924 12.6418 24.05 12.1591 24.4409C11.7341 24.7852 11.5077 24.8284 11.1458 24.6347ZM24.0368 23.9881C23.9944 23.6871 24.0874 23.2868 24.244 23.0981C24.4004 22.9095 24.716 22.7552 24.945 22.7552C25.5202 22.7552 25.946 23.3331 25.8532 23.9881C25.7891 24.4401 25.6315 24.5351 24.945 24.5351C24.2585 24.5351 24.1009 24.4401 24.0368 23.9881Z" fill="white"/>
<path fill-rule="evenodd" clip-rule="evenodd" d="M18.6988 30.6154C19.7484 31.2604 20.532 32.9479 20.364 34.2011C20.1205 36.0156 18.4974 37.4683 16.7133 37.4683C13.0701 37.4683 11.4367 32.9263 14.3003 30.7578C15.6017 29.7722 17.2408 29.7193 18.6988 30.6154ZM16.6891 35.2872C14.9031 35.4657 14.3283 32.9237 16.0021 32.2492C16.2873 32.1344 16.5526 32.0335 16.5918 32.0252C16.6307 32.0171 16.9653 32.1666 17.335 32.3579C18.752 33.0907 18.3032 35.1259 16.6891 35.2872Z" fill="white"/>
<path d="M54.6038 22.2218C55.058 22.4498 55.6721 22.9994 55.9683 23.443C56.4937 24.2292 56.507 24.4015 56.507 30.3788V36.5082L55.8864 36.9147C55.3297 37.2794 55.2013 37.2854 54.6406 36.9707L54.0153 36.6202L53.8966 30.8344C53.8078 26.5031 53.7034 25.0239 53.4813 24.9501C53.2466 24.872 53.184 27.4421 53.1811 37.2707C53.1773 50.6556 53.1771 50.6589 51.9333 51.0962C51.4136 51.279 51.1559 51.2277 50.6331 50.8376L49.981 50.3509L49.8624 43.0228C49.7532 36.287 49.7102 35.6883 49.3284 35.615C48.9402 35.5402 48.9131 36.0089 48.9131 42.8011V50.0673L48.3305 50.6496C48.0102 50.97 47.5249 51.2322 47.252 51.2322C46.9791 51.2322 46.4938 50.97 46.1734 50.6496L45.5908 50.0673V37.479C45.5908 30.5556 45.4992 24.891 45.3872 24.891C45.275 24.891 44.3941 25.8016 43.4294 26.9145C42.4645 28.0275 41.4272 29.0022 41.124 29.0805C39.4875 29.5029 35.6777 30.0195 35.2679 29.8743C34.1872 29.4917 34.0987 27.7162 35.1438 27.3844C35.4326 27.2928 35.5126 27.0655 35.4369 26.5493C35.3536 25.9829 35.42 25.8403 35.766 25.8403C36.0043 25.8403 36.417 26.1105 36.6827 26.4409C37.1595 27.033 37.1866 27.037 38.6023 26.7375C39.979 26.4461 40.1095 26.3526 41.7597 24.4757C42.7066 23.3991 43.502 22.5163 43.5274 22.5144C43.5528 22.5125 44.0009 22.3568 44.5229 22.1689C45.208 21.9221 46.6281 21.8241 49.6251 21.8167C53.1194 21.8084 53.9089 21.8725 54.6038 22.2218Z" fill="white"/>
<path d="M44.0405 11.9392C45.1485 12.4022 46.4518 14.6035 45.9475 15.1604C45.7629 15.3645 45.4629 15.8854 45.2811 16.3183L44.9503 17.1049L44.0305 15.5328L43.1107 13.9604L40.4944 14.0268L37.8783 14.0935V17.7718V21.4501L39.8423 21.5191L41.806 21.5882L40.4569 23.228C39.7148 24.13 38.8845 24.9005 38.6118 24.9402C38.3389 24.98 37.7537 24.7717 37.3111 24.4772C36.8688 24.1827 36.2549 23.9418 35.9466 23.9418H35.3866V18.3544V12.7667L35.9692 12.1844C36.5323 11.621 36.6616 11.6018 39.8923 11.6018C42.2433 11.6018 43.4721 11.7017 44.0405 11.9392Z" fill="white"/>
<path d="M51.464 15.9739C53.4353 18.1249 51.4011 21.3744 48.5724 20.5934C46.817 20.1088 46.0165 18.0487 46.9114 16.3183C47.7441 14.7079 50.1381 14.5268 51.464 15.9739Z" fill="white"/>
<path d="M43.6848 33.8494L43.6774 36.8751L43.0998 36.2187C42.287 35.2953 41.9787 33.9998 42.2972 32.8463C42.5594 31.8968 43.195 30.8446 43.5144 30.8311C43.6124 30.827 43.689 32.1852 43.6848 33.8494Z" fill="white"/>
<path fill-rule="evenodd" clip-rule="evenodd" d="M169.616 1.34341C170.635 2.16877 170.652 2.36668 170.651 13.0693L170.65 23.3485L170.117 24.0132C169.795 24.4152 169.209 24.7645 168.635 24.8974C168.113 25.0182 163.201 25.1169 157.719 25.1169C152.237 25.1169 147.325 25.0182 146.803 24.8974C146.228 24.7645 145.643 24.4152 145.321 24.0132L144.788 23.3485L144.787 13.0693C144.786 2.36668 144.803 2.16877 145.822 1.34341C146.286 0.967751 147.28 0.933334 157.719 0.933334C168.158 0.933334 169.152 0.967751 169.616 1.34341ZM148.573 7.9712C147.648 6.45528 148.215 4.48157 149.798 3.70177C150.491 3.36029 151.565 3.30594 157.723 3.30143C164.174 3.29645 164.922 3.33681 165.654 3.72955C167.745 4.85131 167.846 7.77495 165.835 9.00088C165.125 9.43397 164.597 9.46433 157.766 9.46504C149.688 9.46599 149.462 9.42946 148.573 7.9712ZM146.781 23.2121C146.355 22.858 146.315 19.66 146.731 19.2431C147.422 18.5525 148.057 19.0634 148.151 20.386L148.227 21.4501L149.37 21.5815C150.675 21.7313 151.092 22.1615 150.622 22.8725C150.368 23.2562 149.997 23.3623 148.711 23.4192C147.74 23.4622 146.985 23.3813 146.781 23.2121Z" fill="white"/>
<path d="M161.152 36.4598C161.147 43.6972 161.072 46.2203 160.856 46.4889C160.697 46.6861 159.953 47.3662 159.203 48.0001C157.916 49.0877 157.81 49.1325 157.305 48.8005C156.392 48.1999 154.278 46.2177 154.278 45.9618C154.278 45.8282 154.652 45.2098 155.108 44.5876C156.092 43.247 156.149 42.5548 155.346 41.6884C155.019 41.3367 154.753 40.985 154.753 40.9072C154.753 40.8291 155.019 40.3725 155.346 39.8924C156.1 38.7818 156.094 38.1637 155.319 37.2422L154.699 36.5051L155.319 35.568C156.138 34.3306 156.102 33.8532 155.108 32.7535L154.278 31.8342V29.3118V26.7895H157.719H161.16L161.152 36.4598Z" fill="white"/>
<path d="M179.386 18.674C179.789 19.0774 182.67 29.089 182.447 29.3121C182.393 29.3657 180.068 29.3807 177.279 29.3453L172.208 29.2812L174.99 26.4713C176.52 24.9257 177.771 23.5322 177.771 23.3744C177.771 22.9636 177.269 22.5179 176.806 22.5179C176.588 22.5179 174.843 24.0664 172.927 25.9589L169.444 29.3999H166.251H163.058V28.1122V26.8246L166.459 26.7477C169.789 26.6725 169.879 26.6563 170.757 25.9864C172.153 24.92 172.539 23.8006 172.545 20.7975L172.551 18.2464H175.754C178.524 18.2464 179.016 18.3043 179.386 18.674Z" fill="white"/>
<path fill-rule="evenodd" clip-rule="evenodd" d="M185.508 32.1052C186.938 33.5354 186.741 33.6714 183.245 33.6714C181.557 33.6714 179.896 33.7775 179.555 33.9073C179.117 34.0737 178.723 34.596 178.217 35.6772C177.568 37.0621 177.529 37.2749 177.813 37.8668C178.336 38.9577 178.989 39.1221 182.814 39.1259L186.314 39.1295V41.3365C186.314 42.7366 186.21 43.6476 186.03 43.8282C185.816 44.0418 182.908 44.113 174.402 44.113H163.058V37.7057V31.2983H173.88H184.701L185.508 32.1052ZM168.042 34.6033C168.042 34.3648 168.229 34.0608 168.457 33.9277C168.958 33.6358 172.54 33.5971 172.985 33.8788C173.164 33.9925 173.267 34.3753 173.222 34.7652L173.144 35.4512L170.925 35.5198C168.607 35.5915 168.042 35.4118 168.042 34.6033ZM164.588 40.6853C164.375 39.5526 164.644 38.2562 165.207 37.6924C165.635 37.2645 166.033 37.231 170.696 37.231C175.531 37.231 175.745 37.2507 176.273 37.7469C176.743 38.1886 176.822 38.4964 176.822 39.8827C176.822 42.4914 176.915 42.4518 170.771 42.4518C165.044 42.4518 164.912 42.4139 164.588 40.6853Z" fill="white"/>
<path d="M174.924 39.8414V40.5534H170.652H166.381V39.8414V39.1295H170.652H174.924V39.8414Z" fill="white"/>
<path d="M186.314 36.4005V37.231H182.992C180.86 37.231 179.67 37.143 179.67 36.9854C179.67 36.8502 179.842 36.4764 180.053 36.1548C180.426 35.5853 180.513 35.5699 183.375 35.5699H186.314V36.4005Z" fill="white"/>
<path d="M188.466 27.0351C188.992 27.3168 189.104 28.6514 188.64 29.1151C188.467 29.2879 187.628 29.3999 186.504 29.3999H184.653V28.3439C184.653 27.5883 184.772 27.2188 185.069 27.0458C185.613 26.7287 187.88 26.7216 188.466 27.0351Z" fill="white"/>
<path d="M184.653 47.2136C184.653 49.0974 184.43 49.3338 182.647 49.3338C180.425 49.3338 180.382 49.2996 180.382 47.5285V46.0114H182.518H184.653V47.2136Z" fill="white"/>
<path fill-rule="evenodd" clip-rule="evenodd" d="M313.322 8.54857C316.922 9.31911 320.36 12.1609 322.853 16.4262C323.361 17.2945 324.215 18.337 324.766 18.7597C325.965 19.68 327.111 21.1572 327.48 22.2567C327.638 22.7275 327.75 24.6568 327.75 26.8908C327.75 30.4246 327.786 30.7494 328.225 31.1246C328.64 31.4799 328.699 31.8247 328.699 33.861C328.699 35.5423 328.602 36.3193 328.351 36.6518C328.106 36.9759 328 37.7489 327.995 39.26C327.99 40.6044 327.881 41.5142 327.703 41.6924C327.343 42.0524 321.514 42.0856 320.853 41.7316C320.449 41.5154 320.394 41.2178 320.394 39.2631V37.0403L319.622 36.7609C318.43 36.3295 316.417 35.8134 314.461 35.4375C313.08 35.1722 310.364 35.0953 302.347 35.0953C292.759 35.0953 291.844 35.1311 289.667 35.5929C288.376 35.8665 286.726 36.2709 285.999 36.4916L284.679 36.8926L284.56 39.2071C284.473 40.9088 284.347 41.5807 284.085 41.7456C283.546 42.0857 277.598 42.0394 277.251 41.6924C277.071 41.5123 276.966 40.6072 276.966 39.2296C276.966 37.5834 276.879 36.9797 276.61 36.7564C276.334 36.5269 276.254 35.8848 276.254 33.8817C276.254 31.5594 276.301 31.2727 276.729 31.006C277.173 30.7283 277.203 30.4526 277.203 26.6604C277.203 22.7766 277.229 22.5607 277.82 21.3746C278.16 20.6919 278.913 19.7412 279.501 19.2516C281.013 17.9922 281.098 17.8909 282.67 15.4796C285.06 11.8132 288.104 9.38841 291.287 8.61644C292.932 8.21729 311.507 8.1601 313.322 8.54857ZM289.115 13.5904C290.436 12.3754 291.197 11.8716 292.334 11.4608C293.034 11.2078 295.228 11.1511 302.714 11.1929L312.206 11.2458L313.373 11.8246C314.808 12.536 316.892 14.5541 318.214 16.5128C318.76 17.3214 319.207 18.0423 319.207 18.1147C319.207 18.1871 311.678 18.2464 302.477 18.2464C293.275 18.2464 285.747 18.1565 285.747 18.0463C285.747 17.6339 288.092 14.5313 289.115 13.5904ZM281 28.448C281 27.4155 281.107 27.1208 281.694 26.5339C282.076 26.1523 282.492 25.8403 282.619 25.8403C282.746 25.8403 284.223 26.3303 285.9 26.9293C287.578 27.5285 289.395 28.1761 289.939 28.369C291.016 28.7504 291.28 29.1338 291.063 29.9995C290.78 31.127 290.113 31.2991 286.052 31.2907C283.482 31.2855 282.187 31.1925 281.929 30.9941C281.286 30.5008 281 29.7167 281 28.448ZM313.793 29.4547C313.873 28.7627 313.611 28.8871 319.919 26.547C322.113 25.7328 322.312 25.7192 323.091 26.3322C323.665 26.7838 323.716 26.9665 323.716 28.5693C323.716 30.1721 323.665 30.3548 323.091 30.8064C322.517 31.2573 322.15 31.2983 318.69 31.2983C314.971 31.2983 314.905 31.2893 314.316 30.7005C313.906 30.2907 313.742 29.8989 313.793 29.4547ZM296.47 30.2606C296.43 29.6246 296.453 28.957 296.522 28.7774C296.624 28.5123 297.741 28.4506 302.444 28.4506C308.882 28.4506 308.528 28.3545 308.528 30.1021C308.528 30.5976 308.381 31.1246 308.202 31.2737C307.973 31.4637 306.19 31.5254 302.21 31.4806L296.544 31.417L296.47 30.2606Z" fill="white"/>
<path d="M446.273 1.9018C453.766 3.77891 459.369 10.317 460.168 18.1182C460.551 21.849 459.639 26.204 457.891 28.9995L457.046 30.3491H453.971C451.005 30.3491 450.905 30.333 451.142 29.8902C451.277 29.6377 451.388 28.9969 451.388 28.4663C451.388 27.9357 451.487 27.5014 451.608 27.5014C451.729 27.5014 451.996 27.3336 452.201 27.1286C452.501 26.8282 452.574 26.1616 452.574 23.7031C452.574 20.3003 452.421 19.6828 451.282 18.4837C450.665 17.8335 450.33 17.0864 449.739 15.0427C448.792 11.7648 448.621 11.6018 446.145 11.6018C444.346 11.6018 444.272 11.5797 444.127 11.0031C443.887 10.0446 443.159 9.7033 441.357 9.7033C439.954 9.7033 439.66 9.78113 439.156 10.2859C438.835 10.6063 438.573 11.0334 438.573 11.2351C438.573 11.5348 438.231 11.6018 436.701 11.6018C434.165 11.6018 434.015 11.7484 432.977 15.2554C432.394 17.2234 431.947 18.2834 431.502 18.7549C430.535 19.7789 430.305 20.7175 430.285 23.7109C430.266 26.5382 430.537 27.5014 431.349 27.5014C431.595 27.5014 431.691 27.7945 431.691 28.5498C431.691 29.1265 431.756 29.7672 431.835 29.9737C431.962 30.304 431.612 30.3491 428.919 30.3491H425.859L425.084 29.0712C423.357 26.2207 422.539 22.7322 422.745 19.0867C422.914 16.084 423.352 14.4124 424.675 11.7204C428.61 3.71673 437.459 -0.306113 446.273 1.9018Z" fill="white"/>
<path d="M454.878 33.5093C454.812 33.6812 453.502 35.737 451.968 38.0775C450.433 40.4181 448.29 43.6865 447.205 45.3406C446.121 46.9948 444.881 48.6173 444.449 48.9465C443.464 49.698 441.835 50.0675 440.559 49.8288C438.672 49.4752 438.081 48.8743 434.991 44.1678C433.386 41.723 431.371 38.6549 430.511 37.3497C429.652 36.0445 428.703 34.5763 428.402 34.0867L427.855 33.1968H441.427C452.554 33.1968 454.976 33.253 454.878 33.5093Z" fill="white"/>
<path d="M448.303 28.585C448.303 29.0503 448.413 29.6377 448.548 29.8902C448.789 30.3392 448.639 30.3491 441.607 30.3493L434.42 30.3498L434.501 29.0441L434.583 27.7387H441.443H448.303V28.585Z" fill="white"/>
<path fill-rule="evenodd" clip-rule="evenodd" d="M449.357 20.9097C449.603 21.2609 449.726 21.9738 449.726 23.0455V24.6537H441.539H433.352V22.8027C433.352 21.6795 433.464 20.8397 433.637 20.6669C433.846 20.4574 435.912 20.3822 441.455 20.3822C448.97 20.3822 448.988 20.3834 449.357 20.9097ZM434.434 23.4142C433.956 22.7332 433.965 22.072 434.457 21.5281C434.963 20.9693 436.591 20.9448 437.19 21.4868C437.73 21.9759 437.75 22.9347 437.231 23.5078C436.64 24.1611 434.916 24.1034 434.434 23.4142ZM447.071 23.9418C445.478 23.9418 444.685 22.5763 445.692 21.5687C446.251 21.0103 447.746 20.9266 448.416 21.4164C448.69 21.6174 448.856 22.0326 448.856 22.5179C448.856 23.4859 448.285 23.9418 447.071 23.9418Z" fill="white"/>
<path d="M446.935 15.9326C447.13 16.618 447.244 17.2587 447.188 17.3565C447.07 17.5656 435.488 17.6016 435.488 17.393C435.488 17.3152 435.656 16.6745 435.861 15.9692L436.234 14.6868H441.407H446.581L446.935 15.9326Z" fill="white"/>
<path fill-rule="evenodd" clip-rule="evenodd" d="M22.8396 149.102C23.9524 149.57 24.7689 150.522 25.605 152.325C25.9982 153.174 27.0383 155.363 27.9161 157.19C30.2657 162.082 30.1658 161.617 30.1658 167.653C30.1658 173.804 30.325 173.446 27.5905 173.446C25.2331 173.446 25.1823 173.41 25.1823 171.759V170.361H15.2154H5.24845V171.531C5.24845 173.203 4.91788 173.446 2.63806 173.446C-0.150312 173.446 -0.0252467 173.751 0.0682527 167.181L0.146322 161.699L2.84856 156.076C5.49051 150.579 6.17798 149.511 7.38422 149.032C7.72713 148.895 10.9443 148.79 15.0084 148.781C20.5698 148.769 22.2067 148.836 22.8396 149.102ZM4.29921 159.927C4.29921 159.372 7.69342 152.866 8.23425 152.385C8.82443 151.86 8.9393 151.851 15.078 151.851C22.2817 151.851 22.0567 151.787 23.1873 154.171C24.8086 157.59 25.8942 159.947 25.8942 160.047C25.8942 160.107 21.0354 160.157 15.0967 160.157C8.30853 160.157 4.29921 160.071 4.29921 159.927ZM3.87538 167.144C2.3222 166.495 2.06021 164.241 3.41571 163.188C4.2648 162.528 5.75131 162.64 6.48862 163.42C8.30071 165.336 6.31633 168.164 3.87538 167.144ZM24.5881 167.276C22.986 166.747 22.4979 164.671 23.6842 163.433C24.8662 162.199 27.0196 162.686 27.5552 164.309C28.1522 166.118 26.3973 167.873 24.5881 167.276Z" fill="white"/>
<path fill-rule="evenodd" clip-rule="evenodd" d="M43.1375 145.342C52.4127 147.708 52.2917 147.663 53.1291 149.05C53.5682 149.778 55.7951 160.658 55.7951 162.075C55.7951 163.09 53.104 172.78 52.7884 172.901C52.3218 173.08 48.9641 172.276 48.5821 171.894C48.2964 171.609 48.2995 171.39 48.6039 170.351C48.799 169.685 48.9217 169.106 48.8766 169.063C48.8315 169.021 44.8817 167.946 40.0998 166.675L31.4048 164.366L31.2868 162.914C31.1926 161.752 31.2448 161.414 31.5481 161.225C33.2254 160.175 33.6276 158.998 32.7826 157.612C32.1542 156.581 31.0638 156.341 29.681 156.929C29.404 157.047 29.12 156.682 28.5167 155.436L27.7191 153.787L28.3836 152.997C35.2852 144.792 35.678 144.419 37.7981 144.047C37.8842 144.032 40.287 144.615 43.1375 145.342ZM31.5896 154.01C31.5896 153.76 36.5271 148.113 37.0921 147.717C37.3868 147.511 37.8978 147.342 38.2279 147.343C38.8489 147.343 48.7809 149.983 49.9051 150.446C50.7895 150.81 51.183 151.784 51.7713 155.066C52.4849 159.046 52.5627 159.682 52.3361 159.682C52.1291 159.682 46.5099 158.21 44.6416 157.666C44.0542 157.495 40.8774 156.636 37.5817 155.756C34.2859 154.876 31.5896 154.09 31.5896 154.01ZM48.4449 165.041C48.0261 163.772 48.7688 162.295 49.981 161.985C52.2286 161.411 53.8836 164.24 52.2537 165.87C50.9908 167.133 48.9919 166.698 48.4449 165.041Z" fill="white"/>
<path d="M23.0064 142.429C23.3242 142.812 26.0865 149.278 25.8126 148.998C25.3639 148.539 21.3854 143.188 21.3854 143.043C21.3854 142.847 22.3377 142.121 22.5957 142.121C22.6811 142.121 22.866 142.26 23.0064 142.429Z" fill="white"/>
<path d="M28.9097 138.723C29.0922 139.199 27.9899 148.596 27.7808 148.346C27.5502 148.069 26.535 139.089 26.6892 138.688C26.8916 138.16 28.7049 138.189 28.9097 138.723Z" fill="white"/>
<path d="M33.7411 141.892C33.9936 142.027 34.2 142.269 34.2 142.429C34.2 142.64 30.3955 147.893 29.8167 148.481C29.778 148.52 30.3927 146.998 31.1822 145.099C32.6283 141.621 32.8096 141.394 33.7411 141.892Z" fill="white"/>
<path fill-rule="evenodd" clip-rule="evenodd" d="M305.443 266.352C305.443 264.889 305.359 264.488 304.969 264.098C304.569 263.698 304.178 263.623 302.503 263.623C299.776 263.623 299.484 263.87 299.328 266.31L299.211 268.132H297.859C296.055 268.132 295.476 268.697 295.476 270.461C295.476 271.522 295.413 271.691 295.014 271.691C294.759 271.691 294.264 272.067 293.914 272.526L293.278 273.361L292.49 272.76C291.402 271.93 290.726 271.718 289.99 271.974C289.486 272.15 289.193 272.075 288.472 271.586C287.45 270.892 286.73 270.827 285.742 271.338C284.9 271.773 283.848 273.259 283.848 274.013C283.848 274.763 284.463 275.894 285.038 276.202C285.432 276.413 285.487 276.611 285.365 277.372C285.232 278.208 285.306 278.383 286.207 279.361L287.196 280.434L286.353 281.539C285.889 282.147 285.509 282.807 285.509 283.006C285.509 283.205 285.941 284.29 286.469 285.417C287.164 286.898 287.344 287.493 287.122 287.566C286.45 287.787 285.272 289.221 285.272 289.818C285.272 290.314 285.048 290.544 284.094 291.028C282.8 291.683 282.424 292.183 282.424 293.247C282.424 294.158 286.034 301.707 286.568 301.912C287.243 302.171 288.325 302.087 289.244 301.702C289.945 301.41 290.248 301.393 290.788 301.616C291.178 301.778 291.986 301.84 292.72 301.764L293.981 301.634L295.182 304.164C296.071 306.036 296.41 307.049 296.483 308.055C296.595 309.587 297.046 310.263 298.111 310.497C298.775 310.642 298.798 310.696 298.798 312.053C298.798 314.215 299.094 314.407 302.435 314.407C304.938 314.407 305.159 314.369 305.639 313.858C306.042 313.428 306.155 313.017 306.155 311.978C306.155 310.66 306.164 310.644 307.009 310.365C307.988 310.042 308.53 309.052 308.526 307.592C308.524 307.008 308.952 305.765 309.75 304.036C310.818 301.72 311.03 301.407 311.398 301.604C311.99 301.921 313.667 301.885 314.215 301.543C314.586 301.311 314.837 301.333 315.525 301.661C316.749 302.245 318.063 302.191 318.655 301.533C319.263 300.856 322.529 293.912 322.529 293.295C322.529 292.364 321.979 291.655 320.838 291.113C320.081 290.754 319.682 290.415 319.682 290.134C319.682 289.383 318.987 288.324 318.242 287.939C317.408 287.508 317.417 287.446 318.643 284.886C319.084 283.967 319.444 283.086 319.444 282.929C319.444 282.772 319.071 282.154 318.614 281.556C318.157 280.957 317.783 280.412 317.783 280.344C317.783 280.276 318.157 279.892 318.614 279.491C319.342 278.851 319.444 278.624 319.444 277.644C319.444 276.712 319.562 276.413 320.156 275.844C321.096 274.944 321.141 273.577 320.269 272.395C319.15 270.879 317.931 270.602 316.539 271.547C315.861 272.007 315.499 272.091 314.619 271.992C313.669 271.885 313.422 271.96 312.607 272.605L311.679 273.341L310.928 272.516C310.515 272.063 310.033 271.691 309.857 271.691C309.638 271.691 309.501 271.263 309.425 270.347C309.277 268.571 308.766 268.132 306.841 268.132H305.443V266.352ZM300.697 266.589V268.132H302.358H304.019V266.589V265.047H302.358H300.697V266.589ZM296.9 270.505V271.454H302.477H308.053V270.505V269.556H302.477H296.9V270.505ZM285.854 273.031C285.534 273.377 285.272 273.839 285.272 274.058C285.272 274.423 286.19 275.488 286.505 275.488C286.578 275.488 287.043 274.995 287.537 274.392L288.436 273.295L287.862 272.855C287.072 272.247 286.537 272.295 285.854 273.031ZM317.056 272.843L316.514 273.282L317.004 273.97C317.274 274.348 317.721 274.862 317.997 275.112C318.494 275.561 318.507 275.56 319.091 275.011C319.834 274.313 319.831 274.041 319.067 273.134C318.362 272.296 317.827 272.219 317.056 272.843ZM289.898 273.766C288.735 275 286.696 277.558 286.696 277.784C286.696 277.908 287.023 278.324 287.424 278.707L288.152 279.404L288.789 278.649C291.593 275.32 292.129 274.704 291.993 274.33C291.957 274.231 291.874 274.148 291.773 274.037C290.932 273.108 290.568 273.055 289.898 273.766ZM291.419 277.683C289.3 280.196 287.413 282.432 287.227 282.652C286.857 283.087 287.021 283.494 290.59 290.999C291.45 292.807 292.154 294.379 292.154 294.491C292.154 294.602 291.951 294.802 291.704 294.934C291.108 295.254 291.032 295.148 289.38 291.701C288.089 289.009 287.967 288.838 287.465 289.032C287.17 289.145 286.813 289.493 286.672 289.804C286.447 290.296 286.715 291.007 288.741 295.297C291.195 300.494 291.494 300.882 292.684 300.43L293.32 300.188L292.6 298.602C291.985 297.245 291.929 296.969 292.213 296.685C292.628 296.27 293.274 296.5 293.475 297.134C293.559 297.399 294.466 299.364 295.49 301.502L297.352 305.389H302.472H307.592L308.559 303.313C309.091 302.171 310.862 298.354 312.494 294.831C314.127 291.308 316.04 287.206 316.745 285.717C317.843 283.397 317.982 282.954 317.71 282.63C317.536 282.422 315.644 280.196 313.507 277.683L309.622 273.115H302.447H295.272L291.419 277.683ZM316.148 290.253C315.77 291.073 314.59 293.61 313.525 295.892C311.741 299.716 311.622 300.063 312.003 300.341C313.126 301.162 313.744 300.397 316.251 295.083C318.591 290.122 318.665 289.725 317.369 289.043C316.865 288.778 316.797 288.845 316.148 290.253ZM284.645 292.319C284.235 292.569 283.84 292.87 283.767 292.988C283.619 293.228 286.788 300.107 287.278 300.608C287.541 300.877 287.731 300.862 288.46 300.516C288.938 300.289 289.297 299.965 289.258 299.795C289.14 299.279 285.636 291.869 285.509 291.867C285.444 291.865 285.055 292.069 284.645 292.319ZM317.464 295.704C316.465 297.802 315.647 299.666 315.647 299.847C315.647 300.028 316.023 300.355 316.483 300.574C317.21 300.921 317.359 300.928 317.636 300.63C318.051 300.182 321.105 293.609 321.105 293.164C321.105 292.976 320.695 292.612 320.193 292.356L319.281 291.891L317.464 295.704ZM297.947 306.902C297.876 307.086 297.851 307.649 297.893 308.153L297.968 309.067L302.208 309.132C305.217 309.179 306.548 309.115 306.788 308.916C307.007 308.734 307.103 308.289 307.057 307.664L306.986 306.694L302.531 306.63C298.863 306.577 298.053 306.625 297.947 306.902ZM300.031 311.737L300.104 312.864L302.417 312.932L304.731 313V311.805V310.61H302.345H299.959L300.031 311.737ZM312.875 274.756C312.602 274.431 312.677 274.296 313.432 273.759C313.912 273.417 314.398 273.195 314.512 273.265C314.996 273.565 318.268 277.712 318.194 277.934C318.15 278.067 317.79 278.426 317.396 278.73L316.678 279.283L314.935 277.208L314.408 276.58C313.657 275.687 313.017 274.924 312.875 274.756Z" fill="white"/>
</svg>
