<svg width="115" height="95" viewBox="0 0 115 95" fill="none" xmlns="http://www.w3.org/2000/svg">
<path fill-rule="evenodd" clip-rule="evenodd" d="M86.0196 1.20811C89.8944 3.00187 91.1637 5.18372 95.9713 18.3158L97.0116 21.1581L103.143 21.4165C107.932 21.6181 109.581 21.8822 110.671 22.6222C112.259 23.7002 114.19 27.3275 114.173 29.2024C114.156 31.1408 112.351 34.6758 110.891 35.6329L109.578 36.4934L111.329 39.0385C113.92 42.8054 114.3 45.4223 114.101 58.1083C113.929 69.0694 113.906 69.259 112.477 72.169C110.433 76.3333 106.951 78.9301 102.298 79.7622L100.49 80.0859L100.211 85.5053C99.8932 91.6747 99.7258 92.1982 97.6804 93.4065C95.6654 94.5972 86.9327 94.6488 84.6795 93.4834C82.5912 92.4034 82.1437 90.9424 82.1437 85.2061V80.3302H57.3379H32.5322V85.7276C32.5322 90.6883 32.4314 91.2428 31.2852 92.575C30.0465 94.0148 29.9938 94.025 23.8032 94.025C17.6818 94.025 17.5428 93.9991 16.1361 92.5945C14.7904 91.2509 14.6876 90.8261 14.4447 85.6247L14.1863 80.0859L12.3775 79.7622C7.74042 78.9332 4.41543 76.4543 2.27542 72.2301L0.749848 69.2192L0.575168 58.1083C0.375172 45.3954 0.749844 42.8435 3.3529 39.1821L5.13219 36.6799L3.64696 35.5176C2.10642 34.312 0.491455 31.008 0.491455 29.0623C0.491455 27.2965 2.47489 23.6604 4.00509 22.6222C5.09758 21.8806 6.74458 21.6186 11.5832 21.4165L17.7661 21.1581L20.7779 13.1538C23.9944 4.60612 25.1716 2.82151 28.6563 1.20811C30.5839 0.315618 32.5214 0.250977 57.3379 0.250977C82.1545 0.250977 84.092 0.315618 86.0196 1.20811ZM22.9934 19.1349C27.7788 6.55733 28.0543 6.01534 30.1111 5.11199C31.4625 4.51769 36.4406 4.40903 57.9467 4.50463C83.6258 4.61884 84.1643 4.64224 85.5948 5.70321C86.7741 6.57813 87.9601 9.14966 91.7926 19.1397C94.3993 25.9344 96.5501 31.9005 96.5729 32.3982C96.6091 33.2018 96.0401 33.3026 91.4701 33.3026H86.3266L85.2439 30.8479C84.6486 29.4975 83.2496 27.4619 82.1359 26.3235L80.1101 24.2538L80.8347 22.1508C82.9473 16.0191 76.4487 9.94196 70.8777 12.8406C67.2938 14.7052 65.6143 19.243 67.1424 22.9323C67.7414 24.3783 67.6716 24.551 65.8303 26.1675C64.7611 27.1065 63.3456 29.096 62.6857 30.5885L61.4852 33.3026H57.3684H53.2522L52.1696 30.8479C51.5742 29.4975 50.1458 27.4316 48.995 26.2559C47.1991 24.4213 46.9831 23.9685 47.4694 23.06C47.781 22.4775 48.0358 20.8409 48.0358 19.4228C48.0358 16.5604 46.5816 14.2757 43.8659 12.8711C37.8293 9.74973 31.5405 16.3548 34.158 23.0673C34.65 24.3298 34.5192 24.6193 32.756 26.1675C31.6867 27.1065 30.2713 29.096 29.6113 30.5885L28.4108 33.3026H23.2368C17.6891 33.3026 17.4736 33.1787 18.5697 30.6139C18.8487 29.9612 20.8394 24.7952 22.9934 19.1349ZM39.3796 22.4342C37.5166 21.397 37.1786 18.8373 38.7031 17.3128C39.9806 16.0353 41.1977 15.964 42.7811 17.0731C44.502 18.2787 44.1826 21.3422 42.2219 22.4342C40.946 23.1448 40.6556 23.1448 39.3796 22.4342ZM72.4539 22.4342C70.5909 21.397 70.2529 18.8373 71.7775 17.3128C73.055 16.0353 74.272 15.964 75.8554 17.0731C77.5763 18.2787 77.257 21.3422 75.2963 22.4342C74.0203 23.1448 73.7299 23.1448 72.4539 22.4342ZM6.04123 31.8469C4.71102 30.5172 4.64899 27.9865 5.9115 26.5912C6.71975 25.6982 7.49961 25.5508 11.4241 25.5508C13.9383 25.5508 15.995 25.632 15.995 25.7307C15.995 25.8294 15.3325 27.5157 14.5232 29.4774L13.0514 33.0442L10.0815 32.9811C7.82311 32.933 6.85569 32.6613 6.04123 31.8469ZM104.824 33.1353C101.535 33.4727 101.737 33.6468 99.9656 28.9404L98.6896 25.5508H103.299C107.663 25.5508 107.965 25.6233 108.979 26.9127C110.355 28.662 110.332 29.818 108.887 31.4913C107.979 32.5435 107.09 32.9032 104.824 33.1353ZM33.3648 32.8784C32.8604 32.0624 35.0898 29.2062 37.0324 28.1814C39.56 26.8471 41.8788 26.8392 44.4591 28.1554C46.4797 29.1864 48.7582 32.035 48.2368 32.8784C48.0926 33.112 44.7464 33.3026 40.8008 33.3026C36.8551 33.3026 33.5089 33.112 33.3648 32.8784ZM66.4473 32.8923C65.9672 32.1151 68.3212 29.1258 70.192 28.1372C72.6364 26.8458 74.9774 26.8516 77.5334 28.1554C79.5541 29.1864 81.8326 32.035 81.3111 32.8784C80.9742 33.4236 66.7843 33.437 66.4473 32.8923ZM5.18439 45.199C5.88567 42.1552 7.8789 39.6199 10.5088 38.4256C12.5336 37.5062 14.7821 37.4596 57.3379 37.4596C99.8937 37.4596 102.142 37.5062 104.167 38.4256C106.666 39.5604 108.69 42.0383 109.48 44.9303C110.215 47.6212 110.215 65.4948 109.48 68.1857C108.717 70.9784 106.791 73.408 104.356 74.6503C102.388 75.6544 101.25 75.6791 57.3379 75.6791C13.4256 75.6791 12.2876 75.6544 10.3197 74.6503C7.75127 73.3403 5.86396 70.8647 5.18439 67.9169C4.89086 66.6435 4.65108 61.5321 4.65108 56.558C4.65108 51.5839 4.89086 46.4724 5.18439 45.199ZM18.8374 89.8907L18.6885 85.1104L18.5402 80.3302H23.4884H28.4367L28.2884 85.1104L28.1395 89.8907H23.4884H18.8374ZM86.5364 89.8907L86.3875 85.1104L86.2392 80.3302H91.1874H96.1357L95.9874 85.1104L95.8385 89.8907H91.1874H86.5364Z" fill="#F26531"/>
<path d="M75.3361 7.87938C75.6746 10.2664 74.7939 10.564 67.3889 10.564C61.8267 10.564 60.3575 10.4091 59.7002 9.75224C58.725 8.77655 58.6666 7.89185 59.5214 7.03709C59.9772 6.58128 62.2603 6.44319 67.6607 6.54603C75.0565 6.68608 75.1697 6.70576 75.3361 7.87938Z" fill="#F26531"/>
<path d="M82.4594 7.7656C82.8806 9.44516 81.6713 10.8115 80.182 10.3392C77.9422 9.6281 78.4967 6.42973 80.86 6.42973C81.7881 6.42973 82.2129 6.78423 82.4594 7.7656Z" fill="#F26531"/>
<path d="M77.1975 51.1686C77.644 51.6156 78.0094 52.2666 78.0094 52.6154C78.0094 54.4015 77.0223 54.4908 57.2527 54.4908C38.4866 54.4908 37.7161 54.4526 37.2014 53.4914C36.5094 52.1984 36.5177 52.1298 37.4784 51.1686C38.1874 50.4601 40.7114 50.3565 57.3379 50.3565C73.9645 50.3565 76.4885 50.4601 77.1975 51.1686Z" fill="#F26531"/>
<path d="M72.5242 59.7879C72.9402 60.4473 72.9402 60.9373 72.5242 61.5967C72.0074 62.4168 70.6199 62.514 57.6031 62.6385C42.839 62.7801 41.8344 62.6587 41.8344 60.7326C41.8344 58.6965 42.561 58.6046 57.5224 58.7467C70.6162 58.8708 72.0069 58.9672 72.5242 59.7879Z" fill="#F26531"/>
<path fill-rule="evenodd" clip-rule="evenodd" d="M96.4592 49.2702C99.993 51.8304 101.119 56.3617 99.2467 60.4851C96.6359 66.2333 89.0733 67.3838 84.6227 62.7094C81.8233 59.7694 81.3473 54.9084 83.5328 51.573C86.1824 47.5287 92.5011 46.4031 96.4592 49.2702ZM89.0629 60.8836C86.1095 59.4919 85.4413 56.0811 87.6159 53.4971C88.7296 52.1731 89.3275 51.9069 91.1874 51.9069C93.0474 51.9069 93.6453 52.1731 94.759 53.4971C96.4499 55.5064 96.4674 57.5885 94.8106 59.558C93.2417 61.422 91.2035 61.8923 89.0629 60.8836Z" fill="#F26531"/>
<path fill-rule="evenodd" clip-rule="evenodd" d="M27.8801 48.5473C28.7038 48.9731 30.0294 50.1761 30.8258 51.22C32.0769 52.8598 32.2738 53.5865 32.2738 56.558C32.2738 59.5295 32.0769 60.2562 30.8258 61.8959C28.9721 64.3264 26.6755 65.5118 23.7468 65.5485C20.6358 65.5883 17.7547 64.0875 16.0783 61.5537C13.2582 57.2923 14.8163 50.7959 19.1728 48.6492C21.3438 47.58 25.906 47.5261 27.8801 48.5473ZM21.9975 61.0092C18.3464 59.4831 17.549 55.2655 20.4766 52.9627C22.5763 51.311 25.4145 51.5416 27.06 53.4971C29.2677 56.1209 28.5638 59.4886 25.5034 60.9408C23.9846 61.6612 23.5784 61.6696 21.9975 61.0092Z" fill="#F26531"/>
</svg>
