<svg width="159" height="159" viewBox="0 0 159 159" fill="none" xmlns="http://www.w3.org/2000/svg">
<path fill-rule="evenodd" clip-rule="evenodd" d="M50.2525 40.4678L55.3561 49.4607L61.2643 49.5019C68.0593 49.5496 71.6932 50.5957 73.2392 52.9478C74.2567 54.496 74.2192 54.5995 72.6416 54.5995C71.7152 54.5995 70.3541 55.1465 69.6156 55.8145C67.0161 58.1666 68.4241 61.2066 72.1131 61.2066C73.3794 61.2066 74.3764 61.6867 74.6634 62.4355C74.9226 63.1109 75.7382 64.2671 76.4759 65.0049C78.359 66.8879 78.2092 70.3919 76.1845 71.8095C73.8463 73.4473 72.9206 73.2314 72.4309 70.9337C71.3334 65.7846 65.9414 61.2389 60.9317 61.2389C55.9823 61.2389 50.4309 65.8103 49.4553 70.6885L49.0023 72.9525H39.9176C30.8689 72.9525 30.8329 72.9458 30.8329 71.2258C30.8329 67.1316 24.2347 61.2462 19.6142 61.2183C14.5421 61.189 8.07529 66.5451 8.07529 70.7758C8.07529 72.6662 7.80735 72.9525 6.03666 72.9525C2.81682 72.9525 0.734117 71.0687 0.734117 68.1557C0.734117 66.2881 1.20395 65.3374 2.56941 64.4426C4.25861 63.3355 4.40616 62.7945 4.42231 57.6351C4.43186 54.5526 4.76146 50.7087 5.15495 49.0937C5.54917 47.4786 6.5263 43.2244 7.32795 39.6397C8.12961 36.0557 9.16617 32.6634 9.63233 32.1025C10.3202 31.2729 13.7309 31.1188 27.8135 31.2781L45.1482 31.4748L50.2525 40.4678ZM11.0844 43.0747C11.8523 39.5619 12.48 36.4235 12.48 36.1005C12.48 35.7768 14.9576 35.5125 17.9859 35.5125H23.4918V42.4866V49.4607H16.5903H9.68888L11.0844 43.0747ZM27.8965 49.4607V42.4866V35.5125H35.1466H42.396L46.1583 42.0307C48.2271 45.6154 49.92 48.7538 49.92 49.0049C49.92 49.2552 44.9647 49.4607 38.9082 49.4607H27.8965ZM30.0988 56.1764C30.0988 55.4437 30.319 54.6238 30.5885 54.3551C31.3307 53.6129 37.6558 53.7913 38.9082 54.59C40.629 55.6868 38.8377 57.859 35.9798 58.1409C32.423 58.4911 30.0988 57.7144 30.0988 56.1764Z" fill="#F26531"/>
<path fill-rule="evenodd" clip-rule="evenodd" d="M74.3294 15.5981L89.5623 30.7276V53.3185C89.5623 65.7434 89.2591 76.4829 88.8891 77.184C83.9316 86.566 83.4419 89.6786 86.2499 93.9643C88.5074 97.4096 91.913 98.2267 99.7687 97.2077C103.565 96.7151 107.092 96.1506 107.607 95.9531C108.247 95.7072 108.416 96.0764 108.143 97.1204C107.748 98.6312 107.47 98.6466 80.6861 98.6466H53.628L52.3991 96.2607C50.1608 91.914 47.7668 89.3629 44.0052 87.3154C34.6188 82.2067 21.9354 86.5469 17.8648 96.2607L16.8649 98.6466H9.1926C-0.016904 98.6466 2.26137e-07 98.6627 2.26137e-07 89.6588C2.26137e-07 80.9969 0.278223 80.7224 9.36219 80.4118L16.6417 80.1637L14.5612 78.0825C12.9755 76.4976 12.48 75.309 12.48 73.0905C12.48 68.0647 16.6527 65.107 21.807 66.4783C26.7799 67.8019 28.1534 74.2768 24.2824 78.1478L22.1366 80.2936L40.2495 80.2775C57.5269 80.2621 58.2904 80.2026 56.7965 78.9928C53.153 76.0417 52.6443 71.9879 55.4912 68.6043C57.1209 66.667 57.8873 66.3454 60.8693 66.3454C63.529 66.3454 64.7088 66.7338 65.8885 67.9972C69.17 71.5129 68.571 77.0804 64.6845 79.1925C62.9454 80.138 63.6722 80.2378 72.4941 80.2643L82.2211 80.2936V56.9774V33.6611L69.7411 21.1972L57.2611 8.73334V11.9319C57.2611 14.4632 57.7369 15.6722 59.5413 17.727C61.4684 19.922 61.7554 20.7318 61.3986 22.9628C60.8605 26.325 58.6075 28.1713 55.0427 28.1713C52.8286 28.1713 51.8602 27.7051 50.3524 25.9124C48.3306 23.5097 48.197 23.0824 48.8973 21.2574C49.6021 19.4214 51.2487 19.8993 52.4894 22.2984C53.7242 24.6857 55.7937 25.168 57.2531 23.4091C58.4717 21.9408 57.7046 20.2282 55.4449 19.3693C53.6038 18.6689 53.5906 18.6029 53.5906 9.81328C53.5906 1.30486 53.6544 0.937767 55.2423 0.347537C56.1504 0.0098431 57.3896 -0.101052 57.9953 0.10083C58.6009 0.303446 65.9509 7.2769 74.3294 15.5981ZM18.2436 75.8302C16.3194 74.801 15.8635 73.393 16.8539 71.5415C18.0505 69.3061 21.1007 69.5322 22.196 71.9371C22.9683 73.6315 22.8714 74.0214 21.3782 75.2305C20.0634 76.2957 19.3631 76.4293 18.2436 75.8302ZM58.1222 73.8297C57.9908 72.8988 58.2786 71.6604 58.7632 71.0768C59.2469 70.4931 60.2233 70.016 60.9317 70.016C62.7112 70.016 64.0283 71.8035 63.7412 73.8297C63.543 75.2282 63.0555 75.5219 60.9317 75.5219C58.8079 75.5219 58.3205 75.2282 58.1222 73.8297Z" fill="#F26531"/>
<path fill-rule="evenodd" clip-rule="evenodd" d="M41.609 94.3314C44.856 96.3267 47.2801 101.547 46.7603 105.424C46.0071 111.037 40.9858 115.531 35.4667 115.531C24.1965 115.531 19.1436 101.48 28.0022 94.7719C32.0281 91.7231 37.0986 91.5594 41.609 94.3314ZM35.3918 108.784C29.8668 109.336 28.0888 101.472 33.2665 99.3858C34.1489 99.0305 34.9697 98.7185 35.0908 98.6928C35.2112 98.6679 36.2463 99.1303 37.3901 99.722C41.7735 101.989 40.3853 108.285 35.3918 108.784Z" fill="#F26531"/>
<path d="M152.682 68.3657C154.087 69.0712 155.987 70.7714 156.903 72.1434C158.528 74.5756 158.569 75.1086 158.569 93.5995V112.561L156.65 113.819C154.927 114.947 154.53 114.965 152.795 113.992L150.861 112.908L150.494 95.0091C150.219 81.6099 149.896 77.0342 149.209 76.8059C148.483 76.5644 148.289 84.5148 148.281 114.92C148.269 156.326 148.268 156.336 144.421 157.689C142.813 158.255 142.016 158.096 140.398 156.889L138.381 155.384L138.014 132.714C137.676 111.877 137.543 110.025 136.362 109.798C135.161 109.567 135.078 111.016 135.078 132.028V154.506L133.275 156.308C132.284 157.299 130.783 158.11 129.939 158.11C129.095 158.11 127.593 157.299 126.602 156.308L124.8 154.506V115.564C124.8 94.1465 124.517 76.6231 124.17 76.6231C123.823 76.6231 121.098 79.4399 118.114 82.8829C115.129 86.3259 111.92 89.3409 110.982 89.5832C105.919 90.8899 94.1337 92.4881 92.8658 92.0388C89.5227 90.8554 89.2488 85.3627 92.4819 84.3364C93.3753 84.053 93.6227 83.3498 93.3885 81.7531C93.1308 80.0008 93.3364 79.5595 94.4067 79.5595C95.1438 79.5595 96.4204 80.3957 97.2426 81.4176C98.7175 83.2492 98.8012 83.2617 103.181 82.3352C107.44 81.4337 107.843 81.1445 112.948 75.3384C115.877 72.0077 118.338 69.2767 118.417 69.2709C118.495 69.265 119.881 68.7835 121.496 68.202C123.616 67.4386 128.009 67.1354 137.28 67.1126C148.09 67.0869 150.532 67.2851 152.682 68.3657Z" fill="#F26531"/>
<path d="M120.004 36.5564C123.432 37.9887 127.463 44.7983 125.903 46.5213C125.332 47.1526 124.404 48.764 123.842 50.1031L122.819 52.5366L119.973 47.6731L117.128 42.8089L109.034 43.0144L100.941 43.2207V54.5995V65.9784L107.017 66.192L113.092 66.4056L108.918 71.4783C106.622 74.2687 104.054 76.6524 103.21 76.775C102.366 76.8984 100.556 76.2538 99.1866 75.3427C97.8182 74.4317 95.919 73.6866 94.9654 73.6866H93.2329V56.4018V39.1163L95.0352 37.3147C96.7772 35.5719 97.1773 35.5125 107.172 35.5125C114.444 35.5125 118.246 35.8216 120.004 36.5564Z" fill="#F26531"/>
<path d="M142.969 49.0378C149.067 55.6919 142.774 65.7442 134.023 63.3282C128.593 61.8291 126.117 55.4563 128.885 50.1031C131.461 45.1214 138.867 44.5612 142.969 49.0378Z" fill="#F26531"/>
<path d="M118.904 104.336L118.881 113.696L117.094 111.665C114.58 108.809 113.626 104.801 114.611 101.233C115.422 98.2956 117.388 95.0406 118.376 94.9988C118.68 94.9863 118.917 99.1876 118.904 104.336Z" fill="#F26531"/>
</svg>
