<svg width="6" height="6" viewBox="0 0 6 6" fill="none" xmlns="http://www.w3.org/2000/svg">
<path d="M3.90126 2.2156V2.22375C3.83726 2.25596 3.76511 2.27185 3.69295 2.27185H1.15816V1.23967H3.69295C3.86946 1.23967 3.98931 1.31998 4.05291 1.38398C4.10916 1.43983 4.20496 1.56784 4.20496 1.75169C4.20496 1.95185 4.08511 2.1357 3.90126 2.2156ZM4.75733 0.688119L4.74918 0.679966C4.47687 0.40806 4.10101 0.240107 3.68521 0.240107H0.157776V5.83923H1.15816V3.26327H3.83726V3.25552H3.88536C4.03701 3.23962 4.18132 3.19967 4.31748 3.13567C4.83683 2.89556 5.19719 2.36765 5.19719 1.75984C5.19719 1.34363 5.02924 0.967769 4.75733 0.688119" fill="#002EC2"/>
</svg>
