<svg width="12" height="13" viewBox="0 0 12 13" fill="none" xmlns="http://www.w3.org/2000/svg">
<path d="M2.69085 4.5334V2.30976H8.1555C8.53415 2.30976 8.79245 2.48196 8.93126 2.61989C9.05163 2.74025 9.25897 3.01612 9.25897 3.41323C9.25897 3.84373 9.00067 4.24084 8.60268 4.41216C8.46563 4.48156 8.31012 4.51583 8.1555 4.51583L2.69085 4.5334ZM8.56842 6.6191C8.89612 6.58484 9.20713 6.49874 9.49969 6.3608C10.6199 5.84333 11.3956 4.7056 11.3956 3.39566C11.3956 2.49953 11.0337 1.6895 10.4477 1.1035C9.86166 0.517497 9.05163 0.155531 8.1555 0.155531H0.536621V12.2217H2.69085V6.67093H4.84596C5.62173 6.67093 6.29383 7.08474 6.67249 7.705L6.72432 7.80867L7.87963 10.0666L8.98222 12.2217H11.3956L10.2922 10.0666L8.56842 6.6191Z" fill="white"/>
</svg>
