<svg width="12" height="13" viewBox="0 0 12 13" fill="none" xmlns="http://www.w3.org/2000/svg">
<path d="M8.977 4.27495V4.29252C8.83907 4.36193 8.68356 4.39619 8.52806 4.39619H3.06517V2.17168H8.52806C8.90847 2.17168 9.16677 2.34476 9.30382 2.48269C9.42507 2.60305 9.63153 2.87892 9.63153 3.27515C9.63153 3.70652 9.37323 4.10275 8.977 4.27495ZM10.822 0.982987L10.8044 0.965416C10.2175 0.379416 9.40749 0.0174488 8.51136 0.0174488H0.90918V12.0845H3.06517V6.53285H8.83907V6.51616H8.94274C9.26956 6.48189 9.58057 6.3958 9.87401 6.25786C10.9933 5.74039 11.7699 4.60265 11.7699 3.29272C11.7699 2.39571 11.408 1.58568 10.822 0.982987" fill="white"/>
</svg>
