<svg width="6" height="6" viewBox="0 0 6 6" fill="none" xmlns="http://www.w3.org/2000/svg">
<path d="M1.6574 2.28742V1.25565H4.19301C4.36871 1.25565 4.48856 1.33555 4.55297 1.39955C4.60882 1.4554 4.70502 1.5834 4.70502 1.76766C4.70502 1.96741 4.58517 2.15167 4.40051 2.23116C4.33691 2.26337 4.26476 2.27926 4.19301 2.27926L1.6574 2.28742ZM4.38461 3.25519C4.53666 3.23929 4.68097 3.19934 4.81672 3.13534C5.33648 2.89523 5.69644 2.36732 5.69644 1.75951C5.69644 1.3437 5.52849 0.967842 5.25658 0.695937C4.98468 0.424032 4.60882 0.256079 4.19301 0.256079H0.657837V5.8548H1.6574V3.27924H2.65738C3.01734 3.27924 3.32919 3.47124 3.50489 3.75905L3.52894 3.80715L4.06501 4.85482L4.57661 5.8548H5.69644L5.18443 4.85482L4.38461 3.25519Z" fill="#002EC2"/>
</svg>
