<svg width="20" height="19" viewBox="0 0 20 19" fill="none" xmlns="http://www.w3.org/2000/svg">
<path d="M19.3095 16.0748L14.7647 11.5299C15.4732 10.367 15.8469 9.03112 15.8447 7.66939C15.8447 3.55989 12.2836 9.72489e-08 8.17406 9.72489e-08C7.19702 -0.000157884 6.22952 0.192167 5.32683 0.56599C4.42413 0.939814 3.60393 1.48781 2.91306 2.17868C2.22219 2.86955 1.67419 3.68976 1.30037 4.59245C0.926542 5.49515 0.734217 6.46264 0.734375 7.43968C0.734375 11.548 4.29546 15.1091 8.40377 15.1091C9.72063 15.1103 11.0139 14.7598 12.1501 14.094L16.719 18.6654C16.9338 18.8797 17.2249 19 17.5284 19C17.8318 19 18.1229 18.8797 18.3378 18.6654L19.4719 17.5312C19.9181 17.085 19.7557 16.521 19.3095 16.0748ZM3.02425 7.43968C3.02409 6.7633 3.15718 6.09351 3.41591 5.46857C3.67464 4.84362 4.05395 4.27577 4.53217 3.79744C5.01039 3.31911 5.57815 2.93967 6.20303 2.68079C6.82791 2.42191 7.49767 2.28867 8.17406 2.28867C11.0196 2.28867 13.5548 4.82268 13.5548 7.66939C13.5545 9.03543 13.0117 10.3454 12.0457 11.3114C11.0798 12.2773 9.7698 12.8201 8.40377 12.8204C5.55826 12.8192 3.02425 10.284 3.02425 7.43968V7.43968Z" fill="white"/>
</svg>
