<svg width="20" height="10" viewBox="0 0 20 10" fill="none" xmlns="http://www.w3.org/2000/svg">
<path d="M15.0001 1H15.3521C16.0831 1.00021 16.789 1.26736 17.337 1.75128C17.885 2.2352 18.2374 2.90256 18.3281 3.628L18.7191 6.752C18.7542 7.03343 18.7291 7.31912 18.6455 7.59011C18.5618 7.8611 18.4214 8.1112 18.2337 8.3238C18.046 8.53639 17.8152 8.70663 17.5566 8.82322C17.2981 8.9398 17.0177 9.00006 16.7341 9H3.26606C2.98244 9.00006 2.70206 8.9398 2.44351 8.82322C2.18496 8.70663 1.95416 8.53639 1.76644 8.3238C1.57871 8.1112 1.43835 7.8611 1.35467 7.59011C1.27098 7.31912 1.24589 7.03343 1.28106 6.752L1.67106 3.628C1.76176 2.90222 2.11448 2.23458 2.66289 1.75062C3.21131 1.26666 3.91764 0.999719 4.64906 1H5.00006" stroke="white" stroke-width="2" stroke-linecap="round" stroke-linejoin="round"/>
</svg>
