<svg width="20" height="19" viewBox="0 0 20 19" fill="none" xmlns="http://www.w3.org/2000/svg">
<path d="M18.5752 16.0748L14.0303 11.5299C14.7388 10.367 15.1125 9.03112 15.1103 7.66939C15.1103 3.55989 11.5492 9.72489e-08 7.43968 9.72489e-08C6.46265 -0.000157884 5.49515 0.192167 4.59245 0.56599C3.68976 0.939813 2.86955 1.48781 2.17868 2.17868C1.48781 2.86955 0.939813 3.68976 0.56599 4.59245C0.192167 5.49515 -0.000157884 6.46264 9.72489e-08 7.43968C9.72489e-08 11.548 3.56109 15.1091 7.66939 15.1091C8.98625 15.1103 10.2796 14.7598 11.4157 14.094L15.9846 18.6654C16.1995 18.8797 16.4905 19 16.794 19C17.0975 19 17.3885 18.8797 17.6034 18.6654L18.7375 17.5312C19.1837 17.0851 19.0213 16.521 18.5752 16.0748ZM2.28987 7.43968C2.28972 6.7633 2.4228 6.09351 2.68153 5.46857C2.94027 4.84362 3.31957 4.27577 3.79779 3.79744C4.27601 3.31911 4.84378 2.93967 5.46866 2.68079C6.09354 2.42191 6.7633 2.28867 7.43968 2.28867C10.2852 2.28867 12.8204 4.82268 12.8204 7.66939C12.8201 9.03543 12.2773 10.3454 11.3114 11.3114C10.3454 12.2773 9.03543 12.8201 7.66939 12.8204C4.82389 12.8192 2.28987 10.284 2.28987 7.43968Z" fill="white"/>
</svg>
