<svg width="20" height="10" viewBox="0 0 20 10" fill="none" xmlns="http://www.w3.org/2000/svg">
<path d="M14.7344 1H15.0864C15.8175 1.00021 16.5234 1.26736 17.0714 1.75128C17.6194 2.2352 17.9718 2.90256 18.0624 3.628L18.4534 6.752C18.4886 7.03343 18.4635 7.31912 18.3798 7.59011C18.2961 7.8611 18.1558 8.1112 17.9681 8.3238C17.7803 8.53639 17.5495 8.70663 17.291 8.82322C17.0324 8.9398 16.7521 9.00006 16.4684 9H3.00044C2.71682 9.00006 2.43643 8.9398 2.17788 8.82322C1.91933 8.70663 1.68854 8.53639 1.50081 8.3238C1.31309 8.1112 1.17272 7.8611 1.08904 7.59011C1.00536 7.31912 0.980267 7.03343 1.01544 6.752L1.40544 3.628C1.49613 2.90222 1.84885 2.23458 2.39727 1.75062C2.94568 1.26666 3.65201 0.999719 4.38344 1H4.73444" stroke="white" stroke-width="2" stroke-linecap="round" stroke-linejoin="round"/>
</svg>
