<svg width="23" height="16" viewBox="0 0 23 16" fill="none" xmlns="http://www.w3.org/2000/svg">
<path d="M20.8 0H1.6C1.17565 0 0.768687 0.168571 0.468629 0.468629C0.168571 0.768687 0 1.17565 0 1.6V14.4C0 14.8243 0.168571 15.2313 0.468629 15.5314C0.768687 15.8314 1.17565 16 1.6 16H20.8C21.2243 16 21.6313 15.8314 21.9314 15.5314C22.2314 15.2313 22.4 14.8243 22.4 14.4V1.6C22.4 1.17565 22.2314 0.768687 21.9314 0.468629C21.6313 0.168571 21.2243 0 20.8 0ZM19.04 1.6L11.2 7.024L3.36 1.6H19.04ZM1.6 14.4V2.328L10.744 8.656C10.8779 8.7489 11.037 8.79869 11.2 8.79869C11.363 8.79869 11.5221 8.7489 11.656 8.656L20.8 2.328V14.4H1.6Z" fill="white"/>
</svg>
