<svg width="19" height="19" viewBox="0 0 19 19" fill="none" xmlns="http://www.w3.org/2000/svg">
<path fill-rule="evenodd" clip-rule="evenodd" d="M13.7869 11.3858C13.5509 11.2678 12.3943 10.6994 12.179 10.6202C11.9636 10.5418 11.8069 10.5031 11.6494 10.739C11.4926 10.9733 11.0421 11.5037 10.9052 11.6605C10.7674 11.818 10.6305 11.837 10.3954 11.7198C10.1602 11.6011 9.40182 11.3533 8.50328 10.5521C7.80424 9.92831 7.33161 9.15802 7.19465 8.9221C7.0577 8.68698 7.17961 8.55952 7.29757 8.44235C7.40365 8.33706 7.5327 8.16764 7.65065 8.03069C7.76861 7.89294 7.8074 7.79477 7.88578 7.63723C7.96495 7.48048 7.92536 7.34352 7.86599 7.22556C7.8074 7.1076 7.33715 5.9494 7.14082 5.47836C6.95003 5.01998 6.75607 5.08252 6.61199 5.07461C6.47424 5.06827 6.31749 5.06669 6.16074 5.06669C6.00399 5.06669 5.74907 5.12527 5.53374 5.36119C5.31762 5.59631 4.71041 6.16552 4.71041 7.32373C4.71041 8.48114 5.55274 9.59977 5.6707 9.75731C5.78866 9.91406 7.32924 12.2906 9.68919 13.3095C10.2513 13.5518 10.6891 13.6966 11.0303 13.8043C11.5939 13.984 12.1069 13.9587 12.5123 13.8977C12.9635 13.8304 13.904 13.3285 14.1004 12.7791C14.2959 12.2297 14.2959 11.7586 14.2373 11.6605C14.1787 11.5623 14.022 11.5037 13.7861 11.3858H13.7869ZM9.49444 17.2465H9.49128C8.08958 17.2467 6.71362 16.8699 5.50762 16.1555L5.22262 15.9861L2.2602 16.7635L3.05108 13.8756L2.86504 13.5795C2.0814 12.3321 1.66669 10.8884 1.66883 9.41531C1.67041 5.10073 5.18066 1.59049 9.49761 1.59049C11.5876 1.59049 13.5525 2.4059 15.0298 3.88473C15.7584 4.61036 16.3359 5.47326 16.7289 6.42352C17.1219 7.37379 17.3225 8.39254 17.3193 9.42085C17.3177 13.7354 13.8074 17.2465 9.49444 17.2465ZM16.1539 2.76136C15.2817 1.88334 14.2438 1.18716 13.1005 0.713165C11.9573 0.239166 10.7313 -0.00322702 9.49365 3.24405e-05C4.30508 3.24405e-05 0.0807499 4.22357 0.0791665 9.41452C0.0767623 11.0665 0.510129 12.6899 1.33554 14.121L0 19L4.99066 17.6906C6.37122 18.4428 7.91831 18.8369 9.49048 18.8369H9.49444C14.683 18.8369 18.9073 14.6134 18.9089 9.42164C18.9128 8.18449 18.6712 6.95885 18.1984 5.81563C17.7255 4.67241 17.0306 3.63431 16.1539 2.76136Z" fill="white"/>
</svg>
